<?xml version="1.0" standalone="no"?>
<!DOCTYPE svg PUBLIC "-//W3C//DTD SVG 1.1//EN" "http://www.w3.org/Graphics/SVG/1.1/DTD/svg11.dtd" >
<svg xmlns="http://www.w3.org/2000/svg">
<metadata></metadata>
<defs>
<font id="neristhin" horiz-adv-x="683" >
<font-face units-per-em="1000" ascent="755" descent="-245" />
<missing-glyph horiz-adv-x="219" />
<glyph horiz-adv-x="1000" />
<glyph horiz-adv-x="1000" />
<glyph unicode="&#xd;" horiz-adv-x="371" />
<glyph unicode=" "  horiz-adv-x="219" />
<glyph unicode="&#x09;" horiz-adv-x="219" />
<glyph unicode="&#xa0;" horiz-adv-x="219" />
<glyph unicode="!" horiz-adv-x="223" d="M79 30q0 39 37 39q38 0 38 -39q0 -40 -38 -40q-37 0 -37 40zM90 352v324q0 8 8 8h27q8 0 8 -8v-324q0 -36 -3 -105.5t-3 -98.5q0 -8 -8 -8h-15q-8 0 -8 8q0 29 -3 98.5t-3 105.5z" />
<glyph unicode="&#x22;" horiz-adv-x="281" d="M57 662v31q0 8 8 8h37q8 0 8 -8v-31q0 -14 -8 -89q-2 -8 -9 -8h-18q-7 0 -9 8q-9 84 -9 89zM170 662v31q0 8 8 8h37q8 0 8 -8v-31q0 -14 -8 -89q-2 -8 -9 -8h-18q-7 0 -9 8q-9 84 -9 89z" />
<glyph unicode="#" horiz-adv-x="718" d="M57 161l4 24q1 7 8 7h106l42 300h-105q-9 0 -7 8l2 24q0 8 8 8h108l20 144q1 7 8 7h25q10 0 8 -9l-20 -142h243l20 144q1 7 8 7h25q10 0 8 -9l-20 -142h106q9 0 7 -8l-2 -24q-2 -8 -9 -8h-108l-42 -300h106q10 0 8 -9l-4 -24q-1 -7 -8 -7h-108l-20 -145q-1 -7 -8 -7h-25 q-9 0 -8 9l20 143h-243l-20 -145q-1 -7 -8 -7h-25q-9 0 -8 9l20 143h-104q-9 0 -8 9zM216 192h243l42 300h-243z" />
<glyph unicode="$" horiz-adv-x="589" d="M67 47l8 24q3 8 11 5l32 -13q75 -29 157 -31v301l-60 22q-74 28 -106.5 69.5t-32.5 101.5q0 76 53.5 120.5t145.5 46.5v80q0 8 8 8h26q8 0 8 -8v-81q52 -4 115 -23l47 -15q8 -2 5 -10l-8 -23q-2 -8 -10 -5l-45 15q-49 15 -104 20v-290l66 -25q68 -26 105 -64t37 -99 q0 -78 -57.5 -126.5t-150.5 -55.5v-84q0 -8 -8 -8h-26q-8 0 -8 8v83q-89 3 -171 35l-33 12q-7 4 -4 10zM120 526q0 -42 23.5 -75.5t88.5 -57.5l43 -16v275q-71 -2 -113 -36t-42 -90zM317 33q72 6 118 43.5t46 96.5q0 82 -112 125l-52 19v-284z" />
<glyph unicode="%" horiz-adv-x="746" d="M65 539q0 68 37.5 106.5t103.5 38.5t103 -38.5t37 -106.5t-37 -107t-103 -39t-103.5 39t-37.5 107zM106 539q0 -50 26.5 -78.5t73.5 -28.5q46 0 72.5 28.5t26.5 78.5t-26.5 78t-72.5 28q-47 0 -73.5 -28t-26.5 -78zM122 10l459 659q5 5 10 5h29q12 0 5 -10l-459 -659 q-5 -5 -10 -5h-29q-12 0 -5 10zM401 136q0 68 37 106t104 38q65 0 102 -38t37 -106q0 -69 -37 -107.5t-102 -38.5q-67 0 -104 38.5t-37 107.5zM441 136q0 -50 26.5 -78t74.5 -28q46 0 72.5 28t26.5 78q0 49 -26 77t-73 28q-48 0 -74.5 -27.5t-26.5 -77.5z" />
<glyph unicode="&#x26;" horiz-adv-x="670" d="M54 125q0 40 15 72.5t59 75.5l88 89q-76 79 -76 165q0 75 53.5 120.5t138.5 45.5q55 0 131 -22l33 -11q8 -3 5 -11l-8 -23q-2 -8 -10 -6l-33 11q-66 21 -118 21q-67 0 -108 -34t-41 -91q0 -39 13.5 -69.5t50.5 -69.5l186 -194l10 10q34 35 46.5 49.5t23 36.5t10.5 48v32 h-64q-8 0 -8 8v23q0 8 8 8h98q8 0 8 -8v-63q0 -45 -20 -77t-75 -88l-8 -8l149 -155q3 -4 1.5 -7t-6.5 -3h-35q-6 0 -10 4l-127 132l-74 -74q-40 -41 -77 -56.5t-86 -15.5q-66 0 -104.5 36.5t-38.5 98.5zM97 125q0 -44 26.5 -68.5t73.5 -24.5q43 0 72.5 12.5t62.5 47.5l73 74 l-161 167l-90 -90q-34 -35 -45.5 -60.5t-11.5 -57.5z" />
<glyph unicode="'" horiz-adv-x="167" d="M57 662v31q0 8 8 8h37q8 0 8 -8v-31q0 -14 -8 -89q-2 -8 -9 -8h-18q-7 0 -9 8q-9 84 -9 89z" />
<glyph unicode="(" horiz-adv-x="324" d="M112 320q0 211 83 411q3 6 10 6h26q10 0 6 -9q-83 -208 -83 -408q0 -202 83 -409q4 -9 -6 -9h-26q-7 0 -10 6q-83 202 -83 412z" />
<glyph unicode=")" horiz-adv-x="324" d="M87 -89q83 208 83 409q0 200 -83 408q-4 9 6 9h26q7 0 10 -6q83 -200 83 -411q0 -210 -83 -412q-3 -6 -10 -6h-26q-10 0 -6 9z" />
<glyph unicode="*" horiz-adv-x="383" d="M47 554v22q0 8 8 8h59q7 0 14 -0.5t14.5 -1.5t12.5 -1h9q0 2 -1 4q-14 17 -21 28l-44 78q-5 10 6 10h26q6 0 9 -6l35 -60q8 -14 14 -34q1 -3 2.5 -4t3.5 0t2 4q4 18 12 32l36 62q3 6 9 6h27q11 0 6 -10l-45 -78q-3 -6 -21 -28q-2 -3 -1 -3q0 -1 9 -1q5 0 16 1.5t16 1.5 h68q8 0 8 -8v-22q0 -8 -8 -8h-67q-17 0 -39 3q-3 1 -4 -1t1 -5q23 -28 23 -29l43 -77q5 -10 -6 -10h-27q-6 0 -9 6l-35 61q-5 9 -13 33q-3 12 -7 0q-11 -29 -14 -34l-34 -60q-3 -6 -9 -6h-26q-11 0 -6 10l41 73q4 8 23 34q1 2 1 4q-1 3 -9 1q-1 0 -16 -1.5t-25 -1.5h-59 q-8 0 -8 8z" />
<glyph unicode="+" horiz-adv-x="636" d="M85 251v24q0 8 8 8h204v224q0 8 8 8h25q8 0 8 -8v-224h205q8 0 8 -8v-24q0 -8 -8 -8h-205v-224q0 -8 -8 -8h-25q-8 0 -8 8v224h-204q-8 0 -8 8z" />
<glyph unicode="," horiz-adv-x="207" d="M56 -105l37 81q9 14 -5 18q-24 7 -24 37q0 19 11 29.5t29 10.5q17 0 28 -12.5t11 -31.5q0 -29 -17 -63l-31 -69h-39z" />
<glyph unicode="-" horiz-adv-x="442" d="M85 251v24q0 8 8 8h256q8 0 8 -8v-24q0 -8 -8 -8h-256q-8 0 -8 8z" />
<glyph unicode="." horiz-adv-x="213" d="M69 30q0 39 37 39q38 0 38 -39q0 -40 -38 -40q-37 0 -37 40z" />
<glyph unicode="/" horiz-adv-x="446" d="M35 -89l343 821q3 6 10 6h27q10 0 6 -9l-343 -821q-3 -6 -10 -6h-27q-10 0 -6 9z" />
<glyph unicode="0" horiz-adv-x="624" d="M64 342q0 164 66 257.5t182 93.5t182 -94t66 -257q0 -164 -66 -258t-182 -94t-182 94t-66 258zM107 342q0 -147 54 -229t151 -82q96 0 150.5 82t54.5 229q0 146 -54.5 228.5t-150.5 82.5q-97 0 -151 -82.5t-54 -228.5z" />
<glyph unicode="1" horiz-adv-x="299" d="M52 610q-3 7 4 11l130 69q7 3 13.5 -1t6.5 -11v-670q0 -8 -8 -8h-26q-8 0 -8 8v565q0 10 1.5 27.5t1.5 20.5q0 9 -6 9q-2 0 -6 -2l-81 -44q-6 -4 -11 3z" />
<glyph unicode="2" horiz-adv-x="564" d="M74 8v28q0 152 117 235l174 126q87 62 87 128q0 58 -45.5 93t-121.5 35t-137 -21l-46 -15q-8 -3 -10 5l-7 22q-3 8 5 10l46 15q80 24 149 24q96 0 153 -45t57 -123q0 -83 -107 -160l-173 -127q-99 -69 -99 -198h362q8 0 8 -8v-24q0 -8 -8 -8h-396q-8 0 -8 8z" />
<glyph unicode="3" horiz-adv-x="551" d="M62 39l7 22q3 8 11 6l47 -15q76 -21 138 -21q80 0 129.5 41.5t49.5 110.5q0 75 -48.5 116t-135.5 41h-32q-8 0 -8 8v23q0 8 8 8h32q77 0 121 37t44 100t-43 100t-114 37q-67 0 -129 -19l-41 -13q-8 -2 -10 6l-7 22q-3 8 5 10l40 13q72 21 142 21q91 0 145.5 -47 t54.5 -129q0 -112 -98 -149q-19 -7 0 -12q57 -19 87 -64t30 -110q0 -88 -60.5 -140t-161.5 -52q-65 0 -150 24l-48 15q-8 2 -5 10z" />
<glyph unicode="4" horiz-adv-x="593" d="M49 211v27q0 6 4 10q14 17 34.5 41t27.5 32l250 299q22 24 41 57q3 6 9 6h36q8 0 8 -8v-432h62q8 0 8 -8v-23q0 -8 -8 -8h-62v-196q0 -8 -8 -8h-26q-8 0 -8 8v195h-360q-8 0 -8 8zM109 254q-9 -11 2 -11h306v302q0 39 5 64q1 7 -3.5 8.5t-9.5 -4.5l-252 -303 q-6 -7 -24.5 -29t-23.5 -27z" />
<glyph unicode="5" horiz-adv-x="585" d="M72 39l8 23q3 7 10 5l46 -15q69 -21 136 -21q95 0 148.5 47.5t53.5 130.5q0 82 -48 127.5t-137 45.5q-57 0 -108 -9l-55 -7q-6 -1 -10 3l-9 8q-5 4 -5 10v288q0 8 8 8h354q10 0 6 -9l-7 -23q-1 -7 -9 -7h-310v-175q0 -34 -2 -50q-2 -7 1 -10t10 -1l28 4q64 11 109 11 q108 0 167 -56.5t59 -157.5q0 -103 -64.5 -161t-179.5 -58q-64 0 -149 24l-46 15q-8 2 -5 10z" />
<glyph unicode="6" horiz-adv-x="594" d="M64 213q0 74 23.5 130.5t71.5 122.5l156 212q4 5 10 5h34q12 0 5 -10l-171 -229l-19.5 -26t-24.5 -34q-5 -8 -1.5 -11t12.5 3q60 41 142 41q110 0 171.5 -56t61.5 -158q0 -101 -62 -157t-174 -56q-115 0 -175 57.5t-60 165.5zM107 203q0 -81 50 -126.5t142 -45.5 t142.5 45.5t50.5 126.5q0 82 -50.5 128t-142.5 46t-142 -46t-50 -128z" />
<glyph unicode="7" horiz-adv-x="564" d="M50 652v23q0 8 8 8h441q6 0 12.5 -9.5t0.5 -15.5q-17 -26 -43 -82l-258 -570q-3 -6 -10 -6h-29q-10 0 -6 9l262 578q9 21 27 45q7 12 -9 12h-388q-8 0 -8 8z" />
<glyph unicode="8" horiz-adv-x="606" d="M64 179q0 59 36 107.5t97 67.5q5 1 7 3.5t0 5.5t-7 4q-113 35 -113 149q0 82 58.5 129.5t160.5 47.5t159.5 -47.5t57.5 -129.5q0 -114 -113 -149q-5 -1 -7 -3.5t0 -5.5t7 -4q62 -19 98.5 -67.5t36.5 -107.5q0 -88 -63.5 -138.5t-175.5 -50.5t-175.5 50.5t-63.5 138.5z M107 180q0 -70 52.5 -109.5t143.5 -39.5q92 0 144 39.5t52 109.5q0 72 -56.5 116t-139.5 44q-84 0 -140 -43.5t-56 -116.5zM127 515q0 -63 47 -99t129 -36q80 0 127.5 36t47.5 99q0 64 -47 101t-128 37q-82 0 -129 -37t-47 -101z" />
<glyph unicode="9" horiz-adv-x="594" d="M59 480q0 101 62 157t174 56q115 0 175 -57.5t60 -165.5q0 -74 -23.5 -130.5t-71.5 -122.5l-156 -212q-4 -5 -10 -5h-34q-12 0 -5 10l171 229l19.5 26t24.5 34q5 8 1.5 11t-12.5 -3q-60 -41 -142 -41q-110 0 -171.5 56t-61.5 158zM102 480q0 -82 50.5 -128t142.5 -46 t142 46t50 128q0 81 -50 126.5t-142 45.5t-142.5 -45.5t-50.5 -126.5z" />
<glyph unicode=":" horiz-adv-x="203" d="M69 30q0 39 37 39q38 0 38 -39q0 -40 -38 -40q-37 0 -37 40zM69 447q0 39 37 39q38 0 38 -39q0 -40 -38 -40q-37 0 -37 40z" />
<glyph unicode=";" horiz-adv-x="215" d="M65 -101l37 81q9 14 -5 18q-24 7 -24 37q0 19 11 29.5t29 10.5q17 0 28 -12.5t11 -31.5q0 -29 -17 -63l-31 -69h-39zM78 447q0 39 37 39q38 0 38 -39q0 -40 -38 -40q-37 0 -37 40z" />
<glyph unicode="&#x3c;" horiz-adv-x="636" d="M85 241v23q0 7 6 10l451 207q9 4 9 -6v-27q0 -7 -6 -10l-408 -186l408 -185q6 -3 6 -10v-28q0 -10 -9 -6l-451 208q-6 3 -6 10z" />
<glyph unicode="=" horiz-adv-x="607" d="M85 144v24q0 8 8 8h422q8 0 8 -8v-24q0 -8 -8 -8h-422q-8 0 -8 8zM85 358v24q0 8 8 8h422q8 0 8 -8v-24q0 -8 -8 -8h-422q-8 0 -8 8z" />
<glyph unicode="&#x3e;" horiz-adv-x="636" d="M85 29v28q0 7 6 10l408 185l-408 186q-6 3 -6 10v27q0 10 9 6l451 -207q6 -3 6 -10v-23q0 -7 -6 -10l-451 -208q-9 -4 -9 6z" />
<glyph unicode="?" horiz-adv-x="541" d="M56 645q-2 8 6 10l47 14q80 24 151 24q98 0 155 -42t57 -116q0 -94 -106 -167l-38 -27q-73 -51 -73 -118v-76q0 -8 -8 -8h-25q-8 0 -8 8v76q0 90 89 151l39 26q88 59 88 135q0 53 -46.5 84.5t-123.5 31.5q-64 0 -138 -20l-47 -15q-8 -2 -11 6zM203 30q0 39 37 39 q38 0 38 -39q0 -40 -38 -40q-37 0 -37 40z" />
<glyph unicode="@" horiz-adv-x="865" d="M75 247q0 158 97 254.5t256 96.5q163 0 262.5 -92.5t99.5 -243.5q0 -58 -28.5 -89t-76.5 -31q-46 0 -73 25t-59 97q-23 55 -52 77t-72 22q-55 0 -85 -30t-30 -83q0 -56 33.5 -88t92.5 -32q34 0 89 15l17 4q5 1 10 -4q15 -15 20 -18q10 -7 -1 -10l-33 -10 q-53 -17 -102 -17q-79 0 -123.5 42.5t-44.5 117.5q0 72 41.5 112.5t115.5 40.5q55 0 92 -26.5t65 -90.5q28 -63 47.5 -83.5t51.5 -20.5q28 0 45.5 21t17.5 59q0 133 -88 214t-232 81q-140 0 -226 -85.5t-86 -224.5q0 -140 84 -225.5t221 -85.5q87 0 191 30l52 16q8 2 10 -5 l8 -24q3 -8 -5 -10l-54 -16q-99 -32 -202 -32q-156 0 -251 97t-95 255z" />
<glyph unicode="A" d="M48 9l221 526q30 71 49 141q1 7 9 7h28q8 0 9 -7q15 -55 49 -141l222 -526q4 -9 -6 -9h-29q-7 0 -10 6l-78 189h-341l-78 -189q-3 -6 -10 -6h-29q-10 0 -6 9zM188 236h306l-112 266q-24 57 -35 108q-1 3 -3.5 4.5t-5 0t-2.5 -4.5q-14 -55 -36 -108z" />
<glyph unicode="B" horiz-adv-x="643" d="M93 8v667q0 8 8 8h265q92 0 143.5 -43t51.5 -119q0 -57 -28.5 -100t-82.5 -62q-9 -2 -9 -6.5t10 -6.5q64 -16 98.5 -60t34.5 -111q0 -83 -54 -129t-151 -46h-278q-8 0 -8 8zM136 40h243q75 0 118 36t43 100q0 76 -57.5 115.5t-166.5 39.5h-180v-291zM136 371h178 q97 0 150 40t53 109q0 57 -40.5 90.5t-110.5 33.5h-230v-273z" />
<glyph unicode="C" horiz-adv-x="596" d="M59 342q0 163 75.5 257t207.5 94q75 0 141 -25l41 -15q8 -3 5 -11l-9 -23q-4 -7 -10 -4l-42 15q-53 21 -126 22q-114 0 -176.5 -81.5t-62.5 -228.5q0 -146 62.5 -228t176.5 -82q67 0 129 23l39 14q8 3 11 -4l8 -23q3 -8 -4 -11l-40 -14q-72 -27 -143 -27 q-132 0 -207.5 94.5t-75.5 257.5z" />
<glyph unicode="D" horiz-adv-x="657" d="M93 8v667q0 8 8 8h216q131 0 206 -91t75 -250t-75 -250.5t-206 -91.5h-216q-8 0 -8 8zM136 40h181q112 0 174.5 80t62.5 222t-62.5 222t-174.5 80h-181v-604z" />
<glyph unicode="E" horiz-adv-x="597" d="M93 8v667q0 8 8 8h427q9 0 6 -9l-6 -23q-1 -7 -9 -7h-383v-273h327q8 0 8 -8v-24q0 -8 -8 -8h-327v-291h398q8 0 8 -8v-24q0 -8 -8 -8h-433q-8 0 -8 8z" />
<glyph unicode="F" horiz-adv-x="582" d="M93 8v667q0 8 8 8h419q9 0 6 -9l-7 -23q-1 -7 -9 -7h-374v-293h328q8 0 8 -8v-24q0 -8 -8 -8h-328v-303q0 -8 -8 -8h-27q-8 0 -8 8z" />
<glyph unicode="G" horiz-adv-x="643" d="M59 342q0 163 75 257t207 94q41 0 71 -5.5t73 -20.5l39 -15q7 -4 4 -10l-8 -23q-3 -8 -11 -5l-39 14q-65 24 -129 24q-113 0 -175.5 -82t-62.5 -228q0 -147 62.5 -228.5t175.5 -81.5q68 1 127 21l54 20v212h-145q-9 0 -6 9l7 23q1 7 9 7h169q8 0 8 -8v-263q0 -3 -1 -4.5 t-2.5 -3t-3 -2.5t-4.5 -1.5t-4 -1.5l-66 -24q-71 -26 -142 -26q-132 0 -207 94t-75 258z" />
<glyph unicode="H" horiz-adv-x="684" d="M93 8v667q0 8 8 8h27q8 0 8 -8v-304h412v304q0 8 8 8h26q8 0 8 -8v-667q0 -8 -8 -8h-26q-8 0 -8 8v323h-412v-323q0 -8 -8 -8h-27q-8 0 -8 8z" />
<glyph unicode="I" horiz-adv-x="229" d="M93 8v667q0 8 8 8h27q8 0 8 -8v-667q0 -8 -8 -8h-27q-8 0 -8 8z" />
<glyph unicode="J" horiz-adv-x="412" d="M51 20l8 23q2 7 10 5l25 -8q27 -8 63 -8q54 0 84.5 36.5t30.5 103.5v503q0 8 8 8h27q8 0 8 -8v-503q0 -84 -42.5 -133t-115.5 -49q-41 0 -73 11l-27 9q-8 2 -6 10z" />
<glyph unicode="K" horiz-adv-x="617" d="M93 8v667q0 8 8 8h27q8 0 8 -8v-304h24q113 0 228 150l121 157q4 5 10 5h33q12 0 5 -10l-135 -176q-34 -46 -81 -85t-81 -54q-15 -6 0 -12q83 -31 171 -150l139 -186q7 -10 -5 -10h-34q-6 0 -10 5l-124 168q-116 158 -235 158h-26v-323q0 -8 -8 -8h-27q-8 0 -8 8z" />
<glyph unicode="L" horiz-adv-x="558" d="M93 8v667q0 8 8 8h27q8 0 8 -8v-635h355q8 0 8 -8v-24q0 -8 -8 -8h-390q-8 0 -8 8z" />
<glyph unicode="M" horiz-adv-x="792" d="M93 8v667q0 8 8 8h49q8 0 9 -7q9 -32 33 -82l172 -372q14 -29 25 -64q1 -5 4 -6.5t6 0t4 6.5q10 33 25 63l172 372q23 49 33 83q1 7 9 7h49q8 0 8 -8v-667q0 -8 -8 -8h-27q-8 0 -8 8v493q0 61 4 102q0 6 -2 9t-5 1.5t-5 -7.5q-12 -33 -34 -80l-155 -332q-15 -33 -40 -98 q-1 -6 -9 -6h-28q-8 0 -9 6q-27 70 -40 99l-155 330q-20 47 -34 81q-3 10 -8.5 8t-3.5 -11q4 -41 4 -102v-493q0 -8 -8 -8h-27q-8 0 -8 8z" />
<glyph unicode="N" horiz-adv-x="696" d="M93 8v667q0 8 8 8h34q7 0 10 -6q22 -48 57 -95l321 -450q23 -33 32 -56q1 -4 4 -4.5t5 2t1 6.5q-5 25 -5 73v522q0 8 8 8h27q8 0 8 -8v-667q0 -8 -8 -8h-33q-7 0 -10 6q-20 40 -58 97l-321 450q-22 33 -31 55q-2 5 -7 4t-4 -8q6 -32 6 -73v-523q0 -8 -8 -8h-28q-8 0 -8 8 z" />
<glyph unicode="O" d="M59 342q0 162 75.5 256.5t206.5 94.5q132 0 207 -94t75 -257q0 -164 -75 -258t-207 -94q-131 0 -206.5 94t-75.5 258zM103 342q0 -147 62.5 -228.5t175.5 -81.5t176 82t63 228t-63 228t-176 82t-175.5 -82t-62.5 -228z" />
<glyph unicode="P" horiz-adv-x="613" d="M93 8v667q0 8 8 8h236q105 0 163 -52.5t58 -147.5q0 -208 -283 -208h-139v-267q0 -8 -8 -8h-27q-8 0 -8 8zM136 315h139q240 0 240 168q0 76 -47.5 118.5t-130.5 42.5h-201v-329z" />
<glyph unicode="Q" d="M59 342q0 162 75.5 256.5t206.5 94.5t206.5 -94.5t75.5 -256.5q0 -126 -44.5 -207.5t-111.5 -111.5q-6 -2 -8.5 -5t0 -5.5t8.5 -3.5q31 -8 67.5 -34t66.5 -63l40 -55q5 -7 -1 -11l-20 -14q-7 -5 -11 1l-42 53q-76 104 -226 104q-131 0 -206.5 94t-75.5 258zM103 342 q0 -147 62.5 -228.5t175.5 -81.5t176 82t63 228t-63 228t-176 82t-175.5 -82t-62.5 -228z" />
<glyph unicode="R" horiz-adv-x="650" d="M93 8v667q0 8 8 8h259q95 0 148.5 -47t53.5 -132q0 -134 -154 -181q-20 -7 -1 -16q66 -31 107 -125l73 -173q4 -9 -6 -9h-28q-7 0 -10 6l-68 161q-57 137 -203 137h-136v-296q0 -8 -8 -8h-27q-8 0 -8 8zM136 344h153q108 0 168.5 42t60.5 118q0 66 -42 103t-116 37h-224 v-300z" />
<glyph unicode="S" horiz-adv-x="589" d="M67 47l8 24q3 8 11 5l32 -13q82 -31 172 -31q81 0 136 38t55 103q0 82 -112 125l-154 57q-74 28 -106.5 69.5t-32.5 101.5q0 78 56.5 122.5t151.5 44.5q70 0 148 -24l47 -15q8 -2 5 -10l-8 -23q-2 -8 -10 -5l-45 15q-68 21 -137 21q-74 0 -119 -34t-45 -92 q0 -42 23.5 -75.5t88.5 -57.5l151 -57q68 -26 105 -64t37 -99q0 -84 -66.5 -133.5t-168.5 -49.5q-97 0 -186 35l-33 12q-7 4 -4 10z" />
<glyph unicode="T" horiz-adv-x="618" d="M44 652v23q0 8 8 8h513q8 0 8 -8v-23q0 -8 -8 -8h-235v-636q0 -8 -8 -8h-26q-8 0 -8 8v636h-236q-8 0 -8 8z" />
<glyph unicode="U" horiz-adv-x="663" d="M83 265v410q0 8 8 8h27q8 0 8 -8v-410q0 -111 53.5 -172t151.5 -61t152 61.5t54 171.5v410q0 8 8 8h26q8 0 8 -8v-410q0 -130 -65 -202.5t-183 -72.5t-183 72.5t-65 202.5z" />
<glyph unicode="V" horiz-adv-x="665" d="M43 674q-4 9 6 9h29q7 0 10 -6l209 -498q21 -49 30 -99q1 -3 3.5 -4.5t5 0t2.5 4.5q9 50 30 99l210 498q3 6 10 6h28q10 0 6 -9l-221 -522q-26 -64 -46 -145q-1 -7 -9 -7h-27q-8 0 -9 7q-22 89 -46 145z" />
<glyph unicode="W" horiz-adv-x="959" d="M52 674q-3 9 6 9h28q8 0 9 -7l151 -494q10 -34 20 -93q1 -6 5 -6t5 6q5 42 22 93l164 494q1 7 9 7h18q8 0 9 -7l164 -494q20 -65 22 -93q0 -6 4.5 -6t5.5 6q5 41 20 93l151 494q1 7 9 7h27q9 0 6 -9l-160 -527q-27 -98 -35 -140q-1 -7 -8 -7h-29q-7 0 -8 7 q-15 73 -37 138l-132 399q-8 27 -12 51q-1 4 -3.5 6t-4.5 0t-3 -6q-7 -29 -13 -51l-132 -399q-22 -65 -37 -138q-1 -7 -8 -7h-29q-7 0 -8 7q-11 55 -35 140z" />
<glyph unicode="X" horiz-adv-x="646" d="M66 10l203 303q9 17 19 25q6 4 7 7q0 4 -3 7q-10 4 -23 28l-197 293q-7 10 5 10h32q6 0 9 -5l197 -294q8 -13 16 0l197 294q3 5 9 5h32q11 0 6 -10l-197 -293q-16 -24 -23 -28q-8 -6 4 -14q8 -5 19 -25l203 -303q5 -10 -6 -10h-32q-6 0 -9 5l-203 305q-7 12 -16 0 l-203 -305q-3 -5 -9 -5h-32q-12 0 -5 10z" />
<glyph unicode="Y" horiz-adv-x="642" d="M45 673q-5 10 6 10h32q6 0 9 -5l167 -252q35 -55 56 -104q1 -5 5.5 -5t6.5 5q24 56 56 104l167 252q3 5 9 5h32q11 0 6 -10l-183 -274q-40 -61 -56 -100t-16 -94v-197q0 -8 -8 -8h-27q-8 0 -8 8v197q0 56 -16 95t-55 99z" />
<glyph unicode="Z" horiz-adv-x="598" d="M62 15q-3 7 1 11q21 26 62 89l310 473q23 32 34 44q4 5 4.5 8.5t-2 5t-7.5 1.5q-36 -3 -62 -3h-314q-8 0 -8 8v23q0 8 8 8h434q6 0 12.5 -9.5t0.5 -15.5q-30 -35 -58 -81l-316 -481q-6 -9 -33 -44q-6 -7 -4 -11.5t10 -3.5q34 3 61 3h330q9 0 7 -9l-7 -24q-1 -7 -9 -7 h-440q-6 0 -9 6z" />
<glyph unicode="[" horiz-adv-x="315" d="M113 -90v819q0 8 8 8h112q8 0 8 -8v-23q0 -8 -8 -8h-79v-757h79q8 0 8 -8v-23q0 -8 -8 -8h-112q-8 0 -8 8z" />
<glyph unicode="\" horiz-adv-x="446" d="M25 729q-4 9 6 9h27q7 0 10 -6l343 -821q4 -9 -6 -9h-27q-7 0 -10 6z" />
<glyph unicode="]" horiz-adv-x="315" d="M74 -67q0 8 8 8h79v757h-79q-8 0 -8 8v23q0 8 8 8h112q8 0 8 -8v-819q0 -8 -8 -8h-112q-8 0 -8 8v23z" />
<glyph unicode="^" horiz-adv-x="470" d="M69 353l144 316q3 6 10 6h25q7 0 10 -6l144 -316q4 -9 -6 -9h-27q-7 0 -10 6l-124 276l-123 -276q-3 -6 -10 -6h-27q-10 0 -6 9z" />
<glyph unicode="_" horiz-adv-x="475" d="M-10 -178q0 8 8 8h480q8 0 8 -8v-24q0 -8 -8 -8h-480q-8 0 -8 8v24z" />
<glyph unicode="`" horiz-adv-x="238" d="M56 691q-3 4 -1.5 7t6.5 3h32q6 0 10 -5l80 -104q7 -10 -5 -10h-25q-6 0 -10 5z" />
<glyph unicode="a" horiz-adv-x="501" d="M49 131q0 65 44.5 103.5t127.5 39.5h164v17q0 73 -38 113.5t-107 40.5q-51 0 -96 -12l-35 -12q-8 -2 -10 6l-8 23q-2 8 6 10l37 11q45 15 107 15q86 0 136.5 -52.5t50.5 -142.5v-283q0 -8 -8 -8h-23q-8 0 -8 8v53q-1 9 -6 9t-11 -9q-54 -71 -169 -71q-72 0 -113 37.5 t-41 103.5zM91 132q0 -48 29.5 -75t83.5 -27q85 0 133 49.5t48 137.5v17h-164q-65 0 -97.5 -27.5t-32.5 -74.5z" />
<glyph unicode="b" horiz-adv-x="548" d="M83 55v638q0 8 8 8h26q8 0 8 -8v-203q0 -55 -4 -94q-1 -7 3 -8.5t8 5.5q55 93 162 93q94 0 147 -66t53 -182t-56 -182t-155 -66q-69 0 -130 28l-64 27q-6 3 -6 10zM125 77l45 -23q50 -23 113 -23q79 0 124 55t45 152t-42.5 152t-117.5 55q-81 0 -124 -62.5t-43 -162.5 v-143z" />
<glyph unicode="c" horiz-adv-x="464" d="M54 238q0 117 57 182.5t164 65.5q42 0 95 -16l25 -7q8 -2 5 -10l-7 -22q-3 -8 -11 -6l-24 8q-41 12 -82 12q-89 0 -134.5 -54t-45.5 -153q0 -98 45.5 -152.5t131.5 -54.5q46 0 91 14l26 8q7 2 10 -5l7 -22q3 -8 -5 -10l-26 -8q-59 -18 -102 -18q-106 0 -163 66t-57 182z " />
<glyph unicode="d" horiz-adv-x="548" d="M54 238q0 116 55.5 181.5t155.5 66.5q69 0 127 -27l31 -15v249q0 8 8 8h26q8 0 8 -8v-685q0 -8 -8 -8h-23q-8 0 -8 8v70q-1 7 -4 7.5t-8 -6.5q-59 -89 -159 -89q-94 0 -147.5 66.5t-53.5 181.5zM96 238q1 -96 43.5 -151.5t116.5 -55.5q81 0 124 62.5t43 162.5v144l-45 22 q-49 23 -112 23q-80 -1 -125.5 -55.5t-44.5 -151.5z" />
<glyph unicode="e" horiz-adv-x="495" d="M54 238q0 115 57 181.5t155 66.5q83 0 129 -38t46 -105q0 -99 -127 -121l-214 -36q10 -74 53.5 -114.5t112.5 -40.5q59 0 99 13l24 8q8 2 11 -6l7 -23q3 -8 -5 -10l-25 -7q-52 -16 -111 -16q-99 0 -155.5 66.5t-56.5 181.5zM96 225l210 36q93 17 93 82q0 49 -35 75.5 t-98 26.5q-81 0 -125 -56t-45 -164z" />
<glyph unicode="f" horiz-adv-x="317" d="M58 444v24q0 8 8 8h45v99q0 63 32 100t87 37q26 0 48 -11l14 -6q7 -4 4 -10l-10 -22q-4 -7 -10 -4l-11 5q-17 7 -35 7q-36 0 -56.5 -26t-20.5 -70v-99h111q8 0 8 -8v-24q0 -8 -8 -8h-111v-428q0 -8 -8 -8h-26q-8 0 -8 8v428h-45q-8 0 -8 8z" />
<glyph unicode="g" horiz-adv-x="544" d="M54 238q0 117 57 182.5t159 65.5q64 0 125 -28l65 -29q6 -3 6 -10v-443q0 -93 -53.5 -144t-156.5 -51q-65 0 -117 16l-41 12q-8 2 -5 10l8 23q2 8 10 6l39 -12q47 -14 105 -14q165 0 170 152q1 60 3 107q1 7 -3 8.5t-8 -5.5q-58 -94 -164 -94q-92 0 -145.5 66.5 t-53.5 181.5zM96 239q0 -94 42 -151t118 -57q81 0 124 63t43 163v143l-45 22q-46 23 -110 23q-81 -1 -126.5 -54.5t-45.5 -151.5z" />
<glyph unicode="h" horiz-adv-x="556" d="M83 8v685q0 8 8 8h26q8 0 8 -8v-203q0 -57 -4 -94q-1 -7 3 -8.5t8 5.5q55 93 173 93q80 0 126 -53t46 -143v-282q0 -8 -8 -8h-25q-8 0 -8 8v280q0 74 -35.5 115.5t-97.5 41.5q-93 0 -135.5 -64t-42.5 -161v-212q0 -8 -8 -8h-26q-8 0 -8 8z" />
<glyph unicode="i" horiz-adv-x="236" d="M58 444v24q0 8 8 8h79q8 0 8 -8v-460q0 -8 -8 -8h-26q-8 0 -8 8v428h-45q-8 0 -8 8zM90 674q0 32 32 32q31 0 31 -32q0 -33 -31 -33q-32 0 -32 33z" />
<glyph unicode="j" horiz-adv-x="236" d="M41 -196q-5 7 1 11l32 24q37 27 37 85v512h-45q-8 0 -8 8v24q0 8 8 8h79q8 0 8 -8v-544q0 -75 -55 -117l-32 -25q-7 -5 -11 2zM90 674q0 32 32 32q31 0 31 -32q0 -33 -31 -33q-32 0 -32 33z" />
<glyph unicode="k" horiz-adv-x="486" d="M83 8v685q0 8 8 8h26q8 0 8 -8v-433h22q27 0 56.5 19t44 34.5t44.5 49.5l91 108q4 5 10 5h33q5 0 6.5 -3t-1.5 -7l-102 -121q-69 -84 -106 -98q-11 -5 0 -9q28 -9 51.5 -32.5t60.5 -68.5l103 -127q7 -10 -5 -10h-33q-6 0 -10 5l-94 116q-24 29 -32 38.5t-29 28.5t-41 26 t-45 7h-24v-213q0 -8 -8 -8h-26q-8 0 -8 8z" />
<glyph unicode="l" horiz-adv-x="238" d="M83 70v623q0 8 8 8h26q8 0 8 -8v-623q0 -39 29 -39q2 0 7.5 1t8 0t4.5 -4l10 -24q4 -8 -7 -11t-23 -3q-33 0 -52 21.5t-19 58.5z" />
<glyph unicode="m" horiz-adv-x="862" d="M83 8v460q0 8 8 8h24q8 0 8 -8v-70q0 -6 3.5 -6.5t7.5 5.5q30 45 67.5 67t93.5 22q104 0 142 -102q2 -6 7 -6t8 5q59 103 173 103q73 0 116 -53t43 -143v-282q0 -8 -8 -8h-26q-8 0 -8 8v280q0 74 -31 115.5t-87 41.5q-86 0 -128 -61t-42 -164v-212q0 -8 -8 -8h-25 q-8 0 -8 8v281q0 73 -32 114.5t-88 41.5q-85 0 -126.5 -61t-41.5 -164v-212q0 -8 -8 -8h-26q-8 0 -8 8z" />
<glyph unicode="n" horiz-adv-x="556" d="M83 8v460q0 8 8 8h24q8 0 8 -8v-71q0 -4 1.5 -6t4.5 -0.5t5 5.5q58 90 171 90q80 0 126 -53t46 -143v-282q0 -8 -8 -8h-25q-8 0 -8 8v280q0 73 -35.5 115t-97.5 42q-84 0 -131 -59t-47 -166v-212q0 -8 -8 -8h-26q-8 0 -8 8z" />
<glyph unicode="o" horiz-adv-x="531" d="M54 238q0 115 57 181.5t155 66.5t155 -66.5t57 -181.5q0 -114 -57 -181t-155 -67t-155 67t-57 181zM96 238q0 -97 45.5 -152t124.5 -55t124 55t45 152t-44.5 152t-124.5 55t-125 -55t-45 -152z" />
<glyph unicode="p" horiz-adv-x="548" d="M83 -202v670q0 8 8 8h24q8 0 8 -8v-70q0 -7 3.5 -8t7.5 6q58 90 160 90q94 0 147 -66t53 -182t-56 -182t-155 -66q-69 0 -126 27l-32 15v-234q0 -8 -8 -8h-26q-8 0 -8 8zM125 76l45 -22q47 -23 113 -23q79 0 124 55t45 152t-42 152t-118 55q-81 0 -124 -62.5t-43 -162.5 v-144z" />
<glyph unicode="q" horiz-adv-x="543" d="M54 238q0 116 56 182t156 66q68 0 129 -28l64 -29q6 -3 6 -10v-621q0 -8 -8 -8h-26q-8 0 -8 8v187q0 48 5 95q1 7 -3.5 8.5t-8.5 -5.5q-55 -93 -161 -93q-95 0 -148 66t-53 182zM96 238q0 -97 42 -152t118 -55q81 0 124 62t43 162v145l-45 22q-50 23 -112 23 q-80 0 -125 -55t-45 -152z" />
<glyph unicode="r" horiz-adv-x="362" d="M83 8v460q0 8 8 8h24q8 0 8 -8v-85q1 -5 4.5 -6t6.5 4q57 101 166 105q8 0 8 -8v-25q0 -8 -8 -8q-81 -4 -128 -73t-47 -189v-175q0 -8 -8 -8h-26q-8 0 -8 8z" />
<glyph unicode="s" horiz-adv-x="465" d="M57 33l10 22q3 7 10 4l20 -8q49 -20 136 -20q64 0 100 24.5t36 68.5q0 62 -76 84l-125 36q-102 28 -102 119q0 57 44 90t122 33q65 0 113 -15l37 -12q8 -2 5 -10l-8 -23q-2 -7 -10 -5l-35 11q-42 13 -101 13q-58 0 -91.5 -22t-33.5 -60q0 -60 75 -82l123 -36 q105 -28 105 -121q0 -63 -47 -98.5t-131 -35.5q-89 0 -151 25l-20 8q-8 3 -5 10z" />
<glyph unicode="t" horiz-adv-x="321" d="M58 444v24q0 8 8 8h45v123q0 8 7 9l26 9q9 4 9 -7v-134h111q8 0 8 -8v-24q0 -8 -8 -8h-111v-332q0 -73 60 -73q14 0 26 4q7 3 10 -4l9 -23q2 -5 -2.5 -9t-13 -5.5t-16 -2.5t-13.5 -1q-48 0 -75 29.5t-27 83.5v333h-45q-8 0 -8 8z" />
<glyph unicode="u" horiz-adv-x="556" d="M79 186v282q0 8 8 8h25q8 0 8 -8v-280q0 -73 35.5 -115t97.5 -42q84 0 131 59t47 166v212q0 8 8 8h26q8 0 8 -8v-460q0 -8 -8 -8h-24q-8 0 -8 8v71q0 4 -1.5 6t-4.5 0.5t-5 -5.5q-58 -90 -171 -90q-80 0 -126 53t-46 143z" />
<glyph unicode="v" horiz-adv-x="526" d="M43 467q-4 9 6 9h28q7 0 10 -6l134 -293q27 -65 36 -98q2 -5 6 -5t6 5q10 37 36 98l135 293q3 6 10 6h27q10 0 6 -9l-146 -316q-29 -65 -51 -144q-1 -7 -9 -7h-28q-8 0 -9 7q-18 71 -51 144z" />
<glyph unicode="w" horiz-adv-x="748" d="M47 467q-4 9 7 9h27q8 0 9 -7l94 -292q13 -45 27 -98q1 -6 5 -6t6 6q21 70 32 99l104 292q2 6 9 6h14q7 0 9 -6l105 -292q19 -58 30 -99q2 -6 6.5 -6t5.5 6q9 40 27 98l94 292q1 7 9 7h26q11 0 7 -9l-103 -319q-24 -70 -42 -141q-1 -7 -9 -7h-28q-8 0 -9 7 q-18 60 -44 134l-72 201q-8 21 -13 45q-1 6 -4 8t-5.5 -0.5t-3.5 -7.5q-3 -22 -12 -45l-73 -201q-36 -108 -43 -134q-1 -7 -9 -7h-29q-6 0 -9 7q-11 46 -41 141z" />
<glyph unicode="x" horiz-adv-x="509" d="M56 10l149 208l12 16q7 5 7 6v1q0 1 -6 7q-2 2 -12 16l-146 202q-7 10 5 10h32q6 0 10 -5l141 -198q6 -10 12 0l142 198q4 5 10 5h31q12 0 5 -10l-145 -202q-12 -16 -17 -19q-8 -6 0 -8q6 -2 17 -19l150 -208q7 -10 -5 -10h-32q-6 0 -10 5l-146 204q-6 9 -12 0l-146 -204 q-4 -5 -10 -5h-31q-12 0 -5 10z" />
<glyph unicode="y" horiz-adv-x="534" d="M43 467q-4 9 6 9h28q7 0 10 -6l138 -301q28 -62 35 -92q2 -6 6 -6t6 6q11 36 39 92l136 301q3 6 10 6h28q10 0 6 -9l-305 -671q-3 -6 -10 -6h-27q-10 0 -6 9l78 172q25 53 -12 137z" />
<glyph unicode="z" horiz-adv-x="462" d="M55 21q24 29 43 58l218 319q19 25 25 30q4 4 2.5 7.5t-6.5 2.5q-34 -2 -44 -2h-222q-8 0 -8 8v24q0 8 8 8h327q7 0 11 -7.5t-1 -13.5q-21 -22 -40 -51l-222 -326q-2 -4 -24 -30q-4 -5 -2.5 -8t7.5 -2q32 2 43 2h227q9 0 7 -9l-7 -24q-1 -7 -9 -7h-322q-7 0 -11.5 8 t0.5 13z" />
<glyph unicode="{" horiz-adv-x="330" d="M66 308v24q0 8 8 8h4q22 0 36.5 15.5t14.5 42.5v235q0 51 31 80.5t88 31.5q8 0 8 -8v-23q0 -8 -8 -8q-37 -2 -57.5 -21t-20.5 -52v-235q0 -54 -29 -70q-9 -5 -9 -7.5t9 -7.5q29 -18 29 -72v-233q0 -33 20.5 -52.5t57.5 -21.5q8 0 8 -8v-23q0 -8 -8 -8q-57 2 -88 31.5 t-31 81.5v233q0 28 -14.5 43.5t-36.5 15.5h-4q-8 0 -8 8z" />
<glyph unicode="|" horiz-adv-x="267" d="M113 -202v932q0 8 8 8h25q8 0 8 -8v-932q0 -8 -8 -8h-25q-8 0 -8 8z" />
<glyph unicode="}" horiz-adv-x="330" d="M74 -74q0 8 8 8q37 2 57.5 21.5t20.5 52.5v233q0 54 29 72q9 5 9 7.5t-9 7.5q-29 16 -29 70v235q0 33 -20.5 52t-57.5 21q-8 0 -8 8v23q0 8 8 8q57 -2 88 -31.5t31 -80.5v-235q0 -27 14.5 -42.5t36.5 -15.5h4q8 0 8 -8v-24q0 -8 -8 -8h-4q-22 0 -36.5 -15.5t-14.5 -43.5 v-233q0 -52 -31 -81.5t-88 -31.5q-8 0 -8 8v23z" />
<glyph unicode="~" horiz-adv-x="502" d="M62 295l27 44q31 52 89 52q35 0 67 -25l38 -28q21 -15 42 -15q35 0 54 31l18 30q3 5 9 5h29q12 0 5 -10l-27 -45q-31 -51 -88 -51q-35 0 -66 24l-39 29q-20 14 -42 14q-36 0 -55 -30l-18 -30q-3 -5 -9 -5h-29q-10 0 -5 10z" />
<glyph unicode="&#xa2;" horiz-adv-x="464" d="M54 446q0 107 48 171.5t139 74.5v80q0 8 8 8h25q8 0 8 -8v-78q37 -1 88 -16l25 -7q8 -2 5 -10l-7 -22q-3 -8 -11 -6l-24 8q-36 10 -76 12v-414q42 2 82 14l26 8q7 2 10 -5l7 -22q3 -8 -5 -10l-26 -8q-58 -17 -94 -18v-79q0 -8 -8 -8h-25q-8 0 -8 8v81q-91 10 -139 75 t-48 171zM96 446q0 -88 37 -141.5t108 -63.5v410q-72 -10 -108.5 -63.5t-36.5 -141.5z" />
<glyph unicode="&#xa3;" horiz-adv-x="561" d="M34 315v24q0 8 8 8h91v156q0 89 50.5 139.5t139.5 50.5q48 0 90 -13l30 -9q8 -2 5 -10l-8 -23q-2 -8 -10 -6l-29 9q-44 11 -78 11q-69 0 -108 -39.5t-39 -109.5v-156h184q8 0 8 -8v-24q0 -8 -8 -8h-184v-88q0 -89 -50 -168q-4 -7 -1.5 -12t10.5 -3q19 4 57 4h313 q8 0 8 -8v-24q0 -8 -8 -8h-426q-6 0 -9 6l-5 9q-3 6 0 11l22 35q46 70 46 157v89h-91q-8 0 -8 8z" />
<glyph unicode="&#xa5;" horiz-adv-x="652" d="M50 673q-5 10 6 10h32q6 0 9 -5l167 -252q35 -55 56 -104q2 -5 6 -5t6 5q24 56 56 104l167 252q3 5 9 5h32q11 0 6 -10l-183 -274q-38 -58 -49 -83h137q8 0 8 -8v-23q0 -8 -8 -8h-151q-9 -31 -9 -72v-3h160q8 0 8 -8v-23q0 -8 -8 -8h-160v-155q0 -8 -8 -8h-27q-8 0 -8 8 v155h-160q-8 0 -8 8v23q0 8 8 8h160v3q0 41 -9 72h-151q-8 0 -8 8v23q0 8 8 8h137q-11 25 -48 83z" />
<glyph unicode="&#xa8;" horiz-adv-x="291" d="M45 674q0 32 31 32t31 -32t-31 -32t-31 32zM186 674q0 32 31 32t31 -32t-31 -32t-31 32z" />
<glyph unicode="&#xa9;" horiz-adv-x="789" d="M51 342q0 157 94.5 254t248.5 97t248.5 -97t94.5 -254q0 -158 -94.5 -255t-248.5 -97t-248.5 97t-94.5 255zM90 342q0 -141 83.5 -227.5t220.5 -86.5t220.5 86.5t83.5 227.5t-83.5 227t-220.5 86t-220.5 -86t-83.5 -227zM227 343q0 89 45 141.5t123 52.5q43 0 84 -14 l21 -7q8 -3 5 -11l-7 -20q-3 -8 -11 -5l-20 7q-39 12 -72 12q-60 0 -95 -41.5t-35 -114.5q0 -75 35 -116.5t95 -41.5q38 0 71 12l21 7q8 3 11 -5l7 -21q3 -8 -5 -10l-22 -7q-41 -13 -83 -13q-78 0 -123 52.5t-45 142.5z" />
<glyph unicode="&#xab;" horiz-adv-x="504" d="M84 234v7q0 6 4 10l130 156q4 5 10 5h32q5 0 6.5 -3t-1.5 -7l-135 -164l135 -164q3 -4 1.5 -7t-6.5 -3h-32q-6 0 -10 5l-130 155q-4 4 -4 10zM231 234v7q0 6 4 10l130 156q4 5 10 5h32q5 0 6.5 -3t-1.5 -7l-135 -164l135 -164q3 -4 1.5 -7t-6.5 -3h-32q-6 0 -10 5 l-130 155q-4 4 -4 10z" />
<glyph unicode="&#xad;" horiz-adv-x="442" d="M85 251v24q0 8 8 8h256q8 0 8 -8v-24q0 -8 -8 -8h-256q-8 0 -8 8z" />
<glyph unicode="&#xae;" horiz-adv-x="789" d="M51 342q0 157 94.5 254t248.5 97t248.5 -97t94.5 -254q0 -158 -94.5 -255t-248.5 -97t-248.5 97t-94.5 255zM90 342q0 -141 83.5 -227.5t220.5 -86.5t220.5 86.5t83.5 227.5t-83.5 227t-220.5 86t-220.5 -86t-83.5 -227zM273 171v343q0 8 8 8h139q53 0 84 -27t31 -74 q0 -36 -24 -61.5t-64 -35.5q-3 -2 4 -6q40 -21 54 -61l39 -85q4 -9 -6 -9h-20q-7 0 -10 6l-33 78q-29 62 -105 62h-59v-138q0 -8 -8 -8h-22q-8 0 -8 8zM311 346h75q111 0 111 74q0 64 -77 64h-109v-138z" />
<glyph unicode="&#xb4;" horiz-adv-x="238" d="M55 592l80 104q4 5 10 5h32q5 0 6.5 -3t-1.5 -7l-87 -104q-4 -5 -10 -5h-25q-12 0 -5 10z" />
<glyph unicode="&#xb8;" horiz-adv-x="259" d="M52 -196l7 20q3 7 10 5l15 -5q16 -5 32 -5q26 0 40.5 12t14.5 34q0 43 -57 43h-30q-6 0 -11.5 6t-3.5 13l24 68q1 6 9 6h22q11 0 7 -9l-19 -49h7q42 0 66.5 -21t24.5 -58q0 -39 -25 -61.5t-69 -22.5q-20 0 -43 8l-16 5q-8 3 -5 11z" />
<glyph unicode="&#xbb;" horiz-adv-x="504" d="M92 74l135 164l-135 164q-7 10 5 10h32q6 0 10 -5l130 -156q4 -4 4 -10v-7q0 -6 -4 -10l-130 -155q-4 -5 -10 -5h-32q-12 0 -5 10zM239 74l135 164l-135 164q-7 10 5 10h32q6 0 10 -5l130 -156q4 -4 4 -10v-7q0 -6 -4 -10l-130 -155q-4 -5 -10 -5h-32q-12 0 -5 10z" />
<glyph unicode="&#x2c6;" horiz-adv-x="334" d="M56 592l89 104q4 5 10 5h24q6 0 10 -5l89 -104q3 -4 1.5 -7t-6.5 -3h-23q-6 0 -10 4l-73 77l-72 -77q-4 -4 -10 -4h-24q-5 0 -6.5 3t1.5 7z" />
<glyph unicode="&#x2da;" horiz-adv-x="238" d="M45 642q0 32 19 50t55 18t56 -18t20 -50t-20 -49.5t-56 -17.5q-74 0 -74 67zM81 642q0 -34 38 -34q40 0 40 34t-40 34q-38 0 -38 -34z" />
<glyph unicode="&#x2dc;" horiz-adv-x="379" d="M52 632l17 35q19 38 58 38q17 0 43 -14l54 -28q20 -9 28 -9q19 0 29 21l12 20q3 6 9 6h19q11 0 6 -10l-17 -32q-17 -38 -58 -38q-20 0 -44 14l-52 26q-18 10 -29 10q-18 0 -29 -20l-11 -22q-3 -6 -10 -6h-19q-10 0 -6 9z" />
<glyph unicode="&#x400;" horiz-adv-x="597" d="M93 8v667q0 8 8 8h427q9 0 6 -9l-6 -23q-1 -7 -9 -7h-383v-273h327q8 0 8 -8v-24q0 -8 -8 -8h-327v-291h398q8 0 8 -8v-24q0 -8 -8 -8h-433q-8 0 -8 8zM208 852q-4 4 -3 7t7 3h41q6 0 10 -4l81 -84q3 -4 1.5 -7t-6.5 -3h-27q-6 0 -10 4z" />
<glyph unicode="&#x401;" horiz-adv-x="597" d="M93 8v667q0 8 8 8h427q9 0 6 -9l-6 -23q-1 -7 -9 -7h-383v-273h327q8 0 8 -8v-24q0 -8 -8 -8h-327v-291h398q8 0 8 -8v-24q0 -8 -8 -8h-433q-8 0 -8 8zM222 812q0 30 30 30q14 0 22.5 -8.5t8.5 -21.5q0 -14 -8.5 -22.5t-22.5 -8.5q-30 0 -30 31zM351 812q0 30 30 30 q14 0 22.5 -8.5t8.5 -21.5q0 -14 -8.5 -22.5t-22.5 -8.5q-30 0 -30 31z" />
<glyph unicode="&#x402;" horiz-adv-x="738" d="M20 652v23q0 8 8 8h515q8 0 8 -8v-23q0 -8 -8 -8h-263v-269l71 25q63 22 135 22q92 0 142.5 -55t50.5 -153q0 -106 -55 -165t-154 -59q-41 0 -91 14l-15 4q-8 2 -6 10l8 23q2 8 10 6l15 -5q37 -10 78 -10q79 0 123 48t44 134q0 78 -40 122t-110 44t-123 -19l-83 -29v-324 q0 -8 -8 -8h-27q-8 0 -8 8v636h-209q-8 0 -8 8z" />
<glyph unicode="&#x403;" horiz-adv-x="563" d="M93 8v667q0 8 8 8h403q9 0 6 -9l-6 -23q-1 -7 -9 -7h-359v-636q0 -8 -8 -8h-27q-8 0 -8 8zM253 774l81 84q4 4 10 4h41q6 0 7.5 -3t-3.5 -7l-94 -84q-4 -4 -10 -4h-27q-5 0 -6.5 3t1.5 7z" />
<glyph unicode="&#x404;" horiz-adv-x="596" d="M59 342q0 163 75.5 257t207.5 94q75 0 141 -25l41 -15q8 -3 5 -11l-9 -23q-4 -7 -10 -4l-42 15q-53 21 -126 22q-108 0 -170 -74t-68 -207h334q8 0 8 -8v-24q0 -8 -8 -8h-335q2 -141 65 -220t174 -79q67 0 129 23l39 14q8 3 11 -4l8 -23q3 -8 -4 -11l-40 -14 q-72 -27 -143 -27q-132 0 -207.5 94.5t-75.5 257.5z" />
<glyph unicode="&#x405;" horiz-adv-x="589" d="M67 47l8 24q3 8 11 5l32 -13q82 -31 172 -31q81 0 136 38t55 103q0 82 -112 125l-154 57q-74 28 -106.5 69.5t-32.5 101.5q0 78 56.5 122.5t151.5 44.5q70 0 148 -24l47 -15q8 -2 5 -10l-8 -23q-2 -8 -10 -5l-45 15q-68 21 -137 21q-74 0 -119 -34t-45 -92 q0 -42 23.5 -75.5t88.5 -57.5l151 -57q68 -26 105 -64t37 -99q0 -84 -66.5 -133.5t-168.5 -49.5q-97 0 -186 35l-33 12q-7 4 -4 10z" />
<glyph unicode="&#x406;" horiz-adv-x="229" d="M93 8v667q0 8 8 8h27q8 0 8 -8v-667q0 -8 -8 -8h-27q-8 0 -8 8z" />
<glyph unicode="&#x407;" horiz-adv-x="229" d="M20 812q0 30 30 30q14 0 22.5 -8.5t8.5 -21.5q0 -14 -8.5 -22.5t-22.5 -8.5q-30 0 -30 31zM93 8v667q0 8 8 8h27q8 0 8 -8v-667q0 -8 -8 -8h-27q-8 0 -8 8zM149 812q0 30 30 30q14 0 22.5 -8.5t8.5 -21.5q0 -14 -8.5 -22.5t-22.5 -8.5q-30 0 -30 31z" />
<glyph unicode="&#x408;" horiz-adv-x="412" d="M51 20l8 23q2 7 10 5l25 -8q27 -8 63 -8q54 0 84.5 36.5t30.5 103.5v503q0 8 8 8h27q8 0 8 -8v-503q0 -84 -42.5 -133t-115.5 -49q-41 0 -73 11l-27 9q-8 2 -6 10z" />
<glyph unicode="&#x409;" horiz-adv-x="1035" d="M22 19q-3 8 5 11l37 12q78 26 78 130v503q0 8 8 8h413q8 0 8 -8v-296h146q124 0 193.5 -52.5t69.5 -144.5q0 -86 -55.5 -134t-155.5 -48h-233q-8 0 -8 8v636h-343v-472q0 -132 -109 -167l-37 -13q-8 -3 -10 5zM571 40h198q79 0 123.5 37.5t44.5 104.5q0 74 -58 115.5 t-162 41.5h-146v-299z" />
<glyph unicode="&#x40a;" horiz-adv-x="1007" d="M93 8v667q0 8 8 8h27q8 0 8 -8v-296h364v296q0 8 8 8h27q8 0 8 -8v-296h147q123 0 192.5 -52.5t69.5 -144.5q0 -86 -55.5 -134t-155.5 -48h-233q-8 0 -8 8v331h-364v-331q0 -8 -8 -8h-27q-8 0 -8 8zM543 40h198q79 0 123.5 37.5t44.5 104.5q0 74 -58 115.5t-161 41.5 h-147v-299z" />
<glyph unicode="&#x40b;" horiz-adv-x="757" d="M20 652v23q0 8 8 8h515q8 0 8 -8v-23q0 -8 -8 -8h-263v-270l70 25q65 22 136 22q91 0 141.5 -57.5t50.5 -160.5v-195q0 -8 -8 -8h-26q-8 0 -8 8v194q0 83 -40.5 130.5t-110.5 47.5q-69 0 -122 -19l-83 -30v-323q0 -8 -8 -8h-27q-8 0 -8 8v636h-209q-8 0 -8 8z" />
<glyph unicode="&#x40c;" horiz-adv-x="617" d="M93 8v667q0 8 8 8h27q8 0 8 -8v-304h24q113 0 228 150l121 157q4 5 10 5h33q12 0 5 -10l-135 -176q-34 -46 -81 -85t-81 -54q-15 -6 0 -12q83 -31 171 -150l139 -186q7 -10 -5 -10h-34q-6 0 -10 5l-124 168q-116 158 -235 158h-26v-323q0 -8 -8 -8h-27q-8 0 -8 8z M282 774l81 84q4 4 10 4h41q4 0 6 -1.5t1.5 -4t-3.5 -4.5l-94 -84q-4 -4 -10 -4h-27q-5 0 -6.5 3t1.5 7z" />
<glyph unicode="&#x40e;" horiz-adv-x="644" d="M44 674q-5 9 6 9h29q6 0 9 -6l194 -375q34 -67 42 -104q2 -5 6 -5t6 5q22 56 45 104l185 375q3 6 10 6h28q11 0 6 -9l-247 -502q-2 -4 -11.5 -24.5t-13 -27t-13.5 -25t-16.5 -26t-18 -21.5t-22 -20t-25 -14t-30.5 -11t-35 -3h-35q-8 0 -8 8v24q0 8 8 8h35q50 0 81.5 34.5 t31.5 74.5q0 25 -7.5 49t-32.5 73zM217 877v24q0 8 8 8h23q8 0 8 -8v-24q0 -29 18.5 -45t52.5 -16t52.5 16t18.5 45v24q0 8 8 8h23q8 0 8 -8v-24q0 -45 -29 -70.5t-81 -25.5t-81 25.5t-29 70.5z" />
<glyph unicode="&#x40f;" horiz-adv-x="675" d="M93 9v667q0 8 8 8h27q8 0 8 -8v-636h403v636q0 8 8 8h27q8 0 8 -8v-667q0 -8 -8 -8h-216v-178q0 -8 -8 -8h-26q-8 0 -8 8v178h-215q-8 0 -8 8z" />
<glyph unicode="&#x410;" d="M48 9l221 526q30 71 49 141q1 7 9 7h28q8 0 9 -7q15 -55 49 -141l222 -526q4 -9 -6 -9h-29q-7 0 -10 6l-78 189h-341l-78 -189q-3 -6 -10 -6h-29q-10 0 -6 9zM188 236h306l-112 266q-24 57 -35 108q-1 3 -3.5 4.5t-5 0t-2.5 -4.5q-14 -55 -36 -108z" />
<glyph unicode="&#x411;" horiz-adv-x="638" d="M93 8v667q0 8 8 8h423q9 0 6 -9l-6 -23q-1 -7 -9 -7h-379v-257h202q114 0 177.5 -51t63.5 -142t-54 -142.5t-150 -51.5h-274q-8 0 -8 8zM136 40h239q76 0 118.5 40.5t42.5 113.5t-52 113t-145 40h-203v-307z" />
<glyph unicode="&#x412;" horiz-adv-x="643" d="M93 8v667q0 8 8 8h265q92 0 143.5 -43t51.5 -119q0 -57 -28.5 -100t-82.5 -62q-9 -2 -9 -6.5t10 -6.5q64 -16 98.5 -60t34.5 -111q0 -83 -54 -129t-151 -46h-278q-8 0 -8 8zM136 40h243q75 0 118 36t43 100q0 76 -57.5 115.5t-166.5 39.5h-180v-291zM136 371h178 q97 0 150 40t53 109q0 57 -40.5 90.5t-110.5 33.5h-230v-273z" />
<glyph unicode="&#x413;" horiz-adv-x="563" d="M93 8v667q0 8 8 8h403q9 0 6 -9l-6 -23q-1 -7 -9 -7h-359v-636q0 -8 -8 -8h-27q-8 0 -8 8z" />
<glyph unicode="&#x414;" horiz-adv-x="722" d="M44 32q0 8 8 8h41l41 90q36 81 36 194v351q0 8 8 8h419q8 0 8 -8v-635h50q8 0 8 -8v-209q0 -8 -8 -8h-26q-8 0 -8 8v177h-535v-177q0 -8 -8 -8h-26q-8 0 -8 8v209zM139 40h424v604h-350v-320q0 -121 -40 -210z" />
<glyph unicode="&#x415;" horiz-adv-x="597" d="M93 8v667q0 8 8 8h427q9 0 6 -9l-6 -23q-1 -7 -9 -7h-383v-273h327q8 0 8 -8v-24q0 -8 -8 -8h-327v-291h398q8 0 8 -8v-24q0 -8 -8 -8h-433q-8 0 -8 8z" />
<glyph unicode="&#x416;" horiz-adv-x="912" d="M60 10l125 187q84 121 151 149q14 6 0 12q-31 15 -71 53t-72 84l-121 178q-7 10 5 10h31q6 0 9 -5l108 -157q103 -150 188 -150h22v304q0 8 8 8h26q8 0 8 -8v-304h22q86 0 189 150l108 157q3 5 9 5h31q12 0 5 -10l-121 -178q-32 -45 -72.5 -83.5t-71.5 -53.5 q-12 -6 0 -12q69 -28 151 -149l125 -187q5 -10 -6 -10h-31q-6 0 -9 5l-112 168q-47 71 -93.5 114.5t-100.5 43.5h-23v-323q0 -8 -8 -8h-26q-8 0 -8 8v323h-23q-91 0 -193 -158l-112 -168q-3 -5 -9 -5h-32q-11 0 -6 10z" />
<glyph unicode="&#x417;" horiz-adv-x="600" d="M67 37l8 24q2 7 10 5l52 -15q68 -20 152 -20q92 0 147.5 39.5t55.5 107.5q0 73 -60 113t-149 40h-88q-8 0 -8 8v24q0 8 8 8h88q82 0 134.5 41t52.5 101q0 62 -49 101t-128 39q-91 0 -155 -19l-46 -15q-8 -2 -10 6l-7 24q-2 8 6 10l44 13q73 21 167 21q100 0 161 -49.5 t61 -129.5q0 -50 -31 -91.5t-86 -63.5q-17 -7 1 -12q64 -20 100.5 -66t36.5 -104q0 -86 -67 -136.5t-179 -50.5q-89 0 -164 21l-53 16q-8 2 -5 10z" />
<glyph unicode="&#x418;" horiz-adv-x="696" d="M93 8v667q0 8 8 8h28q8 0 8 -8v-523q0 -41 -6 -73q-1 -7 4 -8t7 4q9 22 31 55l321 450q38 57 58 97q3 6 10 6h33q8 0 8 -8v-667q0 -8 -8 -8h-27q-8 0 -8 8v522q0 48 5 73q1 4 -1 6.5t-5 2t-4 -4.5q-9 -23 -32 -56l-321 -450q-35 -47 -57 -95q-3 -6 -10 -6h-34q-8 0 -8 8z " />
<glyph unicode="&#x419;" horiz-adv-x="696" d="M93 8v667q0 8 8 8h28q8 0 8 -8v-523q0 -41 -6 -73q-1 -7 4 -8t7 4q9 22 31 55l321 450q38 57 58 97q3 6 10 6h33q8 0 8 -8v-667q0 -8 -8 -8h-27q-8 0 -8 8v522q0 48 5 73q1 4 -1 6.5t-5 2t-4 -4.5q-9 -23 -32 -56l-321 -450q-35 -47 -57 -95q-3 -6 -10 -6h-34q-8 0 -8 8z M242 841v13q0 8 8 8h23q8 0 8 -8v-12q0 -51 72 -51t72 51v12q0 8 8 8h22q8 0 8 -8v-13q0 -88 -110 -88q-111 0 -111 88z" />
<glyph unicode="&#x41a;" horiz-adv-x="617" d="M93 8v667q0 8 8 8h27q8 0 8 -8v-304h24q113 0 228 150l121 157q4 5 10 5h33q12 0 5 -10l-135 -176q-34 -46 -81 -85t-81 -54q-15 -6 0 -12q83 -31 171 -150l139 -186q7 -10 -5 -10h-34q-6 0 -10 5l-124 168q-116 158 -235 158h-26v-323q0 -8 -8 -8h-27q-8 0 -8 8z" />
<glyph unicode="&#x41b;" horiz-adv-x="695" d="M23 13q-3 8 3 11l36 24q104 70 104 294v333q0 8 8 8h419q8 0 8 -8v-667q0 -8 -8 -8h-27q-8 0 -8 8v636h-349v-302q0 -242 -126 -327l-35 -24q-8 -5 -11 2z" />
<glyph unicode="&#x41c;" horiz-adv-x="792" d="M93 8v667q0 8 8 8h49q8 0 9 -7q9 -32 33 -82l172 -372q14 -29 25 -64q1 -5 4 -6.5t6 0t4 6.5q10 33 25 63l172 372q23 49 33 83q1 7 9 7h49q8 0 8 -8v-667q0 -8 -8 -8h-27q-8 0 -8 8v493q0 61 4 102q0 6 -2 9t-5 1.5t-5 -7.5q-12 -33 -34 -80l-155 -332q-15 -33 -40 -98 q-1 -6 -9 -6h-28q-8 0 -9 6q-27 70 -40 99l-155 330q-20 47 -34 81q-3 10 -8.5 8t-3.5 -11q4 -41 4 -102v-493q0 -8 -8 -8h-27q-8 0 -8 8z" />
<glyph unicode="&#x41d;" horiz-adv-x="684" d="M93 8v667q0 8 8 8h27q8 0 8 -8v-304h412v304q0 8 8 8h26q8 0 8 -8v-667q0 -8 -8 -8h-26q-8 0 -8 8v323h-412v-323q0 -8 -8 -8h-27q-8 0 -8 8z" />
<glyph unicode="&#x41e;" d="M59 342q0 162 75.5 256.5t206.5 94.5q132 0 207 -94t75 -257q0 -164 -75 -258t-207 -94q-131 0 -206.5 94t-75.5 258zM103 342q0 -147 62.5 -228.5t175.5 -81.5t176 82t63 228t-63 228t-176 82t-175.5 -82t-62.5 -228z" />
<glyph unicode="&#x41f;" horiz-adv-x="675" d="M93 8v667q0 8 8 8h473q8 0 8 -8v-667q0 -8 -8 -8h-27q-8 0 -8 8v636h-403v-636q0 -8 -8 -8h-27q-8 0 -8 8z" />
<glyph unicode="&#x420;" horiz-adv-x="613" d="M93 8v667q0 8 8 8h236q105 0 163 -52.5t58 -147.5q0 -208 -283 -208h-139v-267q0 -8 -8 -8h-27q-8 0 -8 8zM136 315h139q240 0 240 168q0 76 -47.5 118.5t-130.5 42.5h-201v-329z" />
<glyph unicode="&#x421;" horiz-adv-x="596" d="M59 342q0 163 75.5 257t207.5 94q75 0 141 -25l41 -15q8 -3 5 -11l-9 -23q-4 -7 -10 -4l-42 15q-53 21 -126 22q-114 0 -176.5 -81.5t-62.5 -228.5q0 -146 62.5 -228t176.5 -82q67 0 129 23l39 14q8 3 11 -4l8 -23q3 -8 -4 -11l-40 -14q-72 -27 -143 -27 q-132 0 -207.5 94.5t-75.5 257.5z" />
<glyph unicode="&#x422;" horiz-adv-x="618" d="M44 652v23q0 8 8 8h513q8 0 8 -8v-23q0 -8 -8 -8h-235v-636q0 -8 -8 -8h-26q-8 0 -8 8v636h-236q-8 0 -8 8z" />
<glyph unicode="&#x423;" horiz-adv-x="644" d="M44 674q-5 9 6 9h29q6 0 9 -6l194 -375q34 -67 42 -104q2 -5 6 -5t6 5q22 56 45 104l185 375q3 6 10 6h28q11 0 6 -9l-247 -502q-2 -4 -11.5 -24.5t-13 -27t-13.5 -25t-16.5 -26t-18 -21.5t-22 -20t-25 -14t-30.5 -11t-35 -3h-35q-8 0 -8 8v24q0 8 8 8h35q50 0 81.5 34.5 t31.5 74.5q0 25 -7.5 49t-32.5 73z" />
<glyph unicode="&#x424;" horiz-adv-x="824" d="M54 346q0 116 66 181t184 65h87v83q0 8 8 8h26q8 0 8 -8v-83h87q118 0 184 -65t66 -181t-66 -182t-184 -66h-87v-90q0 -8 -8 -8h-26q-8 0 -8 8v90h-87q-118 0 -184 66t-66 182zM98 346q0 -98 54.5 -153t151.5 -55h87v414h-87q-97 0 -151.5 -54.5t-54.5 -151.5zM433 138 h87q97 0 151.5 55t54.5 153t-54 152t-152 54h-87v-414z" />
<glyph unicode="&#x425;" horiz-adv-x="646" d="M66 10l203 303q9 17 19 25q6 4 7 7q0 4 -3 7q-10 4 -23 28l-197 293q-7 10 5 10h32q6 0 9 -5l197 -294q8 -13 16 0l197 294q3 5 9 5h32q11 0 6 -10l-197 -293q-16 -24 -23 -28q-8 -6 4 -14q8 -5 19 -25l203 -303q5 -10 -6 -10h-32q-6 0 -9 5l-203 305q-7 12 -16 0 l-203 -305q-3 -5 -9 -5h-32q-12 0 -5 10z" />
<glyph unicode="&#x426;" horiz-adv-x="699" d="M93 8v667q0 8 8 8h27q8 0 8 -8v-636h403v636q0 8 8 8h27q8 0 8 -8v-635h50q8 0 8 -8v-209q0 -8 -8 -8h-26q-8 0 -8 8v177h-497q-8 0 -8 8z" />
<glyph unicode="&#x427;" horiz-adv-x="636" d="M69 467v208q0 8 8 8h27q8 0 8 -8v-206q0 -84 43.5 -130.5t121.5 -46.5q74 0 131 19l92 29v335q0 8 8 8h26q8 0 8 -8v-667q0 -8 -8 -8h-26q-8 0 -8 8v289l-77 -25q-67 -22 -146 -22q-98 0 -153 57.5t-55 159.5z" />
<glyph unicode="&#x428;" horiz-adv-x="946" d="M93 8v667q0 8 8 8h27q8 0 8 -8v-635h316v635q0 8 8 8h26q8 0 8 -8v-635h316v635q0 8 8 8h26q8 0 8 -8v-667q0 -8 -8 -8h-743q-8 0 -8 8z" />
<glyph unicode="&#x429;" horiz-adv-x="970" d="M93 8v667q0 8 8 8h27q8 0 8 -8v-635h316v635q0 8 8 8h26q8 0 8 -8v-635h316v635q0 8 8 8h26q8 0 8 -8v-635h51q8 0 8 -8v-209q0 -8 -8 -8h-26q-8 0 -8 8v177h-768q-8 0 -8 8z" />
<glyph unicode="&#x42a;" horiz-adv-x="752" d="M20 652v23q0 8 8 8h239q8 0 8 -8v-267h139q283 0 283 -208q0 -95 -58 -147.5t-163 -52.5h-236q-8 0 -8 8v636h-204q-8 0 -8 8zM275 39h201q83 0 130.5 42.5t47.5 118.5q0 168 -240 168h-139v-329z" />
<glyph unicode="&#x42b;" horiz-adv-x="808" d="M93 8v667q0 8 8 8h27q8 0 8 -8v-267h139q283 0 283 -208q0 -95 -58 -147.5t-163 -52.5h-236q-8 0 -8 8zM136 39h201q83 0 130.5 42.5t47.5 118.5q0 168 -240 168h-139v-329zM671 8v667q0 8 8 8h27q8 0 8 -8v-667q0 -8 -8 -8h-27q-8 0 -8 8z" />
<glyph unicode="&#x42c;" horiz-adv-x="613" d="M93 8v667q0 8 8 8h27q8 0 8 -8v-267h139q283 0 283 -208q0 -95 -58 -147.5t-163 -52.5h-236q-8 0 -8 8zM136 39h201q83 0 130.5 42.5t47.5 118.5q0 168 -240 168h-139v-329z" />
<glyph unicode="&#x42d;" horiz-adv-x="596" d="M67 42l8 23q3 7 11 4l39 -14q62 -23 129 -23q111 0 174 79t65 220h-335q-8 0 -8 8v24q0 8 8 8h334q-6 133 -68 207t-170 74q-73 -1 -126 -22l-42 -15q-6 -3 -10 4l-9 23q-3 8 5 11l41 15q66 25 141 25q132 0 207.5 -94t75.5 -257t-75.5 -257.5t-207.5 -94.5 q-71 0 -143 27l-39 14q-8 3 -5 11z" />
<glyph unicode="&#x42e;" horiz-adv-x="903" d="M93 8v667q0 8 8 8h27q8 0 8 -8v-304h144q7 150 81.5 236t199.5 86q132 0 207 -94t75 -257q0 -164 -75 -258t-207 -94q-129 0 -204 91t-78 250h-143v-323q0 -8 -8 -8h-27q-8 0 -8 8zM323 342q0 -147 62.5 -228.5t175.5 -81.5t176 82t63 228t-63 228t-176 82t-175.5 -82 t-62.5 -228z" />
<glyph unicode="&#x42f;" horiz-adv-x="650" d="M63 9l73 173q41 94 107 125q19 9 -1 16q-154 47 -154 181q0 85 53.5 132t148.5 47h259q8 0 8 -8v-667q0 -8 -8 -8h-27q-8 0 -8 8v296h-136q-146 0 -203 -137l-68 -161q-3 -6 -10 -6h-28q-10 0 -6 9zM132 504q0 -76 60.5 -118t168.5 -42h153v300h-224q-74 0 -116 -37 t-42 -103z" />
<glyph unicode="&#x430;" horiz-adv-x="501" d="M49 131q0 65 44.5 103.5t127.5 39.5h164v17q0 73 -38 113.5t-107 40.5q-51 0 -96 -12l-35 -12q-8 -2 -10 6l-8 23q-2 8 6 10l37 11q45 15 107 15q86 0 136.5 -52.5t50.5 -142.5v-283q0 -8 -8 -8h-23q-8 0 -8 8v53q-1 9 -6 9t-11 -9q-54 -71 -169 -71q-72 0 -113 37.5 t-41 103.5zM91 132q0 -48 29.5 -75t83.5 -27q85 0 133 49.5t48 137.5v17h-164q-65 0 -97.5 -27.5t-32.5 -74.5z" />
<glyph unicode="&#x431;" horiz-adv-x="546" d="M69 228v174q0 96 43.5 156.5t135.5 91.5l169 59q8 3 11 -5l7 -22q2 -8 -5 -11l-169 -58q-150 -52 -151 -207q-1 -11 5 -14.5t14 4.5q62 70 153 70q97 0 154 -64.5t57 -173.5t-57 -173.5t-155 -64.5q-99 0 -155.5 63.5t-56.5 174.5zM111 228q0 -93 45 -145t125 -52 t124.5 52t44.5 145q0 94 -44.5 146t-124.5 52t-125 -52.5t-45 -145.5z" />
<glyph unicode="&#x432;" horiz-adv-x="505" d="M83 8v460q0 8 8 8h194q70 0 109.5 -32.5t39.5 -88.5q0 -79 -73 -107q-6 -2 -6 -5.5t6 -5.5q39 -9 64.5 -39t25.5 -73q0 -59 -41 -92t-115 -33h-204q-8 0 -8 8zM125 40h170q54 0 84 22.5t30 63.5q0 45 -41 70t-116 25h-127v-181zM125 260h126q68 0 104.5 24.5t36.5 68.5 q0 39 -28 61t-77 22h-162v-176z" />
<glyph unicode="&#x433;" horiz-adv-x="431" d="M83 8v460q0 8 8 8h288q9 0 6 -9l-7 -24q-1 -7 -9 -7h-244v-428q0 -8 -8 -8h-26q-8 0 -8 8z" />
<glyph unicode="&#x434;" horiz-adv-x="565" d="M34 32q0 8 8 8h36l27 63q26 61 26 120v245q0 8 8 8h321q8 0 8 -8v-428h40q8 0 8 -8v-175q0 -8 -8 -8h-25q-8 0 -8 8v143h-400v-143q0 -8 -8 -8h-25q-8 0 -8 8v175zM122 40h304v396h-254v-213q0 -66 -29 -133z" />
<glyph unicode="&#x435;" horiz-adv-x="495" d="M54 238q0 115 57 181.5t155 66.5q83 0 129 -38t46 -105q0 -99 -127 -121l-214 -36q10 -74 53.5 -114.5t112.5 -40.5q59 0 99 13l24 8q8 2 11 -6l7 -23q3 -8 -5 -10l-25 -7q-52 -16 -111 -16q-99 0 -155.5 66.5t-56.5 181.5zM96 225l210 36q93 17 93 82q0 49 -35 75.5 t-98 26.5q-81 0 -125 -56t-45 -164z" />
<glyph unicode="&#x436;" horiz-adv-x="721" d="M61 10l92 131q51 75 103 96q13 4 0 9q-43 17 -98 94l-90 126q-7 10 5 10h32q5 0 10 -5l75 -107q76 -104 134 -104h16v208q0 8 8 8h25q8 0 8 -8v-208h16q60 0 134 104l75 107q5 5 10 5h31q12 0 5 -10l-89 -126q-53 -77 -98 -94q-12 -5 0 -9q51 -21 104 -96l91 -131 q7 -10 -5 -10h-31q-5 0 -10 5l-79 115q-73 101 -137 101h-17v-213q0 -8 -8 -8h-25q-8 0 -8 8v213h-17q-66 0 -137 -101l-79 -115q-5 -5 -10 -5h-31q-12 0 -5 10z" />
<glyph unicode="&#x437;" horiz-adv-x="466" d="M56 26l8 24q2 7 10 5l38 -11q50 -13 112 -13q65 0 105 26.5t40 69.5t-43 69t-106 26h-57q-8 0 -8 8v23q0 8 8 8h57q60 0 96.5 25t36.5 67q0 40 -35 66t-92 26q-62 0 -114 -12l-33 -9q-8 -2 -10 6l-7 23q-2 8 6 10l34 8q62 15 123 15q77 0 124 -36t47 -94 q0 -36 -20.5 -65.5t-61.5 -42.5q-6 -2 -6 -5t6 -5q44 -13 71 -43t27 -70q0 -61 -51.5 -98t-136.5 -37q-54 0 -122 16l-40 10q-8 2 -6 10z" />
<glyph unicode="&#x438;" horiz-adv-x="549" d="M83 8v460q0 8 8 8h27q8 0 8 -8v-335q0 -25 -5 -65q-1 -4 1 -6t4 0q3 2 5 8q10 19 23 38l216 293q24 34 41 69q3 6 10 6h36q8 0 8 -8v-460q0 -8 -8 -8h-25q-8 0 -8 8v335q0 44 4 65q0 2 -0.5 4t-1.5 3t-2 0q-3 -1 -5 -8q-16 -29 -25 -41l-216 -293q-23 -32 -41 -67 q-3 -6 -10 -6h-36q-8 0 -8 8z" />
<glyph unicode="&#x439;" horiz-adv-x="549" d="M83 8v460q0 8 8 8h27q8 0 8 -8v-335q0 -25 -5 -65q-1 -4 1 -6t4 0q3 2 5 8q10 19 23 38l216 293q24 34 41 69q3 6 10 6h36q8 0 8 -8v-460q0 -8 -8 -8h-25q-8 0 -8 8v335q0 44 4 65q0 2 -0.5 4t-1.5 3t-2 0q-3 -1 -5 -8q-16 -29 -25 -41l-216 -293q-23 -32 -41 -67 q-3 -6 -10 -6h-36q-8 0 -8 8zM166 669v24q0 8 8 8h23q8 0 8 -8v-24q0 -29 18.5 -45t52.5 -16t52.5 16t18.5 45v24q0 8 8 8h23q8 0 8 -8v-24q0 -45 -29 -70.5t-81 -25.5t-81 25.5t-29 70.5z" />
<glyph unicode="&#x43a;" horiz-adv-x="486" d="M83 8v460q0 8 8 8h26q8 0 8 -8v-208h22q27 0 56.5 19t44 34.5t44.5 49.5l91 108q4 5 10 5h33q5 0 6.5 -3t-1.5 -7l-102 -121q-69 -84 -106 -98q-11 -5 0 -9q28 -9 51.5 -32.5t60.5 -68.5l103 -127q7 -10 -5 -10h-33q-6 0 -10 5l-94 116q-24 29 -32 38.5t-29 28.5t-41 26 t-45 7h-24v-213q0 -8 -8 -8h-26q-8 0 -8 8z" />
<glyph unicode="&#x43b;" horiz-adv-x="562" d="M28 18q-4 7 3 11l26 14q84 46 84 195v230q0 8 8 8h321q8 0 8 -8v-460q0 -8 -8 -8h-25q-8 0 -8 8v428h-254v-198q0 -171 -107 -230l-26 -15q-6 -4 -11 3z" />
<glyph unicode="&#x43c;" horiz-adv-x="629" d="M83 8v460q0 8 8 8h48q8 0 9 -7q8 -29 23 -57l118 -230q18 -38 21 -50q2 -6 5 -6t4 6q5 17 20 50l120 230q15 32 22 57q1 7 9 7h47q8 0 8 -8v-460q0 -8 -8 -8h-25q-8 0 -8 8v311q0 63 3 89q0 5 -1.5 7.5t-4 1t-3.5 -5.5q-25 -55 -26 -58l-111 -217q-17 -32 -27 -64 q-1 -7 -9 -7h-22q-8 0 -9 7q-10 33 -26 64l-112 217q-1 3 -26 58q-2 7 -6.5 5.5t-3.5 -8.5q5 -32 5 -89v-311q0 -8 -8 -8h-26q-8 0 -8 8z" />
<glyph unicode="&#x43d;" horiz-adv-x="543" d="M83 8v460q0 8 8 8h26q8 0 8 -8v-208h293v208q0 8 8 8h25q8 0 8 -8v-460q0 -8 -8 -8h-25q-8 0 -8 8v213h-293v-213q0 -8 -8 -8h-26q-8 0 -8 8z" />
<glyph unicode="&#x43e;" horiz-adv-x="531" d="M54 238q0 115 57 181.5t155 66.5t155 -66.5t57 -181.5q0 -114 -57 -181t-155 -67t-155 67t-57 181zM96 238q0 -97 45.5 -152t124.5 -55t124 55t45 152t-44.5 152t-124.5 55t-125 -55t-45 -152z" />
<glyph unicode="&#x43f;" horiz-adv-x="537" d="M83 8v460q0 8 8 8h354q8 0 8 -8v-460q0 -8 -8 -8h-25q-8 0 -8 8v428h-287v-428q0 -8 -8 -8h-26q-8 0 -8 8z" />
<glyph unicode="&#x440;" horiz-adv-x="548" d="M83 -202v670q0 8 8 8h24q8 0 8 -8v-70q0 -7 3.5 -8t7.5 6q58 90 160 90q94 0 147 -66t53 -182t-56 -182t-155 -66q-69 0 -126 27l-32 15v-234q0 -8 -8 -8h-26q-8 0 -8 8zM125 76l45 -22q47 -23 113 -23q79 0 124 55t45 152t-42 152t-118 55q-81 0 -124 -62.5t-43 -162.5 v-144z" />
<glyph unicode="&#x441;" horiz-adv-x="464" d="M54 238q0 117 57 182.5t164 65.5q42 0 95 -16l25 -7q8 -2 5 -10l-7 -22q-3 -8 -11 -6l-24 8q-41 12 -82 12q-89 0 -134.5 -54t-45.5 -153q0 -98 45.5 -152.5t131.5 -54.5q46 0 91 14l26 8q7 2 10 -5l7 -22q3 -8 -5 -10l-26 -8q-59 -18 -102 -18q-106 0 -163 66t-57 182z " />
<glyph unicode="&#x442;" horiz-adv-x="489" d="M44 444v24q0 8 8 8h385q8 0 8 -8v-24q0 -8 -8 -8h-172v-428q0 -8 -8 -8h-26q-8 0 -8 8v428h-171q-8 0 -8 8z" />
<glyph unicode="&#x443;" horiz-adv-x="535" d="M44 467q-5 9 5 9h28q7 0 10 -6l146 -302q24 -47 31 -85q2 -6 6.5 -6t6.5 6q12 38 34 85l138 302q3 6 10 6h27q10 0 6 -9l-264 -577q-46 -100 -134 -100h-21q-8 0 -8 8v24q0 8 8 8h21q60 0 94 73l33 73q30 63 -13 152z" />
<glyph unicode="&#x444;" horiz-adv-x="778" d="M59 238q0 116 47.5 182t131.5 66q56 0 104 -27l26 -15v249q0 8 8 8h26q8 0 8 -8v-249l26 15q46 27 104 27q84 0 131.5 -66t47.5 -182t-47.5 -182t-131.5 -66q-58 0 -104 27l-26 15v-234q0 -8 -8 -8h-26q-8 0 -8 8v234l-26 -15q-48 -27 -104 -27q-84 0 -131.5 66 t-47.5 182zM101 238q0 -97 36.5 -152t101.5 -55q54 0 91 23l38 22v324l-38 22q-39 23 -91 23q-65 0 -101.5 -55t-36.5 -152zM410 76l37 -22q40 -23 92 -23q65 0 101.5 55t36.5 152t-36.5 152t-101.5 55q-49 0 -92 -23l-37 -22v-324z" />
<glyph unicode="&#x445;" horiz-adv-x="509" d="M56 10l149 208l12 16q7 5 7 6v1q0 1 -6 7q-2 2 -12 16l-146 202q-7 10 5 10h32q6 0 10 -5l141 -198q6 -10 12 0l142 198q4 5 10 5h31q12 0 5 -10l-145 -202q-12 -16 -17 -19q-8 -6 0 -8q6 -2 17 -19l150 -208q7 -10 -5 -10h-32q-6 0 -10 5l-146 204q-6 9 -12 0l-146 -204 q-4 -5 -10 -5h-31q-12 0 -5 10z" />
<glyph unicode="&#x446;" horiz-adv-x="551" d="M84 8v460q0 8 8 8h25q8 0 8 -8v-428h287v428q0 8 8 8h26q8 0 8 -8v-428h40q8 0 8 -8v-175q0 -8 -8 -8h-25q-8 0 -8 8v143h-369q-8 0 -8 8z" />
<glyph unicode="&#x447;" horiz-adv-x="507" d="M59 322v146q0 8 8 8h25q8 0 8 -8v-142q0 -55 32 -85.5t89 -30.5q54 0 94 12l67 20v226q0 8 8 8h26q8 0 8 -8v-460q0 -8 -8 -8h-26q-8 0 -8 8v192l-55 -16q-50 -15 -108 -15q-75 0 -117.5 40.5t-42.5 112.5z" />
<glyph unicode="&#x448;" horiz-adv-x="718" d="M83 8v460q0 8 8 8h26q8 0 8 -8v-428h213v428q0 8 8 8h26q8 0 8 -8v-428h214v428q0 8 8 8h25q8 0 8 -8v-460q0 -8 -8 -8h-536q-8 0 -8 8z" />
<glyph unicode="&#x449;" horiz-adv-x="732" d="M83 8v460q0 8 8 8h26q8 0 8 -8v-428h213v428q0 8 8 8h26q8 0 8 -8v-428h214v428q0 8 8 8h25q8 0 8 -8v-428h41q8 0 8 -8v-175q0 -8 -8 -8h-25q-8 0 -8 8v143h-552q-8 0 -8 8z" />
<glyph unicode="&#x44a;" horiz-adv-x="580" d="M24 444v24q0 8 8 8h179q8 0 8 -8v-172h86q105 0 163.5 -40t58.5 -113q0 -68 -44 -105.5t-123 -37.5h-175q-8 0 -8 8v428h-145q-8 0 -8 8zM219 40h141q59 0 91.5 27t32.5 76q0 53 -47.5 83.5t-131.5 30.5h-86v-217z" />
<glyph unicode="&#x44b;" horiz-adv-x="657" d="M83 8v460q0 8 8 8h26q8 0 8 -8v-172h86q105 0 163.5 -40t58.5 -113q0 -68 -44 -105.5t-123 -37.5h-175q-8 0 -8 8zM125 40h141q59 0 91.5 27t32.5 76q0 53 -47.5 83.5t-131.5 30.5h-86v-217zM532 8v460q0 8 8 8h25q8 0 8 -8v-460q0 -8 -8 -8h-25q-8 0 -8 8z" />
<glyph unicode="&#x44c;" horiz-adv-x="486" d="M83 8v460q0 8 8 8h26q8 0 8 -8v-172h86q105 0 163.5 -40t58.5 -113q0 -68 -44 -105.5t-123 -37.5h-175q-8 0 -8 8zM125 40h141q59 0 91.5 27t32.5 76q0 53 -47.5 83.5t-131.5 30.5h-86v-217z" />
<glyph unicode="&#x44d;" horiz-adv-x="468" d="M61 25l8 23q2 7 10 5l25 -8q45 -14 91 -14q82 0 127 49.5t50 140.5h-236q-8 0 -8 8v23q0 8 8 8h235q-5 89 -50 137t-129 48q-41 0 -82 -12l-25 -8q-7 -2 -10 5l-8 23q-3 8 5 10l26 7q59 16 95 16q107 0 164 -65.5t57 -182.5q0 -116 -57 -182t-163 -66q-48 0 -102 18 l-25 7q-8 2 -6 10z" />
<glyph unicode="&#x44e;" horiz-adv-x="725" d="M83 8v460q0 8 8 8h26q8 0 8 -8v-208h124q5 105 61 165.5t150 60.5q98 0 155 -66.5t57 -181.5q0 -114 -57 -181t-155 -67q-94 0 -150.5 62t-61.5 169h-123v-213q0 -8 -8 -8h-26q-8 0 -8 8zM290 238q0 -97 45.5 -152t124.5 -55t124 55t45 152t-44.5 152t-124.5 55t-125 -55 t-45 -152z" />
<glyph unicode="&#x44f;" horiz-adv-x="517" d="M57 9l55 117q27 58 78 80q12 6 -2 11q-110 29 -110 125q0 64 42 99t116 35h190q8 0 8 -8v-460q0 -8 -8 -8h-26q-8 0 -8 8v191h-94q-106 0 -148 -89l-49 -104q-3 -6 -10 -6h-28q-10 0 -6 9zM120 341q0 -49 42 -76t119 -27h111v198h-156q-55 0 -85.5 -25t-30.5 -70z" />
<glyph unicode="&#x450;" horiz-adv-x="495" d="M54 238q0 115 57 181.5t155 66.5q83 0 129 -38t46 -105q0 -99 -127 -121l-214 -36q10 -74 53.5 -114.5t112.5 -40.5q59 0 99 13l24 8q8 2 11 -6l7 -23q3 -8 -5 -10l-25 -7q-52 -16 -111 -16q-99 0 -155.5 66.5t-56.5 181.5zM96 225l210 36q93 17 93 82q0 49 -35 75.5 t-98 26.5q-81 0 -125 -56t-45 -164zM159 691q-3 4 -1.5 7t6.5 3h32q6 0 10 -5l80 -104q7 -10 -5 -10h-25q-6 0 -10 5z" />
<glyph unicode="&#x451;" horiz-adv-x="495" d="M54 238q0 115 57 181.5t155 66.5q83 0 129 -38t46 -105q0 -99 -127 -121l-214 -36q10 -74 53.5 -114.5t112.5 -40.5q59 0 99 13l24 8q8 2 11 -6l7 -23q3 -8 -5 -10l-25 -7q-52 -16 -111 -16q-99 0 -155.5 66.5t-56.5 181.5zM96 225l210 36q93 17 93 82q0 49 -35 75.5 t-98 26.5q-81 0 -125 -56t-45 -164zM154 674q0 32 31 32t31 -32t-31 -32t-31 32zM295 674q0 32 31 32t31 -32t-31 -32t-31 32z" />
<glyph unicode="&#x452;" horiz-adv-x="529" d="M28 548v21q0 8 8 8h52v116q0 8 8 8h26q8 0 8 -8v-116h205q8 0 8 -8v-21q0 -8 -8 -8h-205v-165l53 16q55 18 124 18q74 0 116 -41.5t42 -113.5v-332q0 -67 -35 -104.5t-97 -37.5q-34 0 -58 9l-18 6q-8 2 -6 10l7 22q3 7 10 5l18 -5q19 -6 47 -6q42 0 66 27t24 74v328 q0 55 -31.5 86.5t-86.5 31.5q-57 0 -108 -14l-67 -21v-325q0 -8 -8 -8h-26q-8 0 -8 8v532h-52q-8 0 -8 8z" />
<glyph unicode="&#x453;" horiz-adv-x="431" d="M83 8v460q0 8 8 8h288q9 0 6 -9l-7 -24q-1 -7 -9 -7h-244v-428q0 -8 -8 -8h-26q-8 0 -8 8zM201 592l80 104q4 5 10 5h32q5 0 6.5 -3t-1.5 -7l-87 -104q-4 -5 -10 -5h-25q-12 0 -5 10z" />
<glyph unicode="&#x454;" horiz-adv-x="468" d="M54 238q0 117 57 182.5t164 65.5q36 0 95 -16l26 -7q8 -2 5 -10l-8 -23q-3 -7 -10 -5l-25 8q-41 12 -82 12q-84 0 -129 -48t-50 -137h235q8 0 8 -8v-23q0 -8 -8 -8h-236q5 -91 50 -140.5t127 -49.5q46 0 91 14l25 8q8 2 10 -5l8 -23q2 -8 -6 -10l-25 -7q-54 -18 -102 -18 q-106 0 -163 66t-57 182z" />
<glyph unicode="&#x455;" horiz-adv-x="465" d="M57 33l10 22q3 7 10 4l20 -8q49 -20 136 -20q64 0 100 24.5t36 68.5q0 62 -76 84l-125 36q-102 28 -102 119q0 57 44 90t122 33q65 0 113 -15l37 -12q8 -2 5 -10l-8 -23q-2 -7 -10 -5l-35 11q-42 13 -101 13q-58 0 -91.5 -22t-33.5 -60q0 -60 75 -82l123 -36 q105 -28 105 -121q0 -63 -47 -98.5t-131 -35.5q-89 0 -151 25l-20 8q-8 3 -5 10z" />
<glyph unicode="&#x456;" horiz-adv-x="236" d="M58 444v24q0 8 8 8h79q8 0 8 -8v-460q0 -8 -8 -8h-26q-8 0 -8 8v428h-45q-8 0 -8 8zM90 674q0 32 32 32q31 0 31 -32q0 -33 -31 -33q-32 0 -32 33z" />
<glyph unicode="&#x457;" horiz-adv-x="236" d="M39 674q0 32 31 32t31 -32t-31 -32t-31 32zM58 444v24q0 8 8 8h79q8 0 8 -8v-460q0 -8 -8 -8h-26q-8 0 -8 8v428h-45q-8 0 -8 8zM143 674q0 32 31 32t31 -32t-31 -32t-31 32z" />
<glyph unicode="&#x458;" horiz-adv-x="236" d="M41 -196q-5 7 1 11l32 24q37 27 37 85v512h-45q-8 0 -8 8v24q0 8 8 8h79q8 0 8 -8v-544q0 -75 -55 -117l-32 -25q-7 -5 -11 2zM90 674q0 32 32 32q31 0 31 -32q0 -33 -31 -33q-32 0 -32 33z" />
<glyph unicode="&#x459;" horiz-adv-x="827" d="M28 18q-4 7 3 11l26 14q84 46 84 195v230q0 8 8 8h308q8 0 8 -8v-172h86q105 0 163.5 -40t58.5 -113q0 -68 -43.5 -105.5t-123.5 -37.5h-175q-8 0 -8 8v428h-240v-198q0 -171 -107 -230l-26 -15q-6 -4 -11 3zM465 40h141q59 0 92 27t33 76q0 53 -48 83.5t-132 30.5h-86 v-217z" />
<glyph unicode="&#x45a;" horiz-adv-x="793" d="M83 8v460q0 8 8 8h26q8 0 8 -8v-197h265v197q0 8 8 8h25q8 0 8 -8v-197h132q83 0 130 -37t47 -102q0 -62 -42 -97t-116 -35h-184q-8 0 -8 8v223h-265v-223q0 -8 -8 -8h-26q-8 0 -8 8zM431 40h151q55 0 85 24t30 68q0 47 -35.5 73t-98.5 26h-132v-191z" />
<glyph unicode="&#x45b;" horiz-adv-x="529" d="M28 548v21q0 8 8 8h52v116q0 8 8 8h26q8 0 8 -8v-116h205q8 0 8 -8v-21q0 -8 -8 -8h-205v-165l53 16q55 18 124 18q74 0 116 -41.5t42 -113.5v-246q0 -8 -8 -8h-26q-8 0 -8 8v242q0 55 -31.5 86.5t-86.5 31.5q-57 0 -108 -14l-67 -21v-325q0 -8 -8 -8h-26q-8 0 -8 8v532 h-52q-8 0 -8 8z" />
<glyph unicode="&#x45c;" horiz-adv-x="486" d="M83 8v460q0 8 8 8h26q8 0 8 -8v-208h22q27 0 56.5 19t44 34.5t44.5 49.5l91 108q4 5 10 5h33q5 0 6.5 -3t-1.5 -7l-102 -121q-69 -84 -106 -98q-11 -5 0 -9q28 -9 51.5 -32.5t60.5 -68.5l103 -127q7 -10 -5 -10h-33q-6 0 -10 5l-94 116q-24 29 -32 38.5t-29 28.5t-41 26 t-45 7h-24v-213q0 -8 -8 -8h-26q-8 0 -8 8zM221 592l80 104q4 5 10 5h32q5 0 6.5 -3t-1.5 -7l-87 -104q-4 -5 -10 -5h-25q-12 0 -5 10z" />
<glyph unicode="&#x45e;" horiz-adv-x="535" d="M44 467q-5 9 5 9h28q7 0 10 -6l146 -302q24 -47 31 -85q2 -6 6.5 -6t6.5 6q12 38 34 85l138 302q3 6 10 6h27q10 0 6 -9l-264 -577q-46 -100 -134 -100h-21q-8 0 -8 8v24q0 8 8 8h21q60 0 94 73l33 73q30 63 -13 152zM159 669v24q0 8 8 8h23q8 0 8 -8v-24q0 -29 18.5 -45 t52.5 -16t52.5 16t18.5 45v24q0 8 8 8h23q8 0 8 -8v-24q0 -45 -29 -70.5t-81 -25.5t-81 25.5t-29 70.5z" />
<glyph unicode="&#x45f;" horiz-adv-x="537" d="M84 9v460q0 8 8 8h25q8 0 8 -8v-428h287v428q0 8 8 8h26q8 0 8 -8v-460q0 -8 -8 -8h-158v-144q0 -8 -8 -8h-25q-8 0 -8 8v144h-155q-8 0 -8 8z" />
<glyph unicode="&#x462;" horiz-adv-x="708" d="M29 531v24q0 8 8 8h147v112q0 8 8 8h27q8 0 8 -8v-112h177q8 0 8 -8v-24q0 -8 -8 -8h-177v-115h139q283 0 283 -208q0 -95 -58 -147.5t-163 -52.5h-236q-8 0 -8 8v515h-147q-8 0 -8 8zM227 39h201q83 0 130.5 42.5t47.5 118.5q0 168 -240 168h-139v-329z" />
<glyph unicode="&#x463;" horiz-adv-x="557" d="M30 445v23q0 8 8 8h116v217q0 8 8 8h25q8 0 8 -8v-217h176q8 0 8 -8v-23q0 -8 -8 -8h-176v-141h86q105 0 163.5 -40t58.5 -113q0 -68 -43.5 -105.5t-122.5 -37.5h-175q-8 0 -8 8v429h-116q-8 0 -8 8zM195 40h142q59 0 91.5 27t32.5 76q0 53 -47.5 83.5t-132.5 30.5h-86 v-217z" />
<glyph unicode="&#x472;" d="M59 342q0 162 75.5 256.5t206.5 94.5q132 0 207 -94t75 -257q0 -164 -75 -258t-207 -94q-131 0 -206.5 94t-75.5 258zM103 322q5 -137 67 -213t171 -76q112 0 174.5 80t64.5 223q-58 -35 -133 -35q-41 0 -109 28.5t-102 28.5q-71 0 -133 -36zM103 365q63 34 133 34 q40 0 108 -28.5t103 -28.5q63 0 132 37q-8 129 -70.5 201t-167.5 72q-108 0 -170.5 -75.5t-67.5 -211.5z" />
<glyph unicode="&#x473;" horiz-adv-x="532" d="M54 238q0 115 57 181.5t155 66.5t155 -66.5t57 -181.5q0 -114 -57 -181t-155 -67t-155 67t-57 181zM96 250q42 25 99 25q31 0 74.5 -15t67.5 -15q51 0 97 26q-8 83 -51.5 128.5t-116.5 45.5q-77 0 -122 -51.5t-48 -143.5zM97 209q7 -84 51.5 -131t117.5 -47 q78 0 122.5 53t46.5 146q-44 -24 -98 -24q-31 0 -74.5 14.5t-67.5 14.5q-53 0 -98 -26z" />
<glyph unicode="&#x474;" horiz-adv-x="694" d="M43 674q-4 9 6 9h29q7 0 10 -6l209 -498q21 -45 30 -99q1 -3 3.5 -4.5t5 0t2.5 4.5q8 47 30 99l184 434q15 37 35 53.5t54 16.5h16q8 0 8 -8v-23q0 -8 -8 -8h-16q-18 0 -28.5 -10.5t-21.5 -37.5l-190 -444q-28 -68 -45 -145q-3 -7 -9 -7h-27q-8 0 -9 7q-20 83 -47 145z " />
<glyph unicode="&#x475;" horiz-adv-x="537" d="M43 467q-4 9 6 9h28q7 0 10 -6l134 -292q28 -66 36 -99q2 -5 6 -5t6 5q8 34 37 98l111 242q26 57 77 57h9q8 0 8 -8v-24q0 -8 -8 -8h-7q-26 0 -42 -34l-116 -251q-32 -70 -52 -144q-1 -7 -9 -7h-28q-8 0 -9 7q-18 71 -51 144z" />
<glyph unicode="&#x48a;" horiz-adv-x="721" d="M93 8v667q0 8 8 8h28q8 0 8 -8v-523q0 -41 -6 -73q-1 -7 4 -8t7 4q9 22 31 55l321 450q38 57 58 97q3 6 10 6h33q8 0 8 -8v-635h50q9 0 6 -9l-58 -209q-1 -7 -9 -7h-26q-9 0 -6 9l49 176h-41q-8 0 -8 8v522q0 48 5 73q1 4 -1 6.5t-5 2t-4 -4.5q-9 -23 -32 -56l-321 -450 q-35 -47 -57 -95q-3 -6 -10 -6h-34q-8 0 -8 8z" />
<glyph unicode="&#x48b;" horiz-adv-x="573" d="M83 8v460q0 8 8 8h27q8 0 8 -8v-335q0 -25 -5 -65q-1 -4 1 -6t4 0q3 2 5 8q10 19 23 38l216 293q24 34 41 69q3 6 10 6h36q8 0 8 -8v-428h50q9 0 6 -9l-52 -175q-1 -7 -9 -7h-25q-9 0 -6 9l42 142h-39q-8 0 -8 8v335q0 44 4 65q0 2 -0.5 4t-1.5 3t-2 0q-3 -1 -5 -8 q-16 -29 -25 -41l-216 -293q-23 -32 -41 -67q-3 -6 -10 -6h-36q-8 0 -8 8zM166 669v24q0 8 8 8h23q8 0 8 -8v-24q0 -29 18.5 -45t52.5 -16t52.5 16t18.5 45v24q0 8 8 8h23q8 0 8 -8v-24q0 -45 -29 -70.5t-81 -25.5t-81 25.5t-29 70.5z" />
<glyph unicode="&#x48e;" horiz-adv-x="613" d="M93 8v667q0 8 8 8h236q105 0 163 -52.5t58 -147.5q0 -154 -155 -194l72 -112q5 -10 -5 -10h-29q-6 0 -9 5l-69 109q-41 -6 -88 -6h-139v-267q0 -8 -8 -8h-27q-8 0 -8 8zM136 315h139q39 0 64 4l-63 99q-5 10 5 10h28q6 0 9 -5l62 -97q135 31 135 157q0 76 -47.5 118.5 t-130.5 42.5h-201v-329z" />
<glyph unicode="&#x48f;" horiz-adv-x="548" d="M83 -202v670q0 8 8 8h24q8 0 8 -8v-70q0 -7 3.5 -8t7.5 6q58 90 160 90q94 0 147 -66t53 -182q0 -168 -108 -224l67 -106q5 -10 -5 -10h-28q-6 0 -9 5l-61 96q-32 -9 -67 -9q-69 0 -126 27l-32 15v-234q0 -8 -8 -8h-26q-8 0 -8 8zM125 76l45 -22q47 -23 113 -23 q21 0 43 5l-72 113q-5 10 5 10h28q6 0 9 -5l67 -105q89 48 89 189q0 97 -42 152t-118 55q-81 0 -124 -62.5t-43 -162.5v-144z" />
<glyph unicode="&#x490;" horiz-adv-x="572" d="M93 8v667q0 8 8 8h370v137q0 8 8 8h26q8 0 8 -8v-168q0 -8 -8 -8h-369v-636q0 -8 -8 -8h-27q-8 0 -8 8z" />
<glyph unicode="&#x491;" horiz-adv-x="436" d="M83 8v460q0 8 8 8h260v97q0 8 8 8h25q8 0 8 -8v-129q0 -8 -8 -8h-259v-428q0 -8 -8 -8h-26q-8 0 -8 8z" />
<glyph unicode="&#x492;" horiz-adv-x="607" d="M49 333v21q0 8 8 8h77v313q0 8 8 8h403q9 0 6 -9l-6 -23q-1 -7 -9 -7h-359v-282h167q8 0 8 -8v-21q0 -8 -8 -8h-167v-317q0 -8 -8 -8h-27q-8 0 -8 8v317h-77q-8 0 -8 8z" />
<glyph unicode="&#x493;" horiz-adv-x="452" d="M48 207v22q0 8 8 8h48v231q0 8 8 8h288q9 0 6 -9l-7 -24q-1 -7 -9 -7h-244v-199h149q8 0 8 -8v-22q0 -8 -8 -8h-149v-191q0 -8 -8 -8h-26q-8 0 -8 8v191h-48q-8 0 -8 8z" />
<glyph unicode="&#x494;" horiz-adv-x="636" d="M93 8v667q0 8 8 8h403q9 0 6 -9l-6 -23q-1 -7 -9 -7h-359v-271h5l80 26q66 22 142 22q98 0 153.5 -57.5t55.5 -159.5v-195q0 -84 -42.5 -132.5t-114.5 -48.5q-43 0 -73 10l-27 9q-8 2 -6 10l8 23q2 7 10 5l25 -8q26 -7 63 -7q53 0 83.5 36.5t30.5 102.5v193 q0 83 -44.5 130.5t-122.5 47.5q-73 0 -133 -20l-83 -27q-4 -2 -10 -2v-323q0 -8 -8 -8h-27q-8 0 -8 8z" />
<glyph unicode="&#x495;" horiz-adv-x="515" d="M83 8v460q0 8 8 8h288q9 0 6 -9l-7 -24q-1 -7 -9 -7h-244v-186h1l52 15q57 17 124 17q74 0 116 -40.5t42 -113.5v-205q1 -67 -34 -105t-96 -38q-30 0 -58 9l-19 6q-8 3 -5 11l8 22q3 7 10 5l18 -6q19 -6 46 -6q42 0 65.5 27.5t22.5 74.5v201q0 55 -31 86t-87 31 q-65 0 -108 -12l-59 -19q-10 -2 -14 -2q6 0 6 -8v-192q0 -8 -8 -8h-26q-8 0 -8 8z" />
<glyph unicode="&#x496;" horiz-adv-x="917" d="M60 10l125 187q84 121 151 149q14 6 0 12q-31 15 -71 53t-72 84l-121 178q-7 10 5 10h31q6 0 9 -5l108 -157q103 -150 188 -150h22v304q0 8 8 8h26q8 0 8 -8v-304h22q86 0 189 150l108 157q3 5 9 5h31q12 0 5 -10l-121 -178q-32 -45 -72.5 -83.5t-71.5 -53.5 q-12 -6 0 -12q69 -28 151 -149l104 -157h43q8 0 8 -8v-209q0 -8 -8 -8h-26q-8 0 -8 8v177h-25q-6 0 -9 5l-112 168q-47 71 -93.5 114.5t-100.5 43.5h-23v-323q0 -8 -8 -8h-26q-8 0 -8 8v323h-23q-91 0 -193 -158l-112 -168q-3 -5 -9 -5h-32q-11 0 -6 10z" />
<glyph unicode="&#x497;" horiz-adv-x="727" d="M61 10l92 131q51 75 103 96q13 4 0 9q-43 17 -98 94l-90 126q-7 10 5 10h32q5 0 10 -5l75 -107q76 -104 134 -104h16v208q0 8 8 8h25q8 0 8 -8v-208h16q60 0 134 104l75 107q5 5 10 5h31q12 0 5 -10l-89 -126q-53 -77 -98 -94q-12 -5 0 -9q51 -21 104 -96l70 -101h50 q8 0 8 -8v-175q0 -8 -8 -8h-25q-8 0 -8 8v143h-32q-5 0 -10 5l-79 115q-73 101 -137 101h-17v-213q0 -8 -8 -8h-25q-8 0 -8 8v213h-17q-66 0 -137 -101l-79 -115q-5 -5 -10 -5h-31q-12 0 -5 10z" />
<glyph unicode="&#x498;" horiz-adv-x="600" d="M67 37l8 24q2 7 10 5l52 -15q68 -20 152 -20q92 0 147.5 39.5t55.5 107.5q0 73 -60 113t-149 40h-88q-8 0 -8 8v24q0 8 8 8h88q82 0 134.5 41t52.5 101q0 62 -49 101t-128 39q-91 0 -155 -19l-46 -15q-8 -2 -10 6l-7 24q-2 8 6 10l44 13q73 21 167 21q100 0 161 -49.5 t61 -129.5q0 -50 -31 -91.5t-86 -63.5q-17 -7 1 -12q64 -20 100.5 -66t36.5 -104q0 -80 -59.5 -130t-160.5 -56v-168q0 -8 -8 -8h-26q-8 0 -8 8v167q-76 1 -148 21l-53 16q-8 2 -5 10z" />
<glyph unicode="&#x499;" horiz-adv-x="466" d="M56 26l8 24q2 7 10 5l38 -11q50 -13 112 -13q65 0 105 26.5t40 69.5t-43 69t-106 26h-57q-8 0 -8 8v23q0 8 8 8h57q60 0 96.5 25t36.5 67q0 40 -35 66t-92 26q-62 0 -114 -12l-33 -9q-8 -2 -10 6l-7 23q-2 8 6 10l34 8q62 15 123 15q77 0 124 -36t47 -94 q0 -36 -20.5 -65.5t-61.5 -42.5q-6 -2 -6 -5t6 -5q44 -13 71 -43t27 -70q0 -57 -45 -93t-121 -41v-134q0 -8 -8 -8h-25q-8 0 -8 8v133q-44 2 -103 16l-40 10q-8 2 -6 10z" />
<glyph unicode="&#x49a;" horiz-adv-x="647" d="M93 8v667q0 8 8 8h27q8 0 8 -8v-304h24q113 0 228 150l121 157q4 5 10 5h33q12 0 5 -10l-135 -176q-34 -46 -81 -85t-81 -54q-15 -6 0 -12q83 -31 171 -150l116 -156h48q8 0 8 -8v-209q0 -8 -8 -8h-27q-8 0 -8 8v177h-29q-6 0 -10 5l-124 168q-116 158 -235 158h-26v-323 q0 -8 -8 -8h-27q-8 0 -8 8z" />
<glyph unicode="&#x49b;" horiz-adv-x="503" d="M83 8v460q0 8 8 8h26q8 0 8 -8v-208h22q27 0 56.5 19t44 34.5t44.5 49.5l91 108q4 5 10 5h33q5 0 6.5 -3t-1.5 -7l-102 -121q-69 -84 -106 -98q-11 -5 0 -9q28 -9 51.5 -32.5t60.5 -68.5l79 -97h51q8 0 8 -8v-175q0 -8 -8 -8h-25q-8 0 -8 8v143h-32q-6 0 -10 5l-94 116 q-24 29 -32 38.5t-29 28.5t-41 26t-45 7h-24v-213q0 -8 -8 -8h-26q-8 0 -8 8z" />
<glyph unicode="&#x49c;" horiz-adv-x="664" d="M93 8v667q0 8 8 8h27q8 0 8 -8v-304h63v121q0 8 8 8h24q8 0 8 -8v-118q100 17 199 146l120 158q4 5 10 5h34q12 0 4 -10l-137 -177q-35 -46 -80.5 -84.5t-80.5 -53.5q-14 -6 0 -12q86 -34 171 -150l139 -186q7 -10 -5 -10h-33q-6 0 -10 5l-126 168q-47 64 -95.5 105.5 t-109.5 50.5v-130q0 -8 -8 -8h-24q-8 0 -8 8v132h-63v-323q0 -8 -8 -8h-27q-8 0 -8 8z" />
<glyph unicode="&#x49d;" horiz-adv-x="521" d="M83 8v460q0 8 8 8h26q8 0 8 -8v-209h48v93q0 8 8 8h23q8 0 8 -8v-88q7 2 14 5.5t15 9t13.5 9t13.5 11.5t12 11.5t13 13.5t11 12.5t12 14t11 12.5l91 108q4 5 10 5h33q5 0 6.5 -3t-1.5 -7l-102 -121q-67 -82 -106 -98q-10 -5 0 -9q20 -7 40.5 -24t34 -32t37.5 -45 l103 -127q7 -10 -5 -10h-33q-6 0 -10 5l-93 116q-24 30 -36.5 44t-36 31.5t-47.5 22.5v-90q0 -8 -8 -8h-23q-8 0 -8 8v93h-48v-214q0 -8 -8 -8h-26q-8 0 -8 8z" />
<glyph unicode="&#x49e;" horiz-adv-x="657" d="M39 522v21q0 8 8 8h86v124q0 8 8 8h27q8 0 8 -8v-124h87q8 0 8 -8v-21q0 -8 -8 -8h-87v-143h24q113 0 228 150l121 157q4 5 10 5h33q12 0 5 -10l-135 -176q-34 -46 -81 -85t-81 -54q-15 -6 0 -12q83 -31 171 -150l139 -186q7 -10 -5 -10h-34q-6 0 -10 5l-124 168 q-116 158 -235 158h-26v-323q0 -8 -8 -8h-27q-8 0 -8 8v506h-86q-8 0 -8 8z" />
<glyph unicode="&#x49f;" horiz-adv-x="491" d="M28 568v21q0 8 8 8h52v96q0 8 8 8h26q8 0 8 -8v-96h202q8 0 8 -8v-21q0 -8 -8 -8h-202v-300h22q27 0 56.5 19t44 34.5t44.5 49.5l91 108q4 5 10 5h33q5 0 6.5 -3t-1.5 -7l-102 -121q-69 -84 -106 -98q-10 -5 0 -9q28 -9 51.5 -32.5t60.5 -68.5l103 -127q7 -10 -5 -10h-33 q-6 0 -10 5l-94 116q-24 29 -32 38.5t-29 28.5t-41 26t-45 7h-24v-213q0 -8 -8 -8h-26q-8 0 -8 8v552h-52q-8 0 -8 8z" />
<glyph unicode="&#x4a0;" horiz-adv-x="755" d="M20 652v23q0 8 8 8h239q8 0 8 -8v-304h24q113 0 228 150l121 157q4 5 10 5h33q12 0 5 -10l-135 -176q-34 -46 -81 -85t-81 -54q-15 -6 0 -12q83 -31 171 -150l139 -186q7 -10 -5 -10h-34q-6 0 -10 5l-124 168q-116 158 -235 158h-26v-323q0 -8 -8 -8h-27q-8 0 -8 8v636 h-204q-8 0 -8 8z" />
<glyph unicode="&#x4a1;" horiz-adv-x="579" d="M24 444v24q0 8 8 8h179q8 0 8 -8v-208h22q27 0 56.5 19t44 34.5t44.5 49.5l91 108q4 5 10 5h33q5 0 6.5 -3t-1.5 -7l-102 -121q-69 -84 -106 -98q-11 -5 0 -9q28 -9 51.5 -32.5t60.5 -68.5l103 -127q7 -10 -5 -10h-33q-6 0 -10 5l-94 116q-24 29 -32 38.5t-29 28.5 t-41 26t-45 7h-24v-213q0 -8 -8 -8h-26q-8 0 -8 8v428h-145q-8 0 -8 8z" />
<glyph unicode="&#x4a2;" horiz-adv-x="707" d="M93 8v667q0 8 8 8h27q8 0 8 -8v-304h412v304q0 8 8 8h26q8 0 8 -8v-635h51q8 0 8 -8v-209q0 -8 -8 -8h-26q-8 0 -8 8v177h-51q-8 0 -8 8v323h-412v-323q0 -8 -8 -8h-27q-8 0 -8 8z" />
<glyph unicode="&#x4a3;" horiz-adv-x="556" d="M83 8v460q0 8 8 8h26q8 0 8 -8v-208h293v208q0 8 8 8h25q8 0 8 -8v-428h41q8 0 8 -8v-175q0 -8 -8 -8h-25q-8 0 -8 8v143h-41q-8 0 -8 8v213h-293v-213q0 -8 -8 -8h-26q-8 0 -8 8z" />
<glyph unicode="&#x4a4;" horiz-adv-x="1020" d="M93 8v667q0 8 8 8h27q8 0 8 -8v-304h412v304q0 8 8 8h402q9 0 6 -9l-6 -23q-1 -7 -9 -7h-359v-636q0 -8 -8 -8h-26q-8 0 -8 8v323h-412v-323q0 -8 -8 -8h-27q-8 0 -8 8z" />
<glyph unicode="&#x4a5;" horiz-adv-x="765" d="M83 8v460q0 8 8 8h26q8 0 8 -8v-208h293v208q0 8 8 8h287q9 0 6 -9l-7 -24q-1 -7 -9 -7h-244v-428q0 -8 -8 -8h-25q-8 0 -8 8v213h-293v-213q0 -8 -8 -8h-26q-8 0 -8 8z" />
<glyph unicode="&#x4a6;" horiz-adv-x="699" d="M93 8v667q0 8 8 8h473q8 0 8 -8v-635h50q8 0 8 -8v-209q0 -8 -8 -8h-26q-8 0 -8 8v177h-51q-8 0 -8 8v636h-403v-636q0 -8 -8 -8h-27q-8 0 -8 8z" />
<glyph unicode="&#x4a7;" horiz-adv-x="551" d="M83 8v460q0 8 8 8h354q8 0 8 -8v-428h41q8 0 8 -8v-175q0 -8 -8 -8h-25q-8 0 -8 8v143h-41q-8 0 -8 8v428h-287v-428q0 -8 -8 -8h-26q-8 0 -8 8z" />
<glyph unicode="&#x4a8;" horiz-adv-x="793" d="M59 338q0 189 150 317l38 34q7 5 11 -1l18 -19q6 -6 0 -11l-40 -35q-133 -114 -133 -285q0 -143 73.5 -224.5t203.5 -81.5q42 0 78 9q-138 102 -138 355q0 130 50.5 202.5t141.5 72.5q93 0 145.5 -73t52.5 -202q0 -256 -151 -356q34 -8 66 -8q62 0 104 11l45 11q7 2 9 -5 l8 -23q2 -8 -6 -10l-44 -12q-58 -14 -116 -14q-64 0 -118 23q-58 -23 -128 -23q-151 0 -235.5 92t-84.5 256zM363 395q0 -125 37.5 -211t107.5 -124q77 38 118 124t41 212q0 110 -41 171.5t-114 61.5q-71 0 -110 -61.5t-39 -172.5z" />
<glyph unicode="&#x4a9;" horiz-adv-x="610" d="M54 238q0 127 92 212l32 31q6 5 12 -1l18 -18q6 -6 0 -12l-30 -29q-82 -76 -82 -182q0 -99 48 -153.5t134 -54.5q30 0 55 6q-99 73 -99 229q0 86 38 135t105 49q66 0 103.5 -49t37.5 -135q0 -154 -88 -227q35 -8 71 -8q37 0 70 7l19 6q8 2 10 -6l7 -23q2 -8 -6 -10 l-19 -5q-39 -10 -85 -10q-63 0 -114 20q-48 -20 -105 -20q-106 0 -165 65.5t-59 182.5zM276 266q0 -152 107 -208q93 56 93 208q0 68 -26.5 105.5t-73.5 37.5t-73.5 -38t-26.5 -105z" />
<glyph unicode="&#x4aa;" horiz-adv-x="596" d="M59 342q0 163 75.5 257t207.5 94q75 0 141 -25l41 -15q8 -3 5 -11l-9 -23q-4 -7 -10 -4l-42 15q-53 21 -126 22q-114 0 -176.5 -81.5t-62.5 -228.5q0 -146 62.5 -228t176.5 -82q67 0 129 23l39 14q8 3 11 -4l8 -23q3 -8 -4 -11l-40 -14q-70 -27 -140 -27v-167q0 -8 -8 -8 h-27q-8 0 -8 8v169q-114 15 -178.5 107.5t-64.5 242.5z" />
<glyph unicode="&#x4ab;" horiz-adv-x="464" d="M54 238q0 117 57 182.5t164 65.5q42 0 95 -16l25 -7q8 -2 5 -10l-7 -22q-3 -8 -11 -6l-24 8q-41 12 -82 12q-89 0 -134.5 -54t-45.5 -153q0 -98 45.5 -152.5t131.5 -54.5q46 0 91 14l26 8q7 2 10 -5l7 -22q3 -8 -5 -10l-26 -8q-58 -17 -96 -18v-133q0 -8 -8 -8h-25 q-8 0 -8 8v135q-90 11 -137.5 75.5t-47.5 170.5z" />
<glyph unicode="&#x4ac;" horiz-adv-x="618" d="M44 652v23q0 8 8 8h513q8 0 8 -8v-23q0 -8 -8 -8h-235v-604h51q8 0 8 -8v-209q0 -8 -8 -8h-26q-8 0 -8 8v177h-51q-8 0 -8 8v636h-236q-8 0 -8 8z" />
<glyph unicode="&#x4ad;" horiz-adv-x="489" d="M44 444v24q0 8 8 8h385q8 0 8 -8v-24q0 -8 -8 -8h-172v-396h40q8 0 8 -8v-175q0 -8 -8 -8h-25q-8 0 -8 8v143h-41q-8 0 -8 8v428h-171q-8 0 -8 8z" />
<glyph unicode="&#x4ae;" horiz-adv-x="642" d="M45 673q-5 10 6 10h32q6 0 9 -5l167 -252q35 -55 56 -104q1 -5 5.5 -5t6.5 5q24 56 56 104l167 252q3 5 9 5h32q11 0 6 -10l-183 -274q-40 -61 -56 -100t-16 -94v-197q0 -8 -8 -8h-27q-8 0 -8 8v197q0 56 -16 95t-55 99z" />
<glyph unicode="&#x4af;" horiz-adv-x="528" d="M43 467q-4 9 6 9h28q7 0 10 -6l134 -292q27 -64 36 -99q2 -6 6.5 -6t6.5 6q17 55 37 99l134 292q3 6 10 6h28q10 0 6 -9l-147 -318q-53 -113 -53 -202v-149q0 -8 -8 -8h-26q-8 0 -8 8v149q0 83 -53 202z" />
<glyph unicode="&#x4b0;" horiz-adv-x="652" d="M50 673q-5 10 6 10h32q6 0 9 -5l167 -252q35 -55 56 -104q2 -5 6 -5t6 5q24 56 56 104l167 252q3 5 9 5h32q11 0 6 -10l-183 -274q-40 -61 -56 -100t-16 -94v-1h151q8 0 8 -8v-24q0 -8 -8 -8h-151v-156q0 -8 -8 -8h-27q-8 0 -8 8v156h-151q-8 0 -8 8v24q0 8 8 8h151v1 q0 56 -16 95t-55 99z" />
<glyph unicode="&#x4b1;" horiz-adv-x="538" d="M48 467q-4 9 6 9h28q7 0 10 -6l134 -292q27 -64 36 -99q2 -6 6.5 -6t6.5 6q17 55 37 99l134 292q3 6 10 6h28q10 0 6 -9l-147 -318q-25 -54 -41 -111h123q8 0 8 -8v-22q0 -8 -8 -8h-130q-5 -30 -5 -53v-149q0 -8 -8 -8h-26q-8 0 -8 8v149q0 23 -5 53h-129q-8 0 -8 8v22 q0 8 8 8h121q-14 55 -40 111z" />
<glyph unicode="&#x4b2;" horiz-adv-x="649" d="M66 10l203 303q9 17 19 25q6 4 7 7q0 4 -3 7q-10 4 -23 28l-197 293q-7 10 5 10h32q6 0 9 -5l197 -294q8 -13 16 0l197 294q3 5 9 5h32q11 0 6 -10l-197 -293q-16 -24 -23 -28q-8 -6 4 -14q8 -5 19 -25l182 -273h41q8 0 8 -8v-209q0 -8 -8 -8h-26q-8 0 -8 8v177h-24 q-6 0 -9 5l-203 305q-7 12 -16 0l-203 -305q-3 -5 -9 -5h-32q-12 0 -5 10z" />
<glyph unicode="&#x4b3;" horiz-adv-x="524" d="M56 10l149 208l12 16q7 5 7 6v1q0 1 -6 7q-2 2 -12 16l-146 202q-7 10 5 10h32q6 0 10 -5l141 -198q6 -10 12 0l142 198q4 5 10 5h31q12 0 5 -10l-145 -202q-12 -16 -17 -19q-8 -6 0 -8q6 -2 17 -19l128 -178h50q8 0 8 -8v-175q0 -8 -8 -8h-25q-8 0 -8 8v143h-32 q-6 0 -10 5l-146 204q-6 9 -12 0l-146 -204q-4 -5 -10 -5h-31q-12 0 -5 10z" />
<glyph unicode="&#x4b4;" horiz-adv-x="838" d="M20 651v24q0 8 8 8h460q8 0 8 -8v-24q0 -8 -8 -8h-213v-604h403v636q0 8 8 8h27q8 0 8 -8v-635h50q8 0 8 -8v-209q0 -8 -8 -8h-26q-8 0 -8 8v177h-497q-8 0 -8 8v635h-204q-8 0 -8 8z" />
<glyph unicode="&#x4b5;" horiz-adv-x="641" d="M24 444v24q0 8 8 8h331q8 0 8 -8v-24q0 -8 -8 -8h-148v-396h287v428q0 8 8 8h26q8 0 8 -8v-428h40q8 0 8 -8v-175q0 -8 -8 -8h-25q-8 0 -8 8v143h-369q-8 0 -8 8v428h-142q-8 0 -8 8z" />
<glyph unicode="&#x4b6;" horiz-adv-x="659" d="M69 467v208q0 8 8 8h27q8 0 8 -8v-206q0 -84 43.5 -130.5t121.5 -46.5q74 0 131 19l92 29v335q0 8 8 8h26q8 0 8 -8v-635h51q8 0 8 -8v-209q0 -8 -8 -8h-26q-8 0 -8 8v177h-51q-8 0 -8 8v289l-77 -25q-67 -22 -146 -22q-98 0 -153 57.5t-55 159.5z" />
<glyph unicode="&#x4b7;" horiz-adv-x="521" d="M59 322v146q0 8 8 8h25q8 0 8 -8v-142q0 -55 32 -85.5t89 -30.5q54 0 94 12l67 20v226q0 8 8 8h26q8 0 8 -8v-428h40q8 0 8 -8v-175q0 -8 -8 -8h-25q-8 0 -8 8v143h-41q-8 0 -8 8v192l-55 -16q-50 -15 -108 -15q-75 0 -117.5 40.5t-42.5 112.5z" />
<glyph unicode="&#x4b8;" horiz-adv-x="636" d="M69 467v208q0 8 8 8h27q8 0 8 -8v-206q0 -84 43.5 -130.5t121.5 -46.5h5v112q0 8 8 8h23q8 0 8 -8v-111q46 4 87 18l92 29v335q0 8 8 8h26q8 0 8 -8v-667q0 -8 -8 -8h-26q-8 0 -8 8v289l-77 -25q-52 -16 -102 -21v-140q0 -8 -8 -8h-23q-8 0 -8 8v139h-5q-98 0 -153 57.5 t-55 159.5z" />
<glyph unicode="&#x4b9;" horiz-adv-x="507" d="M59 322v146q0 8 8 8h25q8 0 8 -8v-142q0 -55 32 -85.5t89 -30.5h2v88q0 8 8 8h23q8 0 8 -8v-86q21 1 53 10l67 20v226q0 8 8 8h26q8 0 8 -8v-460q0 -8 -8 -8h-26q-8 0 -8 8v192l-55 -16q-35 -10 -65 -13v-99q0 -8 -8 -8h-23q-8 0 -8 8v97h-4q-75 0 -117.5 40.5 t-42.5 112.5z" />
<glyph unicode="&#x4ba;" horiz-adv-x="636" d="M94 8v667q0 8 8 8h26q8 0 8 -8v-254l77 25q67 22 146 22q98 0 153 -57.5t55 -159.5v-243q0 -8 -8 -8h-27q-8 0 -8 8v241q0 84 -43.5 130.5t-121.5 46.5q-74 0 -131 -19l-92 -29v-370q0 -8 -8 -8h-26q-8 0 -8 8z" />
<glyph unicode="&#x4bb;" horiz-adv-x="507" d="M83 8v460q0 8 8 8h26q8 0 8 -8v-176l55 16q50 15 108 15q75 0 117.5 -40.5t42.5 -112.5v-162q0 -8 -8 -8h-25q-8 0 -8 8v158q0 55 -32 86t-89 31q-51 0 -94 -13l-67 -20v-242q0 -8 -8 -8h-26q-8 0 -8 8z" />
<glyph unicode="&#x4bc;" horiz-adv-x="759" d="M39 348v83q0 8 8 8h27q8 0 8 -8v-83q0 -57 62 -46l37 6q-1 11 -1 34q0 164 76 257.5t208 93.5q110 0 173 -52.5t63 -145.5q0 -65 -49 -110t-139 -60l-284 -52q15 -115 76 -178t160 -63q65 0 127 23l39 14q8 3 11 -4l8 -24q3 -6 -4 -10l-38 -14q-73 -27 -143 -27 q-115 0 -188.5 72.5t-90.5 202.5l-35 -7q-53 -8 -82 15.5t-29 74.5zM224 317l281 49q73 13 112 46.5t39 82.5q0 74 -51 115.5t-141 41.5q-117 0 -181.5 -88t-58.5 -247z" />
<glyph unicode="&#x4bd;" horiz-adv-x="581" d="M30 247v56q0 8 8 8h24q8 0 8 -8v-56q0 -19 12 -27.5t33 -4.5l25 4v19q0 115 56.5 181.5t155.5 66.5q82 0 128.5 -38t46.5 -105q0 -100 -133 -122l-208 -35q11 -74 53.5 -114.5t112.5 -40.5q52 0 98 13l26 8q8 2 10 -6l7 -23q3 -8 -5 -10l-26 -7q-53 -16 -110 -16 q-85 0 -139.5 50t-68.5 139l-24 -4q-90 -12 -90 72zM182 225l204 35q99 18 99 83q0 49 -35.5 75.5t-98.5 26.5q-168 0 -169 -220z" />
<glyph unicode="&#x4be;" horiz-adv-x="759" d="M39 348v83q0 8 8 8h27q8 0 8 -8v-83q0 -57 62 -46l37 6q-1 11 -1 34q0 164 76 257.5t208 93.5q110 0 173 -52.5t63 -145.5q0 -65 -49 -110t-139 -60l-284 -52q15 -115 76 -178t160 -63q65 0 127 23l39 14q8 3 11 -4l8 -24q3 -6 -4 -10l-38 -14q-73 -27 -142 -27v-167 q0 -8 -8 -8h-26q-8 0 -8 8v170q-98 12 -160 83.5t-78 188.5l-35 -7q-53 -8 -82 15.5t-29 74.5zM224 317l281 49q73 13 112 46.5t39 82.5q0 74 -51 115.5t-141 41.5q-117 0 -181.5 -88t-58.5 -247z" />
<glyph unicode="&#x4bf;" horiz-adv-x="581" d="M30 247v56q0 8 8 8h24q8 0 8 -8v-56q0 -19 12 -27.5t33 -4.5l25 4v19q0 115 56.5 181.5t155.5 66.5q82 0 128.5 -38t46.5 -105q0 -99 -129 -121l-212 -36q11 -74 53.5 -114.5t112.5 -40.5q52 0 98 13l26 8q8 2 10 -6l7 -23q3 -8 -5 -10l-26 -7q-49 -15 -97 -16v-133 q0 -8 -8 -8h-25q-8 0 -8 8v134q-73 8 -120 57.5t-60 130.5l-24 -4q-90 -12 -90 72zM182 225l208 36q95 17 95 82q0 49 -35.5 75.5t-98.5 26.5q-168 0 -169 -220z" />
<glyph unicode="&#x4c0;" horiz-adv-x="229" d="M93 8v667q0 8 8 8h27q8 0 8 -8v-667q0 -8 -8 -8h-27q-8 0 -8 8z" />
<glyph unicode="&#x4c1;" horiz-adv-x="912" d="M60 10l125 187q84 121 151 149q14 6 0 12q-31 15 -71 53t-72 84l-121 178q-7 10 5 10h31q6 0 9 -5l108 -157q103 -150 188 -150h22v304q0 8 8 8h26q8 0 8 -8v-304h22q86 0 189 150l108 157q3 5 9 5h31q12 0 5 -10l-121 -178q-32 -45 -72.5 -83.5t-71.5 -53.5 q-12 -6 0 -12q69 -28 151 -149l125 -187q5 -10 -6 -10h-31q-6 0 -9 5l-112 168q-47 71 -93.5 114.5t-100.5 43.5h-23v-323q0 -8 -8 -8h-26q-8 0 -8 8v323h-23q-91 0 -193 -158l-112 -168q-3 -5 -9 -5h-32q-11 0 -6 10zM345 841v13q0 8 8 8h23q8 0 8 -8v-12q0 -51 72 -51 t72 51v12q0 8 8 8h22q8 0 8 -8v-13q0 -88 -110 -88q-111 0 -111 88z" />
<glyph unicode="&#x4c2;" horiz-adv-x="721" d="M61 10l92 131q51 75 103 96q13 4 0 9q-43 17 -98 94l-90 126q-7 10 5 10h32q5 0 10 -5l75 -107q76 -104 134 -104h16v208q0 8 8 8h25q8 0 8 -8v-208h16q60 0 134 104l75 107q5 5 10 5h31q12 0 5 -10l-89 -126q-53 -77 -98 -94q-12 -5 0 -9q51 -21 104 -96l91 -131 q7 -10 -5 -10h-31q-5 0 -10 5l-79 115q-73 101 -137 101h-17v-213q0 -8 -8 -8h-25q-8 0 -8 8v213h-17q-66 0 -137 -101l-79 -115q-5 -5 -10 -5h-31q-12 0 -5 10zM252 669v24q0 8 8 8h23q8 0 8 -8v-24q0 -29 18.5 -45t52.5 -16t52.5 16t18.5 45v24q0 8 8 8h23q8 0 8 -8v-24 q0 -45 -29 -70.5t-81 -25.5t-81 25.5t-29 70.5z" />
<glyph unicode="&#x4c3;" horiz-adv-x="642" d="M93 8v667q0 8 8 8h27q8 0 8 -8v-304h24q114 0 228 150l121 157q4 5 10 5h33q12 0 5 -10l-135 -176q-65 -83 -131 -121q-7 -5 -6.5 -8.5t6.5 -4.5q121 -13 196.5 -79.5t75.5 -180.5v-120q0 -76 -42.5 -124t-113.5 -48q-38 0 -72 10l-30 9q-8 2 -5 10l8 23q3 7 10 5l28 -8 q26 -7 61 -7q53 0 83.5 35.5t30.5 94.5v120q0 105 -82 166.5t-225 61.5h-78v-323q0 -8 -8 -8h-27q-8 0 -8 8z" />
<glyph unicode="&#x4c4;" horiz-adv-x="497" d="M83 8v460q0 8 8 8h26q8 0 8 -8v-208h19q26 0 56.5 19t48.5 37t43 48l91 107q4 5 10 5h33q5 0 6.5 -3t-1.5 -7l-103 -122q-44 -53 -88 -83q-11 -6 1 -8q90 -10 142.5 -64t52.5 -136v-147q0 -56 -34 -91t-91 -35q-27 0 -59 9l-18 5q-8 2 -6 10l7 22q2 8 10 6l18 -5 q24 -6 47 -6q39 0 61.5 23t22.5 62v147q0 79 -57 123.5t-155 44.5h-57v-213q0 -8 -8 -8h-26q-8 0 -8 8z" />
<glyph unicode="&#x4c5;" horiz-adv-x="719" d="M23 13q-3 8 3 11l36 24q104 70 104 294v333q0 8 8 8h419q8 0 8 -8v-635h50q9 0 6 -9l-58 -209q-1 -7 -9 -7h-26q-9 0 -6 9l49 176h-41q-8 0 -8 8v636h-349v-302q0 -242 -126 -327l-35 -24q-8 -5 -11 2z" />
<glyph unicode="&#x4c6;" horiz-adv-x="586" d="M28 18q-4 7 3 11l26 14q84 46 84 195v230q0 8 8 8h321q8 0 8 -8v-428h50q9 0 6 -9l-52 -175q-1 -7 -9 -7h-25q-9 0 -6 9l42 142h-39q-8 0 -8 8v428h-254v-198q0 -171 -107 -230l-26 -15q-6 -4 -11 3z" />
<glyph unicode="&#x4c7;" horiz-adv-x="684" d="M93 8v667q0 8 8 8h27q8 0 8 -8v-304h412v304q0 8 8 8h26q8 0 8 -8v-686q0 -84 -41.5 -131t-115.5 -47q-37 0 -73 11l-27 8q-8 2 -5 10l8 23q2 7 10 5l25 -7q28 -8 62 -8q54 0 84.5 36t30.5 100v342h-412v-323q0 -8 -8 -8h-27q-8 0 -8 8z" />
<glyph unicode="&#x4c8;" horiz-adv-x="543" d="M83 8v460q0 8 8 8h26q8 0 8 -8v-208h293v208q0 8 8 8h25q8 0 8 -8v-546q0 -67 -34.5 -104.5t-96.5 -37.5q-32 0 -59 10l-18 6q-8 2 -6 10l7 22q3 7 11 5l18 -6q19 -6 47 -6q43 0 66.5 27t23.5 74v299h-293v-213q0 -8 -8 -8h-26q-8 0 -8 8z" />
<glyph unicode="&#x4c9;" horiz-adv-x="708" d="M93 8v667q0 8 8 8h27q8 0 8 -8v-304h412v304q0 8 8 8h26q8 0 8 -8v-635h51q9 0 6 -9l-58 -209q-1 -7 -9 -7h-26q-9 0 -6 9l49 176h-41q-8 0 -8 8v323h-412v-323q0 -8 -8 -8h-27q-8 0 -8 8z" />
<glyph unicode="&#x4ca;" horiz-adv-x="566" d="M83 8v460q0 8 8 8h26q8 0 8 -8v-208h293v208q0 8 8 8h25q8 0 8 -8v-428h50q9 0 6 -9l-52 -175q-1 -7 -9 -7h-25q-9 0 -6 9l42 142h-39q-8 0 -8 8v213h-293v-213q0 -8 -8 -8h-26q-8 0 -8 8z" />
<glyph unicode="&#x4cb;" horiz-adv-x="636" d="M69 433v242q0 8 8 8h27q8 0 8 -8v-240q0 -84 43.5 -130.5t121.5 -46.5q75 0 131 19l92 29v369q0 8 8 8h26q8 0 8 -8v-667q0 -8 -8 -8h-50v-177q0 -8 -8 -8h-26q-8 0 -8 8v209q0 8 8 8h50v223l-77 -25q-66 -22 -146 -22q-98 0 -153 57.5t-55 159.5z" />
<glyph unicode="&#x4cc;" horiz-adv-x="507" d="M59 304v164q0 8 8 8h25q8 0 8 -8v-163q0 -55 32 -85.5t89 -30.5q51 0 94 13l67 20v246q0 8 8 8h26q8 0 8 -8v-460q0 -8 -8 -8h-42v-143q0 -8 -8 -8h-25q-8 0 -8 8v175q0 8 8 8h41v140l-55 -17q-51 -14 -108 -14q-76 0 -118 41t-42 114z" />
<glyph unicode="&#x4cd;" horiz-adv-x="817" d="M93 8v667q0 8 8 8h49q8 0 9 -7q9 -32 33 -82l172 -372q14 -29 25 -64q1 -5 4 -6.5t6 0t4 6.5q10 33 25 63l172 372q23 49 33 83q1 7 9 7h49q8 0 8 -8v-635h50q9 0 6 -9l-58 -209q-1 -7 -9 -7h-26q-9 0 -6 9l49 176h-41q-8 0 -8 8v493q0 61 4 102q0 6 -2 9t-5 1.5t-5 -7.5 q-12 -33 -34 -80l-155 -332q-15 -33 -40 -98q-1 -6 -9 -6h-28q-8 0 -9 6q-27 70 -40 99l-155 330q-20 47 -34 81q-3 10 -8.5 8t-3.5 -11q4 -41 4 -102v-493q0 -8 -8 -8h-27q-8 0 -8 8z" />
<glyph unicode="&#x4ce;" horiz-adv-x="652" d="M83 8v460q0 8 8 8h48q8 0 9 -7q8 -29 23 -57l118 -230q18 -38 21 -50q2 -6 5 -6t4 6q5 17 20 50l120 230q15 32 22 57q1 7 9 7h47q8 0 8 -8v-428h50q9 0 6 -9l-52 -175q-1 -7 -9 -7h-25q-9 0 -6 9l42 142h-39q-8 0 -8 8v311q0 63 3 89q0 5 -1.5 7.5t-4 1t-3.5 -5.5 q-25 -55 -26 -58l-111 -217q-17 -32 -27 -64q-1 -7 -9 -7h-22q-8 0 -9 7q-10 33 -26 64l-112 217q-1 3 -26 58q-2 7 -6.5 5.5t-3.5 -8.5q5 -32 5 -89v-311q0 -8 -8 -8h-26q-8 0 -8 8z" />
<glyph unicode="&#x4cf;" horiz-adv-x="229" d="M93 8v667q0 8 8 8h27q8 0 8 -8v-667q0 -8 -8 -8h-27q-8 0 -8 8z" />
<glyph unicode="&#x4d0;" d="M48 9l221 526q30 71 49 141q1 7 9 7h28q8 0 9 -7q15 -55 49 -141l222 -526q4 -9 -6 -9h-29q-7 0 -10 6l-78 189h-341l-78 -189q-3 -6 -10 -6h-29q-10 0 -6 9zM188 236h306l-112 266q-24 57 -35 108q-1 3 -3.5 4.5t-5 0t-2.5 -4.5q-14 -55 -36 -108zM230 841v13q0 8 8 8 h23q8 0 8 -8v-12q0 -51 72 -51t72 51v12q0 8 8 8h22q8 0 8 -8v-13q0 -88 -110 -88q-111 0 -111 88z" />
<glyph unicode="&#x4d1;" horiz-adv-x="501" d="M49 131q0 65 44.5 103.5t127.5 39.5h164v17q0 73 -38 113.5t-107 40.5q-51 0 -96 -12l-35 -12q-8 -2 -10 6l-8 23q-2 8 6 10l37 11q45 15 107 15q86 0 136.5 -52.5t50.5 -142.5v-283q0 -8 -8 -8h-23q-8 0 -8 8v53q-1 9 -6 9t-11 -9q-54 -71 -169 -71q-72 0 -113 37.5 t-41 103.5zM91 132q0 -48 29.5 -75t83.5 -27q85 0 133 49.5t48 137.5v17h-164q-65 0 -97.5 -27.5t-32.5 -74.5zM141 670v24q0 8 8 8h23q8 0 8 -8v-24q0 -29 18.5 -45t52.5 -16t52.5 16t18.5 45v24q0 8 8 8h23q8 0 8 -8v-24q0 -45 -29 -70.5t-81 -25.5t-81 25.5t-29 70.5z " />
<glyph unicode="&#x4d2;" d="M48 9l221 526q30 71 49 141q1 7 9 7h28q8 0 9 -7q15 -55 49 -141l222 -526q4 -9 -6 -9h-29q-7 0 -10 6l-78 189h-341l-78 -189q-3 -6 -10 -6h-29q-10 0 -6 9zM188 236h306l-112 266q-24 57 -35 108q-1 3 -3.5 4.5t-5 0t-2.5 -4.5q-14 -55 -36 -108zM246 812q0 30 30 30 q14 0 22.5 -8.5t8.5 -21.5q0 -14 -8.5 -22.5t-22.5 -8.5q-30 0 -30 31zM375 812q0 30 30 30q14 0 22.5 -8.5t8.5 -21.5q0 -14 -8.5 -22.5t-22.5 -8.5q-30 0 -30 31z" />
<glyph unicode="&#x4d3;" horiz-adv-x="501" d="M49 131q0 65 44.5 103.5t127.5 39.5h164v17q0 73 -38 113.5t-107 40.5q-51 0 -96 -12l-35 -12q-8 -2 -10 6l-8 23q-2 8 6 10l37 11q45 15 107 15q86 0 136.5 -52.5t50.5 -142.5v-283q0 -8 -8 -8h-23q-8 0 -8 8v53q-1 9 -6 9t-11 -9q-54 -71 -169 -71q-72 0 -113 37.5 t-41 103.5zM91 132q0 -48 29.5 -75t83.5 -27q85 0 133 49.5t48 137.5v17h-164q-65 0 -97.5 -27.5t-32.5 -74.5zM149 675q0 32 31 32t31 -32t-31 -32t-31 32zM290 675q0 32 31 32t31 -32t-31 -32t-31 32z" />
<glyph unicode="&#x4d4;" horiz-adv-x="903" d="M48 9l221 524q34 86 49 143q1 7 9 7h507q9 0 6 -9l-7 -23q-1 -7 -9 -7h-432q-12 0 -10 -16q10 -44 35 -100l65 -157h286q8 0 8 -8v-24q0 -8 -8 -8h-269l124 -291h217q8 0 8 -8v-24q0 -8 -8 -8h-240q-7 0 -10 6l-78 189h-341l-78 -189q-3 -6 -10 -6h-29q-10 0 -6 9z M188 236h306l-113 269q-21 51 -34 104q-1 6 -5.5 6t-5.5 -6q-14 -56 -36 -104z" />
<glyph unicode="&#x4d5;" horiz-adv-x="827" d="M49 134q0 65 44 102t123 37h169v26q0 67 -38 106t-106 39q-52 0 -97 -12l-34 -11q-8 -3 -11 5l-8 23q-2 8 6 10l37 11q51 15 107 15q124 0 166 -106q9 -14 17 0q52 107 173 107q90 0 133 -40t43 -98q0 -54 -36 -85t-113 -45l-192 -32q9 -70 52 -112.5t113 -42.5 q54 0 100 13l26 8q8 2 10 -6l7 -23q2 -8 -6 -10l-25 -7q-54 -16 -112 -16q-131 0 -181 118q-9 16 -15 0q-50 -118 -198 -118q-72 0 -113 39t-41 105zM91 134q0 -47 30 -75.5t83 -28.5q92 0 136.5 49.5t44.5 154.5h-170q-59 0 -91.5 -26t-32.5 -74zM429 225l187 33 q114 17 114 90q0 39 -31.5 68t-101.5 29q-80 0 -124 -55.5t-44 -164.5z" />
<glyph unicode="&#x4d6;" horiz-adv-x="597" d="M93 8v667q0 8 8 8h427q9 0 6 -9l-6 -23q-1 -7 -9 -7h-383v-273h327q8 0 8 -8v-24q0 -8 -8 -8h-327v-291h398q8 0 8 -8v-24q0 -8 -8 -8h-433q-8 0 -8 8zM206 841v13q0 8 8 8h23q8 0 8 -8v-12q0 -51 72 -51t72 51v12q0 8 8 8h22q8 0 8 -8v-13q0 -88 -110 -88 q-111 0 -111 88z" />
<glyph unicode="&#x4d7;" horiz-adv-x="495" d="M54 238q0 115 57 181.5t155 66.5q83 0 129 -38t46 -105q0 -99 -127 -121l-214 -36q10 -74 53.5 -114.5t112.5 -40.5q59 0 99 13l24 8q8 2 11 -6l7 -23q3 -8 -5 -10l-25 -7q-52 -16 -111 -16q-99 0 -155.5 66.5t-56.5 181.5zM96 225l210 36q93 17 93 82q0 49 -35 75.5 t-98 26.5q-81 0 -125 -56t-45 -164zM146 669v24q0 8 8 8h23q8 0 8 -8v-24q0 -29 18.5 -45t52.5 -16t52.5 16t18.5 45v24q0 8 8 8h23q8 0 8 -8v-24q0 -45 -29 -70.5t-81 -25.5t-81 25.5t-29 70.5z" />
<glyph unicode="&#x4d8;" horiz-adv-x="629" d="M59 176q0 76 44 119t139 60l280 51q-15 120 -73.5 183t-156.5 63q-69 0 -145 -29l-31 -12q-8 -3 -11 5l-8 24q-2 7 5 10l31 11q87 32 159 32q131 0 204.5 -93.5t73.5 -260.5q0 -164 -74.5 -256.5t-205.5 -92.5q-109 0 -170 49.5t-61 136.5zM102 176q0 -67 50 -105.5 t138 -38.5q115 0 175.5 85t60.5 250l-276 -52q-77 -14 -112.5 -47t-35.5 -92z" />
<glyph unicode="&#x4d9;" horiz-adv-x="491" d="M49 133q0 98 128 121l214 36q-10 74 -53.5 114.5t-112.5 40.5q-54 0 -99 -13l-24 -8q-8 -2 -11 6l-7 23q-3 8 5 10l25 7q52 16 111 16q99 0 155.5 -66.5t56.5 -182.5q0 -114 -57 -180.5t-155 -66.5q-83 0 -129.5 38t-46.5 105zM92 133q0 -49 35 -75.5t98 -26.5 q81 0 125 55.5t45 163.5l-210 -35q-93 -17 -93 -82z" />
<glyph unicode="&#x4da;" horiz-adv-x="629" d="M59 176q0 76 44 119t139 60l280 51q-15 120 -73.5 183t-156.5 63q-69 0 -145 -29l-31 -12q-8 -3 -11 5l-8 24q-2 7 5 10l31 11q87 32 159 32q131 0 204.5 -93.5t73.5 -260.5q0 -164 -74.5 -256.5t-205.5 -92.5q-109 0 -170 49.5t-61 136.5zM102 176q0 -67 50 -105.5 t138 -38.5q115 0 175.5 85t60.5 250l-276 -52q-77 -14 -112.5 -47t-35.5 -92zM208 812q0 30 30 30q14 0 22.5 -8.5t8.5 -21.5q0 -14 -8.5 -22.5t-22.5 -8.5q-30 0 -30 31zM337 812q0 30 30 30q14 0 22.5 -8.5t8.5 -21.5q0 -14 -8.5 -22.5t-22.5 -8.5q-30 0 -30 31z" />
<glyph unicode="&#x4db;" horiz-adv-x="491" d="M49 133q0 98 128 121l214 36q-10 74 -53.5 114.5t-112.5 40.5q-54 0 -99 -13l-24 -8q-8 -2 -11 6l-7 23q-3 8 5 10l25 7q52 16 111 16q99 0 155.5 -66.5t56.5 -182.5q0 -114 -57 -180.5t-155 -66.5q-83 0 -129.5 38t-46.5 105zM92 133q0 -49 35 -75.5t98 -26.5 q81 0 125 55.5t45 163.5l-210 -35q-93 -17 -93 -82zM131 674q0 32 31 32t31 -32t-31 -32t-31 32zM272 674q0 32 31 32t31 -32t-31 -32t-31 32z" />
<glyph unicode="&#x4dc;" horiz-adv-x="912" d="M60 10l125 187q84 121 151 149q14 6 0 12q-31 15 -71 53t-72 84l-121 178q-7 10 5 10h31q6 0 9 -5l108 -157q103 -150 188 -150h22v304q0 8 8 8h26q8 0 8 -8v-304h22q86 0 189 150l108 157q3 5 9 5h31q12 0 5 -10l-121 -178q-32 -45 -72.5 -83.5t-71.5 -53.5 q-12 -6 0 -12q69 -28 151 -149l125 -187q5 -10 -6 -10h-31q-6 0 -9 5l-112 168q-47 71 -93.5 114.5t-100.5 43.5h-23v-323q0 -8 -8 -8h-26q-8 0 -8 8v323h-23q-91 0 -193 -158l-112 -168q-3 -5 -9 -5h-32q-11 0 -6 10zM361 812q0 30 30 30q14 0 22.5 -8.5t8.5 -21.5 q0 -14 -8.5 -22.5t-22.5 -8.5q-30 0 -30 31zM490 812q0 30 30 30q14 0 22.5 -8.5t8.5 -21.5q0 -14 -8.5 -22.5t-22.5 -8.5q-30 0 -30 31z" />
<glyph unicode="&#x4dd;" horiz-adv-x="721" d="M61 10l92 131q51 75 103 96q13 4 0 9q-43 17 -98 94l-90 126q-7 10 5 10h32q5 0 10 -5l75 -107q76 -104 134 -104h16v208q0 8 8 8h25q8 0 8 -8v-208h16q60 0 134 104l75 107q5 5 10 5h31q12 0 5 -10l-89 -126q-53 -77 -98 -94q-12 -5 0 -9q51 -21 104 -96l91 -131 q7 -10 -5 -10h-31q-5 0 -10 5l-79 115q-73 101 -137 101h-17v-213q0 -8 -8 -8h-25q-8 0 -8 8v213h-17q-66 0 -137 -101l-79 -115q-5 -5 -10 -5h-31q-12 0 -5 10zM260 674q0 32 31 32t31 -32t-31 -32t-31 32zM401 674q0 32 31 32t31 -32t-31 -32t-31 32z" />
<glyph unicode="&#x4de;" horiz-adv-x="600" d="M67 37l8 24q2 7 10 5l52 -15q68 -20 152 -20q92 0 147.5 39.5t55.5 107.5q0 73 -60 113t-149 40h-88q-8 0 -8 8v24q0 8 8 8h88q82 0 134.5 41t52.5 101q0 62 -49 101t-128 39q-91 0 -155 -19l-46 -15q-8 -2 -10 6l-7 24q-2 8 6 10l44 13q73 21 167 21q100 0 161 -49.5 t61 -129.5q0 -50 -31 -91.5t-86 -63.5q-17 -7 1 -12q64 -20 100.5 -66t36.5 -104q0 -86 -67 -136.5t-179 -50.5q-89 0 -164 21l-53 16q-8 2 -5 10zM193 812q0 30 30 30q14 0 22.5 -8.5t8.5 -21.5q0 -14 -8.5 -22.5t-22.5 -8.5q-30 0 -30 31zM322 812q0 30 30 30 q14 0 22.5 -8.5t8.5 -21.5q0 -14 -8.5 -22.5t-22.5 -8.5q-30 0 -30 31z" />
<glyph unicode="&#x4df;" horiz-adv-x="466" d="M56 26l8 24q2 7 10 5l38 -11q50 -13 112 -13q65 0 105 26.5t40 69.5t-43 69t-106 26h-57q-8 0 -8 8v23q0 8 8 8h57q60 0 96.5 25t36.5 67q0 40 -35 66t-92 26q-62 0 -114 -12l-33 -9q-8 -2 -10 6l-7 23q-2 8 6 10l34 8q62 15 123 15q77 0 124 -36t47 -94 q0 -36 -20.5 -65.5t-61.5 -42.5q-6 -2 -6 -5t6 -5q44 -13 71 -43t27 -70q0 -61 -51.5 -98t-136.5 -37q-54 0 -122 16l-40 10q-8 2 -6 10zM121 674q0 32 31 32t31 -32t-31 -32t-31 32zM262 674q0 32 31 32t31 -32t-31 -32t-31 32z" />
<glyph unicode="&#x4e0;" horiz-adv-x="599" d="M62 38l8 23q2 7 10 5l52 -15q65 -19 152 -19q96 0 149 39t53 110t-58 111.5t-161 40.5h-50q-8 0 -8 8v27q0 6 4 10q22 22 62 69l117 140q21 26 44 45q8 7 6.5 11t-10.5 3q-24 -2 -63 -2h-277q-8 0 -8 8v23q0 8 8 8h406q6 0 9 -5l6 -11q4 -6 -1 -11q-44 -39 -86 -87 l-118 -144q-26 -32 -40 -43q-5 -4 -3.5 -6.5t6.5 -2.5q120 -1 189.5 -52.5t69.5 -139.5t-66 -139.5t-180 -51.5q-84 0 -165 22l-52 16q-8 2 -5 10z" />
<glyph unicode="&#x4e1;" horiz-adv-x="469" d="M47 -180l8 23q2 7 10 5l38 -12q51 -14 108 -14q79 0 123 39t44 108q0 73 -47.5 114t-132.5 41h-45q-8 0 -8 8v26q0 6 4 10q25 28 51 66l98 144q2 3 9 12.5t14.5 19t13.5 15.5q6 7 4.5 10.5t-9.5 2.5q-21 -2 -56 -2h-210q-8 0 -8 8v24q0 8 8 8h327q7 0 12 -8t0 -13 q-12 -13 -24 -29t-27 -37t-19 -27l-99 -145q-20 -30 -35 -45q-9 -9 2 -9q103 -1 161 -52t58 -141q0 -89 -55.5 -139t-153.5 -50q-64 0 -120 17l-39 12q-8 2 -5 10z" />
<glyph unicode="&#x4e2;" horiz-adv-x="696" d="M93 8v667q0 8 8 8h28q8 0 8 -8v-523q0 -41 -6 -73q-1 -7 4 -8t7 4q9 22 31 55l321 450q38 57 58 97q3 6 10 6h33q8 0 8 -8v-667q0 -8 -8 -8h-27q-8 0 -8 8v522q0 48 5 73q1 4 -1 6.5t-5 2t-4 -4.5q-9 -23 -32 -56l-321 -450q-35 -47 -57 -95q-3 -6 -10 -6h-34q-8 0 -8 8z M218 797v21q0 8 8 8h254q8 0 8 -8v-21q0 -8 -8 -8h-254q-8 0 -8 8z" />
<glyph unicode="&#x4e3;" horiz-adv-x="549" d="M83 8v460q0 8 8 8h27q8 0 8 -8v-335q0 -25 -5 -65q-1 -4 1 -6t4 0q3 2 5 8q10 19 23 38l216 293q24 34 41 69q3 6 10 6h36q8 0 8 -8v-460q0 -8 -8 -8h-25q-8 0 -8 8v335q0 44 4 65q0 2 -0.5 4t-1.5 3t-2 0q-3 -1 -5 -8q-16 -29 -25 -41l-216 -293q-23 -32 -41 -67 q-3 -6 -10 -6h-36q-8 0 -8 8zM157 631v21q0 8 8 8h221q8 0 8 -8v-21q0 -8 -8 -8h-221q-8 0 -8 8z" />
<glyph unicode="&#x4e4;" horiz-adv-x="696" d="M93 8v667q0 8 8 8h28q8 0 8 -8v-523q0 -41 -6 -73q-1 -7 4 -8t7 4q9 22 31 55l321 450q38 57 58 97q3 6 10 6h33q8 0 8 -8v-667q0 -8 -8 -8h-27q-8 0 -8 8v522q0 48 5 73q1 4 -1 6.5t-5 2t-4 -4.5q-9 -23 -32 -56l-321 -450q-35 -47 -57 -95q-3 -6 -10 -6h-34q-8 0 -8 8z M259 812q0 30 30 30q14 0 22.5 -8.5t8.5 -21.5q0 -14 -8.5 -22.5t-22.5 -8.5q-30 0 -30 31zM388 812q0 30 30 30q14 0 22.5 -8.5t8.5 -21.5q0 -14 -8.5 -22.5t-22.5 -8.5q-30 0 -30 31z" />
<glyph unicode="&#x4e5;" horiz-adv-x="549" d="M83 8v460q0 8 8 8h27q8 0 8 -8v-335q0 -25 -5 -65q-1 -4 1 -6t4 0q3 2 5 8q10 19 23 38l216 293q24 34 41 69q3 6 10 6h36q8 0 8 -8v-460q0 -8 -8 -8h-25q-8 0 -8 8v335q0 44 4 65q0 2 -0.5 4t-1.5 3t-2 0q-3 -1 -5 -8q-16 -29 -25 -41l-216 -293q-23 -32 -41 -67 q-3 -6 -10 -6h-36q-8 0 -8 8zM174 674q0 32 31 32t31 -32t-31 -32t-31 32zM315 674q0 32 31 32t31 -32t-31 -32t-31 32z" />
<glyph unicode="&#x4e6;" d="M59 342q0 162 75.5 256.5t206.5 94.5q132 0 207 -94t75 -257q0 -164 -75 -258t-207 -94q-131 0 -206.5 94t-75.5 258zM103 342q0 -147 62.5 -228.5t175.5 -81.5t176 82t63 228t-63 228t-176 82t-175.5 -82t-62.5 -228zM247 812q0 30 30 30q14 0 22.5 -8.5t8.5 -21.5 q0 -14 -8.5 -22.5t-22.5 -8.5q-30 0 -30 31zM376 812q0 30 30 30q14 0 22.5 -8.5t8.5 -21.5q0 -14 -8.5 -22.5t-22.5 -8.5q-30 0 -30 31z" />
<glyph unicode="&#x4e7;" horiz-adv-x="531" d="M54 238q0 115 57 181.5t155 66.5t155 -66.5t57 -181.5q0 -114 -57 -181t-155 -67t-155 67t-57 181zM96 238q0 -97 45.5 -152t124.5 -55t124 55t45 152t-44.5 152t-124.5 55t-125 -55t-45 -152zM164 674q0 32 31 32t31 -32t-31 -32t-31 32zM305 674q0 32 31 32t31 -32 t-31 -32t-31 32z" />
<glyph unicode="&#x4e8;" d="M59 342q0 162 75.5 256.5t206.5 94.5q132 0 207 -94t75 -257q0 -164 -75 -258t-207 -94q-131 0 -206.5 94t-75.5 258zM103 331q2 -141 64.5 -219.5t173.5 -78.5t174 79t65 219h-477zM104 371h475q-6 133 -68.5 207t-169.5 74t-169 -74t-68 -207z" />
<glyph unicode="&#x4e9;" horiz-adv-x="532" d="M54 238q0 115 57 181.5t155 66.5t155 -66.5t57 -181.5q0 -114 -57 -181t-155 -67t-155 67t-57 181zM96 221q5 -89 49.5 -139.5t120.5 -50.5t120 50t49 140h-339zM97 260h337q-4 88 -48.5 136.5t-119.5 48.5t-119.5 -48.5t-49.5 -136.5z" />
<glyph unicode="&#x4ea;" d="M59 342q0 162 75.5 256.5t206.5 94.5q132 0 207 -94t75 -257q0 -164 -75 -258t-207 -94q-131 0 -206.5 94t-75.5 258zM103 331q2 -141 64.5 -219.5t173.5 -78.5t174 79t65 219h-477zM104 371h475q-6 133 -68.5 207t-169.5 74t-169 -74t-68 -207zM249 812q0 30 30 30 q14 0 22.5 -8.5t8.5 -21.5q0 -14 -8.5 -22.5t-22.5 -8.5q-30 0 -30 31zM378 812q0 30 30 30q14 0 22.5 -8.5t8.5 -21.5q0 -14 -8.5 -22.5t-22.5 -8.5q-30 0 -30 31z" />
<glyph unicode="&#x4eb;" horiz-adv-x="532" d="M54 238q0 115 57 181.5t155 66.5t155 -66.5t57 -181.5q0 -114 -57 -181t-155 -67t-155 67t-57 181zM96 221q5 -89 49.5 -139.5t120.5 -50.5t120 50t49 140h-339zM97 260h337q-4 88 -48.5 136.5t-119.5 48.5t-119.5 -48.5t-49.5 -136.5zM166 683q0 32 31 32t31 -32 t-31 -32t-31 32zM307 683q0 32 31 32t31 -32t-31 -32t-31 32z" />
<glyph unicode="&#x4ec;" horiz-adv-x="596" d="M67 42l8 23q3 7 11 4l39 -14q62 -23 129 -23q111 0 174 79t65 220h-335q-8 0 -8 8v24q0 8 8 8h334q-6 133 -68 207t-170 74q-73 -1 -126 -22l-42 -15q-6 -3 -10 4l-9 23q-3 8 5 11l41 15q66 25 141 25q132 0 207.5 -94t75.5 -257t-75.5 -257.5t-207.5 -94.5 q-71 0 -143 27l-39 14q-8 3 -5 11zM167 812q0 30 30 30q14 0 22.5 -8.5t8.5 -21.5q0 -14 -8.5 -22.5t-22.5 -8.5q-30 0 -30 31zM296 812q0 30 30 30q14 0 22.5 -8.5t8.5 -21.5q0 -14 -8.5 -22.5t-22.5 -8.5q-30 0 -30 31z" />
<glyph unicode="&#x4ed;" horiz-adv-x="468" d="M61 25l8 23q2 7 10 5l25 -8q45 -14 91 -14q82 0 127 49.5t50 140.5h-236q-8 0 -8 8v23q0 8 8 8h235q-5 89 -50 137t-129 48q-41 0 -82 -12l-25 -8q-7 -2 -10 5l-8 23q-3 8 5 10l26 7q59 16 95 16q107 0 164 -65.5t57 -182.5q0 -116 -57 -182t-163 -66q-48 0 -102 18 l-25 7q-8 2 -6 10zM121 674q0 32 31 32t31 -32t-31 -32t-31 32zM262 674q0 32 31 32t31 -32t-31 -32t-31 32z" />
<glyph unicode="&#x4ee;" horiz-adv-x="644" d="M44 674q-5 9 6 9h29q6 0 9 -6l194 -375q34 -67 42 -104q2 -5 6 -5t6 5q22 56 45 104l185 375q3 6 10 6h28q11 0 6 -9l-247 -502q-2 -4 -11.5 -24.5t-13 -27t-13.5 -25t-16.5 -26t-18 -21.5t-22 -20t-25 -14t-30.5 -11t-35 -3h-35q-8 0 -8 8v24q0 8 8 8h35q50 0 81.5 34.5 t31.5 74.5q0 25 -7.5 49t-32.5 73zM191 798v21q0 8 8 8h254q8 0 8 -8v-21q0 -8 -8 -8h-254q-8 0 -8 8z" />
<glyph unicode="&#x4ef;" horiz-adv-x="535" d="M44 467q-5 9 5 9h28q7 0 10 -6l146 -302q24 -47 31 -85q2 -6 6.5 -6t6.5 6q12 38 34 85l138 302q3 6 10 6h27q10 0 6 -9l-264 -577q-46 -100 -134 -100h-21q-8 0 -8 8v24q0 8 8 8h21q60 0 94 73l33 73q30 63 -13 152zM150 631v21q0 8 8 8h221q8 0 8 -8v-21q0 -8 -8 -8 h-221q-8 0 -8 8z" />
<glyph unicode="&#x4f0;" horiz-adv-x="644" d="M44 674q-5 9 6 9h29q6 0 9 -6l194 -375q34 -67 42 -104q2 -5 6 -5t6 5q22 56 45 104l185 375q3 6 10 6h28q11 0 6 -9l-247 -502q-2 -4 -11.5 -24.5t-13 -27t-13.5 -25t-16.5 -26t-18 -21.5t-22 -20t-25 -14t-30.5 -11t-35 -3h-35q-8 0 -8 8v24q0 8 8 8h35q50 0 81.5 34.5 t31.5 74.5q0 25 -7.5 49t-32.5 73zM232 812q0 30 30 30q14 0 22.5 -8.5t8.5 -21.5q0 -14 -8.5 -22.5t-22.5 -8.5q-30 0 -30 31zM361 812q0 30 30 30q14 0 22.5 -8.5t8.5 -21.5q0 -14 -8.5 -22.5t-22.5 -8.5q-30 0 -30 31z" />
<glyph unicode="&#x4f1;" horiz-adv-x="535" d="M44 467q-5 9 5 9h28q7 0 10 -6l146 -302q24 -47 31 -85q2 -6 6.5 -6t6.5 6q12 38 34 85l138 302q3 6 10 6h27q10 0 6 -9l-264 -577q-46 -100 -134 -100h-21q-8 0 -8 8v24q0 8 8 8h21q60 0 94 73l33 73q30 63 -13 152zM167 674q0 32 31 32t31 -32t-31 -32t-31 32zM308 674 q0 32 31 32t31 -32t-31 -32t-31 32z" />
<glyph unicode="&#x4f2;" horiz-adv-x="644" d="M44 674q-5 9 6 9h29q6 0 9 -6l194 -375q34 -67 42 -104q2 -5 6 -5t6 5q22 56 45 104l185 375q3 6 10 6h28q11 0 6 -9l-247 -502q-2 -4 -11.5 -24.5t-13 -27t-13.5 -25t-16.5 -26t-18 -21.5t-22 -20t-25 -14t-30.5 -11t-35 -3h-35q-8 0 -8 8v24q0 8 8 8h35q50 0 81.5 34.5 t31.5 74.5q0 25 -7.5 49t-32.5 73zM241 774l48 83q3 5 9 5h34q12 0 5 -10l-58 -83q-5 -5 -10 -5h-23q-12 0 -5 10zM365 774l49 83q3 5 9 5h34q12 0 5 -10l-58 -83q-5 -5 -10 -5h-24q-12 0 -5 10z" />
<glyph unicode="&#x4f3;" horiz-adv-x="535" d="M44 467q-5 9 5 9h28q7 0 10 -6l146 -302q24 -47 31 -85q2 -6 6.5 -6t6.5 6q12 38 34 85l138 302q3 6 10 6h27q10 0 6 -9l-264 -577q-46 -100 -134 -100h-21q-8 0 -8 8v24q0 8 8 8h21q60 0 94 73l33 73q30 63 -13 152zM187 591l49 104q3 6 10 6h29q11 0 6 -10l-57 -103 q-3 -6 -9 -6h-22q-10 0 -6 9zM305 591l50 104q3 6 10 6h28q11 0 6 -10l-58 -103q-3 -6 -9 -6h-21q-11 0 -6 9z" />
<glyph unicode="&#x4f4;" horiz-adv-x="636" d="M69 467v208q0 8 8 8h27q8 0 8 -8v-206q0 -84 43.5 -130.5t121.5 -46.5q74 0 131 19l92 29v335q0 8 8 8h26q8 0 8 -8v-667q0 -8 -8 -8h-26q-8 0 -8 8v289l-77 -25q-67 -22 -146 -22q-98 0 -153 57.5t-55 159.5zM212 812q0 30 30 30q14 0 22.5 -8.5t8.5 -21.5 q0 -14 -8.5 -22.5t-22.5 -8.5q-30 0 -30 31zM341 812q0 30 30 30q14 0 22.5 -8.5t8.5 -21.5q0 -14 -8.5 -22.5t-22.5 -8.5q-30 0 -30 31z" />
<glyph unicode="&#x4f5;" horiz-adv-x="507" d="M59 322v146q0 8 8 8h25q8 0 8 -8v-142q0 -55 32 -85.5t89 -30.5q54 0 94 12l67 20v226q0 8 8 8h26q8 0 8 -8v-460q0 -8 -8 -8h-26q-8 0 -8 8v192l-55 -16q-50 -15 -108 -15q-75 0 -117.5 40.5t-42.5 112.5zM139 674q0 32 31 32t31 -32t-31 -32t-31 32zM280 674 q0 32 31 32t31 -32t-31 -32t-31 32z" />
<glyph unicode="&#x4f6;" horiz-adv-x="563" d="M93 8v667q0 8 8 8h403q9 0 6 -9l-6 -23q-1 -7 -9 -7h-359v-604h50q8 0 8 -8v-209q0 -8 -8 -8h-26q-8 0 -8 8v177h-51q-8 0 -8 8z" />
<glyph unicode="&#x4f7;" horiz-adv-x="431" d="M83 8v460q0 8 8 8h288q9 0 6 -9l-7 -24q-1 -7 -9 -7h-244v-396h40q8 0 8 -8v-175q0 -8 -8 -8h-25q-8 0 -8 8v143h-41q-8 0 -8 8z" />
<glyph unicode="&#x4f8;" horiz-adv-x="808" d="M93 8v667q0 8 8 8h27q8 0 8 -8v-267h139q283 0 283 -208q0 -95 -58 -147.5t-163 -52.5h-236q-8 0 -8 8zM136 39h201q83 0 130.5 42.5t47.5 118.5q0 168 -240 168h-139v-329zM305 812q0 30 30 30q14 0 22.5 -8.5t8.5 -21.5q0 -14 -8.5 -22.5t-22.5 -8.5q-30 0 -30 31z M434 812q0 30 30 30q14 0 22.5 -8.5t8.5 -21.5q0 -14 -8.5 -22.5t-22.5 -8.5q-30 0 -30 31zM671 8v667q0 8 8 8h27q8 0 8 -8v-667q0 -8 -8 -8h-27q-8 0 -8 8z" />
<glyph unicode="&#x4f9;" horiz-adv-x="657" d="M83 8v460q0 8 8 8h26q8 0 8 -8v-172h86q105 0 163.5 -40t58.5 -113q0 -68 -44 -105.5t-123 -37.5h-175q-8 0 -8 8zM125 40h141q59 0 91.5 27t32.5 76q0 53 -47.5 83.5t-131.5 30.5h-86v-217zM224 674q0 32 31 32t31 -32t-31 -32t-31 32zM365 674q0 32 31 32t31 -32 t-31 -32t-31 32zM532 8v460q0 8 8 8h25q8 0 8 -8v-460q0 -8 -8 -8h-25q-8 0 -8 8z" />
<glyph unicode="&#x2000;" horiz-adv-x="454" />
<glyph unicode="&#x2001;" horiz-adv-x="909" />
<glyph unicode="&#x2002;" horiz-adv-x="454" />
<glyph unicode="&#x2003;" horiz-adv-x="909" />
<glyph unicode="&#x2004;" horiz-adv-x="303" />
<glyph unicode="&#x2005;" horiz-adv-x="227" />
<glyph unicode="&#x2006;" horiz-adv-x="151" />
<glyph unicode="&#x2007;" horiz-adv-x="151" />
<glyph unicode="&#x2008;" horiz-adv-x="113" />
<glyph unicode="&#x2009;" horiz-adv-x="181" />
<glyph unicode="&#x200a;" horiz-adv-x="50" />
<glyph unicode="&#x2010;" horiz-adv-x="442" d="M85 251v24q0 8 8 8h256q8 0 8 -8v-24q0 -8 -8 -8h-256q-8 0 -8 8z" />
<glyph unicode="&#x2011;" horiz-adv-x="442" d="M85 251v24q0 8 8 8h256q8 0 8 -8v-24q0 -8 -8 -8h-256q-8 0 -8 8z" />
<glyph unicode="&#x2012;" horiz-adv-x="442" d="M85 251v24q0 8 8 8h256q8 0 8 -8v-24q0 -8 -8 -8h-256q-8 0 -8 8z" />
<glyph unicode="&#x2013;" horiz-adv-x="666" d="M85 251v24q0 8 8 8h480q8 0 8 -8v-24q0 -8 -8 -8h-480q-8 0 -8 8z" />
<glyph unicode="&#x2014;" horiz-adv-x="775" d="M85 251v24q0 8 8 8h589q8 0 8 -8v-24q0 -8 -8 -8h-589q-8 0 -8 8z" />
<glyph unicode="&#x2018;" horiz-adv-x="179" d="M52 607q0 21 17 49l26 45h37l-28 -49q-9 -11 3 -17q20 -8 20 -32q0 -17 -10 -27.5t-27 -10.5q-38 0 -38 42z" />
<glyph unicode="&#x2019;" horiz-adv-x="179" d="M47 570l28 49q9 11 -3 17q-20 8 -20 32q0 17 10 27.5t27 10.5q38 0 38 -42q0 -21 -17 -49l-26 -45h-37z" />
<glyph unicode="&#x201a;" horiz-adv-x="179" d="M47 -67l28 49q9 11 -3 17q-20 8 -20 32q0 17 10 27.5t27 10.5q38 0 38 -42q0 -21 -17 -49l-26 -45h-37z" />
<glyph unicode="&#x201c;" horiz-adv-x="304" d="M52 607q0 21 17 49l26 45h37l-28 -49q-9 -11 3 -17q20 -8 20 -32q0 -17 -10 -27.5t-27 -10.5q-38 0 -38 42zM177 607q0 21 17 49l26 45h37l-28 -49q-9 -11 3 -17q20 -8 20 -32q0 -17 -10 -27.5t-27 -10.5q-38 0 -38 42z" />
<glyph unicode="&#x201d;" horiz-adv-x="305" d="M47 570l28 49q9 11 -3 17q-20 8 -20 32q0 17 10 27.5t27 10.5q38 0 38 -42q0 -21 -17 -49l-26 -45h-37zM173 570l28 49q9 11 -3 17q-20 8 -20 32q0 17 10 27.5t27 10.5q38 0 38 -42q0 -21 -17 -49l-26 -45h-37z" />
<glyph unicode="&#x201e;" horiz-adv-x="305" d="M47 -67l28 49q9 11 -3 17q-20 8 -20 32q0 17 10 27.5t27 10.5q38 0 38 -42q0 -21 -17 -49l-26 -45h-37zM173 -67l28 49q9 11 -3 17q-20 8 -20 32q0 17 10 27.5t27 10.5q38 0 38 -42q0 -21 -17 -49l-26 -45h-37z" />
<glyph unicode="&#x2026;" horiz-adv-x="479" d="M69 30q0 39 37 39q38 0 38 -39q0 -40 -38 -40q-37 0 -37 40zM207 30q0 39 37 39q38 0 38 -39q0 -40 -38 -40q-37 0 -37 40zM345 30q0 39 37 39q38 0 38 -39q0 -40 -38 -40q-37 0 -37 40z" />
<glyph unicode="&#x202f;" horiz-adv-x="181" />
<glyph unicode="&#x2039;" horiz-adv-x="357" d="M84 234v7q0 6 4 10l130 156q4 5 10 5h32q5 0 6.5 -3t-1.5 -7l-135 -164l135 -164q3 -4 1.5 -7t-6.5 -3h-32q-6 0 -10 5l-130 155q-4 4 -4 10z" />
<glyph unicode="&#x203a;" horiz-adv-x="357" d="M92 74l135 164l-135 164q-7 10 5 10h32q6 0 10 -5l130 -156q4 -4 4 -10v-7q0 -6 -4 -10l-130 -155q-4 -5 -10 -5h-32q-12 0 -5 10z" />
<glyph unicode="&#x205f;" horiz-adv-x="227" />
<glyph unicode="&#x20ac;" horiz-adv-x="661" d="M49 278v21q0 8 8 8h68q-1 11 -1 35q0 28 1 42h-68q-8 0 -8 8v22q0 8 8 8h72q18 128 91 199.5t187 71.5q75 0 141 -25l41 -15q8 -3 5 -11l-9 -23q-4 -7 -10 -4l-42 15q-53 21 -126 22q-97 0 -157 -60t-77 -170h270q11 0 7 -9l-8 -23q-2 -6 -9 -6h-264q-1 -14 -1 -42 q0 -24 1 -35h235q11 0 7 -9l-8 -22q-1 -6 -9 -6h-222q15 -113 76 -175.5t159 -62.5q67 0 129 23l39 14q7 3 11 -4l8 -23q3 -8 -4 -11l-40 -14q-72 -27 -143 -27q-116 0 -189 74.5t-90 205.5h-71q-8 0 -8 8z" />
<glyph unicode="&#x2122;" horiz-adv-x="878" d="M24 654v21q0 8 8 8h312q8 0 8 -8v-21q0 -8 -8 -8h-137v-335q0 -8 -8 -8h-23q-8 0 -8 8v335h-136q-8 0 -8 8zM433 311v364q0 8 8 8h40q7 0 9 -6q12 -29 20 -42l88 -174q2 -6 10 -23.5t11 -25.5q3 -10 7 0q6 18 22 49l88 174q10 21 18 42q3 6 10 6h41q8 0 8 -8v-364 q0 -8 -8 -8h-24q-8 0 -8 8v233q0 46 4 75q0 3 -0.5 5t-1.5 2.5t-3 -0.5t-2.5 -4t-1.5 -4t-8 -17t-11 -24l-86 -168q-16 -32 -22 -47q-1 -7 -9 -7h-18q-7 0 -10 6q-6 16 -22 48l-85 168q-3 8 -22 45q-3 6 -5.5 4.5t-1.5 -7.5q3 -22 3 -75v-233q0 -8 -8 -8h-22q-8 0 -8 8z" />
<glyph unicode="&#xe000;" horiz-adv-x="475" d="M0 0v475h475v-475h-475z" />
</font>
</defs>
</svg>
