<?xml version="1.0" standalone="no"?>
<!DOCTYPE svg PUBLIC "-//W3C//DTD SVG 1.1//EN" "http://www.w3.org/Graphics/SVG/1.1/DTD/svg11.dtd" >
<svg xmlns="http://www.w3.org/2000/svg" xmlns:xlink="http://www.w3.org/1999/xlink" version="1.1">
<metadata></metadata>
<defs>
<font id="neristhin_italic" horiz-adv-x="1398" >
<font-face units-per-em="2048" ascent="1546" descent="-502" />
<missing-glyph horiz-adv-x="448" />
<glyph horiz-adv-x="0" />
<glyph unicode="&#xd;" horiz-adv-x="759" />
<glyph unicode=" "  horiz-adv-x="448" />
<glyph unicode="&#x09;" horiz-adv-x="448" />
<glyph unicode="&#xa0;" horiz-adv-x="448" />
<glyph unicode="!" horiz-adv-x="456" d="M94 66q13 75 82 75q39 0 58 -23t12 -61q-4 -37 -26.5 -57t-57.5 -20q-38 0 -56 23t-12 63zM168 305q12 68 29 208.5t28 207.5l107 665q3 15 16 15h53q17 0 17 -19l-107 -661q-13 -79 -42 -230.5t-36 -189.5q-3 -14 -16 -14h-33q-16 0 -16 18z" />
<glyph unicode="&#x22;" horiz-adv-x="575" d="M244 1174q5 139 12 182l10 65q3 15 17 15h75q20 0 17 -19l-10 -61q-4 -24 -22 -90.5t-24 -94.5q-6 -14 -18 -14h-41q-16 0 -16 17zM475 1174q5 139 12 182l11 65q3 15 16 15h76q19 0 16 -19l-10 -61q-4 -25 -21.5 -91t-23.5 -94q-6 -14 -19 -14h-40q-17 0 -17 17z" />
<glyph unicode="#" horiz-adv-x="1470" d="M117 330l8 49q3 14 16 14h217l86 615h-215q-17 0 -14 16l4 49q0 17 17 17h221l41 294q3 15 16 15h51q20 0 17 -19l-41 -290h497l41 294q3 15 17 15h51q19 0 16 -19l-41 -290h217q18 0 15 -17l-4 -49q-3 -16 -19 -16h-221l-86 -615h217q19 0 16 -18l-8 -49q-3 -15 -16 -15 h-221l-41 -297q-3 -14 -17 -14h-51q-19 0 -16 18l41 293h-498l-41 -297q-3 -14 -16 -14h-51q-20 0 -17 18l41 293h-213q-19 0 -16 19zM442 393h498l86 615h-498z" />
<glyph unicode="$" horiz-adv-x="1206" d="M76 98l24 49q9 15 23 9l59 -27q141 -58 310 -63l100 622l-109 43q-125 48 -181 118t-56 167q0 55 14.5 108t49.5 106.5t86.5 93.5t132 66.5t180.5 28.5l26 166q3 14 17 14h53q16 0 16 -18l-26 -164q114 -10 231 -47l90 -27q17 -7 8 -22l-24 -49q-5 -13 -21 -10l-86 30 q-100 33 -213 41l-94 -592l127 -51q116 -47 181 -114t65 -168q0 -70 -29.5 -140t-86.5 -132.5t-155 -105t-221 -48.5l-28 -175q-3 -14 -17 -14h-55q-16 0 -16 19l28 168q-172 7 -332 71l-63 27q-18 7 -8 20zM334 1024q0 -68 40.5 -122t145.5 -95l84 -35l90 563 q-160 -8 -260 -92.5t-100 -218.5zM580 68q91 7 166.5 39t123 78.5t73.5 100t26 107.5q0 144 -191 219l-104 43z" />
<glyph unicode="%" horiz-adv-x="1529" d="M169 6q-3 6 3 14l1159 1350q7 10 21 10h65q10 0 13 -6t-3 -14l-1159 -1350q-8 -10 -20 -10h-66q-10 0 -13 6zM233 1104q22 139 110 218t222 79q136 0 200 -78.5t42 -218.5q-23 -140 -111.5 -219.5t-222.5 -79.5q-135 0 -199 80t-41 219zM315 1104q-17 -103 27 -161 t141 -58t161 58t81 161q15 101 -30 159t-140 58q-98 0 -161.5 -57.5t-78.5 -159.5zM795 279q22 139 110.5 216.5t224.5 77.5q135 0 197.5 -77t40.5 -217q-23 -141 -111 -220t-221 -79q-137 0 -200.5 79t-40.5 220zM877 279q-17 -102 28.5 -160t143.5 -58q95 0 157.5 58 t79.5 160q17 101 -28 158t-142 57q-96 0 -159 -56.5t-80 -158.5z" />
<glyph unicode="&#x26;" horiz-adv-x="1376" d="M74 211q0 106 44.5 178.5t157.5 169.5l209 182q-106 135 -106 279q0 178 129 288.5t323 110.5q81 0 129 -9t136 -36l63 -22q18 -7 8 -23l-26 -49q-5 -13 -21 -10l-65 22q-74 25 -118.5 34t-117.5 9q-155 0 -253.5 -83.5t-98.5 -227.5q0 -114 94 -229l318 -398l24 21 q54 47 72 63.5t50.5 49t43.5 52t23.5 48t17.5 61.5l10 66h-131q-19 0 -16 18l8 47q3 15 16 15h203q20 0 17 -19l-21 -127q-16 -93 -67.5 -159t-182.5 -179l-18 -16l254 -318q6 -9 3 -14.5t-14 -5.5h-73q-14 0 -21 10l-217 269l-176 -152q-93 -83 -174 -115t-182 -32 q-120 0 -187 62.5t-67 168.5zM164 223q0 -73 46.5 -115t131.5 -42q88 0 153 25.5t144 96.5l172 150l-276 344l-213 -184q-89 -78 -123.5 -135.5t-34.5 -139.5z" />
<glyph unicode="'" horiz-adv-x="342" d="M244 1174q5 139 12 182l10 65q3 15 17 15h75q20 0 17 -19l-10 -61q-4 -24 -22 -90.5t-24 -94.5q-6 -14 -18 -14h-41q-16 0 -16 17z" />
<glyph unicode="(" horiz-adv-x="667" d="M229 313q0 291 84 594t252 592q7 10 19 10h55q9 0 12.5 -5.5t-2.5 -14.5q-163 -287 -248.5 -587.5t-85.5 -584.5q0 -250 68 -499q3 -19 -14 -19h-56q-15 0 -18 15q-66 251 -66 499z" />
<glyph unicode=")" horiz-adv-x="667" d="M69.5 -195q-3.5 6 2.5 15q163 287 248.5 587t85.5 584q0 251 -68 500q-3 18 14 18h56q15 0 18 -14q66 -251 66 -500q0 -291 -84 -593.5t-252 -591.5q-7 -11 -19 -11h-55q-9 0 -12.5 6z" />
<glyph unicode="*" horiz-adv-x="784" d="M96 1135v45q0 16 17 16h120q15 0 28.5 -1t29.5 -2.5t26 -2.5q3 0 7.5 -1t7 -1t4.5 2q0 4 -2 8q-30 38 -43 57l-90 160q-4 9 -0.5 15t12.5 6h53q12 0 19 -13l71 -123q18 -33 29 -69q3 -9 9 -9t7 9q7 33 25 65l74 127q6 13 18 13h55q9 0 13 -6t0 -15l-92 -160 q-6 -11 -43 -57q-3 -6 -2 -6q0 -2 1 -2.5t3 -0.5h4t5 0.5t5 0.5q11 1 33 3.5t32 2.5h140q16 0 16 -16v-45q0 -17 -16 -17h-137q-33 0 -80 6q-6 2 -8 -2t2 -10q5 -7 16 -19.5t19 -22t12 -17.5l88 -158q4 -9 0 -15t-13 -6h-55q-12 0 -18 13l-72 125q-13 24 -27 67 q-2 7 -4.5 9.5t-5 0t-4.5 -9.5q-19 -50 -29 -69l-69 -123q-7 -13 -19 -13h-53q-9 0 -12.5 6t0.5 15l84 149q5 11 12.5 22.5t19 26.5t15.5 21q2 4 2 8q-2 6 -19 2q-10 -1 -26 -2.5t-29.5 -2.5t-28.5 -1h-120q-17 0 -17 17z" />
<glyph unicode="+" horiz-adv-x="1302" d="M178 516l8 49q3 15 17 15h420l73 460q3 15 17 15h51q16 0 16 -19l-73 -456h417q18 0 15 -19l-9 -49q-3 -14 -16 -14h-422l-74 -461q-3 -14 -16 -14h-51q-16 0 -16 18l73 457h-415q-18 0 -15 18z" />
<glyph unicode="," horiz-adv-x="425" d="M16 -195l90 146q12 15 12 22t-16 15q-15 5 -25.5 22.5t-10.5 40.5q0 42 26 66t68 24q31 0 49 -17.5t18 -49.5q0 -61 -57 -148l-80 -131q-7 -10 -18 -10h-45q-21 0 -11 20z" />
<glyph unicode="-" horiz-adv-x="905" d="M178 516l8 49q3 15 17 15h524q17 0 14 -19l-8 -49q-3 -14 -16 -14h-524q-18 0 -15 18z" />
<glyph unicode="." horiz-adv-x="436" d="M74 66q13 75 82 75q38 0 57 -23t12 -61q-4 -37 -26.5 -57t-57.5 -20q-38 0 -55.5 23t-11.5 63z" />
<glyph unicode="/" horiz-adv-x="919" d="M-35.5 -195q-3.5 6 2.5 15l971 1679q6 12 18 12h60q9 0 12.5 -5.5t-2.5 -14.5l-971 -1679q-7 -13 -18 -13h-60q-9 0 -12.5 6z" />
<glyph unicode="0" horiz-adv-x="1280" d="M150 498q0 80 10.5 164.5t34 175.5t58 174t86.5 158t115 129.5t148 87t182 32.5q199 0 306.5 -136t107.5 -382q0 -79 -10.5 -163t-34 -174.5t-57.5 -174t-86 -158.5t-115.5 -130.5t-149 -88t-182.5 -32.5q-198 0 -305.5 136t-107.5 382zM238 496q0 -208 85 -320.5 t244 -112.5q97 0 179.5 39.5t140 107t102 152.5t70.5 180.5t38.5 186t12.5 174.5q0 208 -85.5 321t-244.5 113q-83 0 -156 -30.5t-127 -82.5t-98.5 -121.5t-73.5 -146.5t-49 -159.5t-29 -157.5t-9 -143z" />
<glyph unicode="1" horiz-adv-x="614" d="M227 1249q-3 15 11 21l294 143q14 7 23 -2l4 -2q10 -10 8 -20l-219 -1375q-3 -14 -16 -14h-53q-17 0 -17 18l184 1151q12 68 21 97q2 8 0.5 12.5t-9 5.5t-22.5 -6l-170 -86q-15 -9 -22 8z" />
<glyph unicode="2" horiz-adv-x="1155" d="M76 18l10 58q26 154 100.5 273.5t212.5 207.5l398 258q116 75 170.5 147t54.5 156q0 100 -80.5 159.5t-218.5 59.5q-157 0 -291 -43l-100 -32q-18 -7 -21 12l-8 47q-3 15 12 18l101 31q145 49 311 49q179 0 281 -75.5t102 -210.5q0 -106 -60 -198.5t-212 -189.5 l-396 -260q-225 -143 -268 -403h739q18 0 15 -19l-8 -49q-3 -14 -17 -14h-811q-16 0 -16 18z" />
<glyph unicode="3" horiz-adv-x="1128" d="M61 82l25 45q5 13 20 10l91 -31q131 -43 274 -43q184 0 304 100.5t120 262.5q0 132 -90.5 201t-235.5 69h-65q-18 0 -15 19l9 47q3 14 16 14h64q166 0 277.5 97.5t111.5 234.5q0 106 -75 167.5t-204 61.5q-138 0 -274 -39l-88 -26q-19 -4 -19 12l-10 47q-3 17 12 21 l88 24q134 43 295 43q168 0 265.5 -81t97.5 -222q0 -246 -252 -366q-30 -13 -2 -27q90 -32 136 -112.5t46 -182.5q0 -58 -16.5 -117t-56 -119t-97 -106.5t-147 -76t-199.5 -29.5q-148 0 -301 49l-96 30q-18 7 -9 23z" />
<glyph unicode="4" horiz-adv-x="1216" d="M84 436l8 53q4 13 10 19q76 71 154 149l608 613q69 72 103 119q7 10 20 10h80q16 0 16 -19l-141 -882h127q17 0 14 -19l-8 -47q-3 -14 -16 -14h-129l-66 -404q-3 -14 -16 -14h-51q-17 0 -17 18l66 400h-748q-17 0 -14 18zM219 508q-1 -5 2 -7.5t8 -2.5h629l98 618 q6 48 27 131q4 15 -3.5 17.5t-18.5 -9.5l-617 -620q-97 -97 -117 -115q-7 -7 -8 -12z" />
<glyph unicode="5" horiz-adv-x="1200" d="M84 82l22 43q5 13 21 10l88 -29q120 -43 270 -43q107 0 192.5 28.5t138.5 74t89 105.5t50 119t14 118q0 133 -83.5 203.5t-242.5 70.5q-73 0 -227 -22l-119 -15q-11 -3 -21 7l-14 16q-9 9 -6 20l96 596q3 15 17 15h725q9 0 12 -5.5t0 -13.5l-23 -49q-6 -12 -20 -12h-635 l-59 -363l-17 -90q-1 -4 -3 -10t-3 -10q-2 -7 3 -10t18 0l59 8q154 22 225 22q197 0 301.5 -91.5t104.5 -258.5q0 -73 -18 -144.5t-61 -143.5t-107 -126t-165 -88t-225 -34q-152 0 -301 49l-88 30q-18 7 -8 23z" />
<glyph unicode="6" horiz-adv-x="1220" d="M117 334q0 164 64.5 307t217.5 315l389 435q8 8 21 8h72q10 0 13 -6.5t-5 -14.5l-422 -471l-113 -125q-7 -9 -4 -13t12 -1q13 9 17 10q136 76 297 76q200 0 309 -92t109 -260q0 -72 -16.5 -141.5t-57.5 -140t-102.5 -122.5t-159 -85t-219.5 -33q-206 0 -314 91.5 t-108 262.5zM205 342q0 -134 86.5 -206.5t251.5 -72.5q103 0 185 27.5t133 71t85 101.5t47.5 113.5t14.5 112.5q0 136 -89 209.5t-255 73.5q-102 0 -183.5 -28.5t-131.5 -72.5t-83.5 -102.5t-47 -114.5t-13.5 -112z" />
<glyph unicode="7" horiz-adv-x="1157" d="M236 1337l8 47q3 15 16 15h905q15 0 21 -13l6 -16q3 -12 -4 -22q-20 -24 -39 -51t-42.5 -63.5t-35.5 -53.5l-715 -1170q-7 -10 -18 -10h-64q-20 0 -10 20l723 1182q26 42 70 92q19 25 -13 25h-792q-19 0 -16 18z" />
<glyph unicode="8" horiz-adv-x="1243" d="M106 303q0 57 19.5 117.5t57.5 120t104 109t151 75.5q24 5 24 16q-1 7 -13 11q-95 31 -142 95t-47 152q0 59 16.5 116t55 113t95.5 97.5t144.5 67.5t194.5 26q188 0 291.5 -80.5t103.5 -222.5q0 -54 -13.5 -104.5t-43.5 -101.5t-87.5 -92.5t-135.5 -65.5q-24 -6 -23 -18 q0 -6 10 -9q106 -35 166 -118t60 -187q0 -62 -18.5 -122.5t-61 -118.5t-104.5 -101.5t-156 -70.5t-209 -27q-209 0 -324 85t-115 238zM195 315q0 -120 92.5 -186t259.5 -66q98 0 178 23t131 59.5t86 84.5t49.5 96t14.5 96q0 126 -98 200t-251 74q-113 0 -205 -37t-146 -95 t-82.5 -122.5t-28.5 -126.5zM348 1001q0 -106 83.5 -164.5t232.5 -58.5q108 0 190.5 30.5t128.5 80.5t68 105t22 112q0 109 -82.5 170t-230.5 61q-90 0 -162 -21.5t-117.5 -55.5t-76.5 -79t-43.5 -90t-12.5 -90z" />
<glyph unicode="9" horiz-adv-x="1220" d="M195 897q0 72 16.5 141.5t57.5 140t102.5 122.5t159 85t219.5 33q206 0 313.5 -91.5t107.5 -262.5q0 -164 -64.5 -307.5t-217.5 -315.5l-389 -434q-8 -8 -21 -8h-71q-11 0 -13.5 6t4.5 14l535 596q7 9 4 13.5t-12 1.5q-13 -9 -17 -10q-136 -76 -297 -76q-200 0 -308.5 92 t-108.5 260zM281 909q0 -136 88.5 -209t255.5 -73q102 0 183 28.5t131.5 72.5t84 102.5t46.5 114.5t13 112q0 134 -86.5 206t-251.5 72q-103 0 -185 -27.5t-133 -71t-84.5 -101.5t-47 -113.5t-14.5 -112.5z" />
<glyph unicode=":" horiz-adv-x="413" d="M74 66q13 75 82 75q38 0 57 -23t12 -61q-4 -37 -26.5 -57t-57.5 -20q-38 0 -55.5 23t-11.5 63zM211 920q13 75 82 75q38 0 57 -23t12 -61q-5 -37 -26.5 -57t-56.5 -20q-38 0 -56 23t-12 63z" />
<glyph unicode=";" horiz-adv-x="440" d="M33 -201q-3 6 2 15l90 145q12 15 12 22t-16 15q-15 5 -26 22.5t-11 40.5q0 42 26 66.5t68 24.5q31 0 49.5 -18t18.5 -50q0 -59 -58 -148l-79 -131q-7 -10 -19 -10h-45q-9 0 -12 6zM225 920q13 75 82 75q39 0 58 -23t12 -61q-4 -37 -26.5 -57t-57.5 -20q-38 0 -56 23 t-12 63z" />
<glyph unicode="&#x3c;" horiz-adv-x="1302" d="M176 494l8 49q3 13 15 16l991 428q9 3 13.5 -1t2.5 -13l-8 -62q-3 -13 -14 -16l-899 -381l774 -381q13 -6 10 -20l-8 -54q-3 -17 -21 -10l-854 424q-13 6 -10 21z" />
<glyph unicode="=" horiz-adv-x="1243" d="M143 297l9 49q3 14 16 14h864q18 0 15 -18l-9 -49q-3 -14 -16 -14h-864q-18 0 -15 18zM213 735l8 49q3 15 17 15h864q17 0 14 -19l-8 -49q-3 -14 -16 -14h-865q-17 0 -14 18z" />
<glyph unicode="&#x3e;" horiz-adv-x="1302" d="M106 61l9 62q3 13 14 16l899 381l-774 381q-13 6 -10 21l8 53q3 17 20 10l854 -424q14 -7 11 -20l-9 -49q-4 -14 -14 -17l-991 -428q-9 -3 -14 1t-3 13z" />
<glyph unicode="?" horiz-adv-x="1112" d="M248 1321q0 17 12 20l107 29q169 49 317 49q180 0 282.5 -74t102.5 -206q0 -113 -64 -203t-212 -182l-88 -56q-168 -107 -185 -241l-26 -158q-3 -14 -17 -14h-53q-16 0 -16 18l26 154q29 185 232 309l90 53q120 71 172.5 143.5t52.5 161.5q0 95 -84.5 152t-226.5 57 q-133 0 -289 -41l-105 -30q-18 -4 -18 12zM342 66q13 75 82 75q39 0 58 -23t12 -61q-4 -37 -26.5 -57t-57.5 -20q-38 0 -56 23t-12 63z" />
<glyph unicode="@" horiz-adv-x="1771" d="M145 367q0 109 28.5 223t95 229t161.5 204.5t240.5 145.5t320.5 56q298 0 471.5 -153.5t173.5 -409.5q0 -73 -13 -135.5t-42 -117.5t-82 -86.5t-125 -31.5q-95 0 -143 52.5t-88 201.5q-30 111 -81.5 154.5t-139.5 43.5q-127 0 -204 -78t-77 -210q0 -90 58 -139.5 t163 -49.5q93 0 187 27l36 10q15 3 23 -8q13 -24 35 -37q17 -14 -2 -20l-74 -21q-104 -33 -211 -33q-144 0 -222.5 68.5t-78.5 191.5q0 53 12 104.5t40.5 102t70.5 89t107 62t145 23.5q114 0 182 -55t105 -188q38 -128 68.5 -168.5t94.5 -40.5q49 0 84.5 26t53 70t25 88.5 t7.5 93.5q0 225 -152.5 358.5t-412.5 133.5q-156 0 -286.5 -51t-215 -131.5t-144 -183.5t-85 -204.5t-25.5 -197.5q0 -232 142.5 -369t388.5 -137q174 0 401 61l117 33q15 3 18 -12l9 -49q2 -6 -2 -12t-11 -7l-116 -33q-117 -33 -209 -49t-211 -16q-283 0 -447 158t-164 424 z" />
<glyph unicode="A" d="M22.5 5.5q-3.5 5.5 2.5 14.5l643 1076q94 163 149 290q7 13 21 13h55q14 0 18 -15q11 -100 52 -288l262 -1078q3 -18 -15 -18h-55q-15 0 -18 14l-93 385h-698l-229 -389q-7 -10 -19 -10h-63q-9 0 -12.5 5.5zM397 481h629l-135 547q-28 121 -35 221q0 7 -4 9.5t-9.5 0 t-8.5 -9.5q-41 -101 -113 -221z" />
<glyph unicode="B" horiz-adv-x="1318" d="M115 18l219 1366q3 15 16 15h545q167 0 258.5 -74t91.5 -207q0 -132 -74 -235t-210 -148q-18 -6 -19.5 -13.5t16.5 -12.5q108 -28 165 -104t57 -189q0 -192 -129 -304t-353 -112h-567q-16 0 -16 18zM213 82h498q173 0 277 87.5t104 238.5q0 131 -106 200.5t-308 69.5 h-369zM322 760h364q221 0 345 93.5t124 248.5q0 101 -72 159t-200 58h-471z" />
<glyph unicode="C" horiz-adv-x="1218" d="M139 520q0 93 16.5 190t49.5 200t90.5 193t133 161.5t183 113t234.5 41.5q82 0 140 -12t144 -43l74 -31q15 -6 8 -20l-26 -47q-9 -15 -23 -9l-73 29q-68 27 -122 38t-130 11q-96 0 -179 -29t-143.5 -78.5t-110 -116.5t-82 -141t-54 -154.5t-31 -154t-9.5 -143.5 q0 -218 103 -335t297 -117q151 3 270 43l88 30q18 7 21 -10l10 -49q3 -16 -12 -19l-91 -32q-86 -30 -145 -39.5t-149 -9.5q-230 0 -356 142.5t-126 397.5z" />
<glyph unicode="D" horiz-adv-x="1345" d="M115 18l219 1366q3 15 16 15h441q229 0 355 -139.5t126 -389.5q0 -77 -11.5 -157.5t-37 -166t-63.5 -164t-95.5 -149t-127 -122t-163.5 -81.5t-201 -30h-442q-16 0 -16 18zM213 82h367q95 0 177.5 28t143 76t109 113t80 136.5t53 149.5t30.5 149t9 138q0 214 -103 330.5 t-297 116.5h-370z" />
<glyph unicode="E" horiz-adv-x="1222" d="M115 18l221 1366q3 15 16 15h875q9 0 12 -5.5t0 -13.5l-22 -49q-6 -12 -21 -12h-784l-88 -559h667q18 0 15 -19l-9 -49q-3 -14 -16 -14h-672l-94 -596h813q17 0 14 -19l-8 -49q-3 -14 -16 -14h-887q-16 0 -16 18z" />
<glyph unicode="F" horiz-adv-x="1191" d="M115 18l219 1366q3 15 16 15h856q9 0 12.5 -5.5t0.5 -13.5l-21 -49q-6 -12 -20 -12h-766l-97 -600h670q19 0 16 -19l-8 -49q-3 -14 -16 -14h-674l-100 -623q-3 -14 -17 -14h-55q-16 0 -16 18z" />
<glyph unicode="G" horiz-adv-x="1316" d="M139 520q0 78 11.5 160.5t37 171.5t64 170t96 154t128.5 126.5t166.5 85t205.5 31.5q85 0 142 -11t140 -42l74 -31q18 -7 8 -20l-26 -49q-9 -15 -23 -9l-73 29q-68 27 -122 38t-130 11q-96 0 -179 -29t-143.5 -78.5t-110 -116.5t-82 -141t-54 -155t-31 -155t-9.5 -144 q0 -216 103.5 -333t298.5 -117q79 2 136 11.5t130 33.5l117 41l67 432h-290q-20 0 -13 18l23 49q7 13 20 13h344q17 0 17 -19l-88 -541q-3 -13 -15 -16l-22 -8l-139 -49q-85 -31 -145.5 -41t-151.5 -10q-230 0 -356 142.5t-126 397.5z" />
<glyph unicode="H" horiz-adv-x="1400" d="M115 18l219 1366q3 15 16 15h56q19 0 16 -19l-98 -620h841l99 624q3 15 16 15h55q17 0 17 -19l-219 -1366q-3 -14 -17 -14h-55q-17 0 -17 18l107 660h-842l-106 -664q-3 -14 -17 -14h-55q-16 0 -16 18z" />
<glyph unicode="I" horiz-adv-x="471" d="M115 18l219 1366q3 15 16 15h56q16 0 16 -19l-219 -1366q-3 -14 -17 -14h-55q-16 0 -16 18z" />
<glyph unicode="J" horiz-adv-x="843" d="M35 41l22 47q5 13 21 10l51 -16q52 -16 125 -16q110 0 184.5 74.5t96.5 209.5l165 1034q3 15 17 15h53q16 0 16 -19l-163 -1028q-28 -172 -130 -272t-251 -100q-86 0 -148 22l-51 16q-18 7 -8 23z" />
<glyph unicode="K" horiz-adv-x="1263" d="M115 18l221 1366q3 15 16 15h56q16 0 16 -19l-100 -620h49q69 0 141.5 27t139.5 76t119.5 96t109.5 108l301 324q8 8 20 8h72q10 0 13 -6.5t-5 -14.5l-336 -362q-86 -94 -194 -173t-183 -110q-33 -11 -4 -24q157 -67 301 -308l224 -381q6 -9 2 -14.5t-13 -5.5h-65 q-13 0 -19 12l-198 342q-35 63 -77 116.5t-97 102.5t-123.5 77t-141.5 28h-51l-106 -664q-3 -14 -17 -14h-55q-16 0 -16 18z" />
<glyph unicode="L" horiz-adv-x="1142" d="M115 18l219 1366q3 15 16 15h56q16 0 16 -19l-207 -1298h725q17 0 14 -19l-8 -49q-3 -14 -16 -14h-799q-16 0 -16 18z" />
<glyph unicode="M" horiz-adv-x="1622" d="M115 18l219 1366q3 15 16 15h101q13 0 16 -15q4 -24 10.5 -53t16 -66t12.5 -51l231 -757q27 -104 31 -133q3 -18 11 -18t16 18q51 99 73 135l471 755q62 96 95 172q6 13 20 13h102q17 0 17 -19l-219 -1366q-3 -14 -17 -14h-53q-19 0 -16 18l159 1008q17 105 43 209 q5 19 -5 22.5t-19 -16.5q-43 -81 -96 -166l-422 -674q-74 -120 -115 -204q-7 -13 -20 -13h-60q-13 0 -16 15q-17 85 -51 207l-209 673q-19 67 -43 162q-3 17 -11 17q-12 -2 -14 -23q-9 -96 -24 -209l-162 -1012q-3 -14 -17 -14h-55q-16 0 -16 18z" />
<glyph unicode="N" horiz-adv-x="1425" d="M115 18l219 1366q3 15 16 15h68q15 0 18 -15q33 -100 86 -192l512 -922q36 -61 47 -114q2 -8 8.5 -9.5t12 4t4.5 13.5v13q0 42 10 136l174 1071q3 15 17 15h53q16 0 16 -19l-221 -1366q-3 -14 -16 -14h-66q-15 0 -18 14q-35 105 -84 197l-516 919q-36 73 -45 115 q-2 7 -8.5 8.5t-12 -3.5t-4.5 -13v-13q0 -43 -10 -137l-172 -1073q-3 -14 -17 -14h-55q-16 0 -16 18z" />
<glyph unicode="O" d="M139 520q0 78 11.5 160.5t37 171.5t63.5 170t95.5 154t128 126.5t165.5 85t204 31.5q230 0 355.5 -142.5t125.5 -397.5q0 -79 -11.5 -161.5t-37 -171.5t-64 -170t-96 -153.5t-127.5 -126t-165 -85t-203 -31.5q-230 0 -356 142.5t-126 397.5zM229 516q0 -216 102.5 -333 t295.5 -117q96 0 179 29t144 78t110.5 116.5t81.5 140.5t53.5 153.5t30.5 153.5t9 142q0 218 -102.5 337t-294.5 119q-96 0 -179 -29t-143.5 -78.5t-110 -116.5t-82 -141t-54 -155t-31 -155t-9.5 -144z" />
<glyph unicode="P" horiz-adv-x="1255" d="M115 18l219 1366q3 15 16 15h481q213 0 317 -109q81 -85 81 -221q0 -38 -6 -80q-30 -208 -208.5 -317t-475.5 -109h-248l-88 -549q-3 -14 -17 -14h-55q-16 0 -16 18zM303 645h244q253 0 407.5 90t180.5 260q5 33 5 63q0 108 -64 175q-82 86 -253 86h-411z" />
<glyph unicode="Q" horiz-adv-x="1402" d="M141 520q0 133 27.5 261t86 243.5t140 203.5t197.5 139.5t252 51.5q230 0 355.5 -142.5t125.5 -397.5q0 -157 -36.5 -300.5t-97.5 -248.5t-137 -179t-157 -108q-14 -5 -20 -10.5t-2 -10.5t16 -8q62 -15 125 -67.5t108 -128.5l66 -111q8 -13 -4 -22l-43 -29q-16 -6 -23 6 l-67 109q-63 108 -167 158.5t-263 50.5q-225 0 -353.5 142.5t-128.5 397.5zM231 516q0 -221 103 -335.5t295 -114.5q137 0 252.5 63.5t192.5 173.5t120 258.5t43 317.5q0 217 -102 336.5t-295 119.5q-101 0 -189 -33.5t-154 -93t-117.5 -138t-83.5 -170.5t-48.5 -189 t-16.5 -195z" />
<glyph unicode="R" horiz-adv-x="1331" d="M115 18l219 1366q3 15 16 15h533q174 0 266 -79t92 -226q0 -316 -375 -432q-23 -7 -25 -18t13 -17q129 -64 178 -256l96 -353q3 -18 -14 -18h-55q-16 0 -19 14l-88 330q-73 279 -372 279h-279l-98 -609q-3 -14 -17 -14h-55q-16 0 -16 18zM313 705h289q143 0 251.5 30.5 t172 84t94.5 120t31 143.5q0 113 -71.5 174.5t-205.5 61.5h-462z" />
<glyph unicode="S" horiz-adv-x="1206" d="M76 98l24 49q9 15 23 9l59 -27q155 -63 342 -63q103 0 189.5 29.5t141 77t84.5 105t30 115.5q0 144 -191 219l-295 119q-125 48 -181 118t-56 167q0 46 11 91t33.5 91.5t61.5 85.5t90 69.5t124.5 48t160.5 17.5q146 0 299 -49l90 -27q17 -7 8 -22l-24 -49q-5 -13 -21 -10 l-86 30q-127 43 -272 43q-170 0 -278.5 -85.5t-108.5 -225.5q0 -68 40.5 -122t145.5 -95l293 -117q116 -47 181 -114t65 -168q0 -58 -19.5 -116t-62.5 -114.5t-104.5 -100.5t-153.5 -70.5t-201 -26.5q-196 0 -371 71l-63 27q-18 7 -8 20z" />
<glyph unicode="T" horiz-adv-x="1265" d="M227 1337l9 47q3 15 16 15h1051q17 0 14 -19l-8 -47q-3 -14 -17 -14h-483l-207 -1305q-3 -14 -16 -14h-56q-16 0 -16 18l207 1301h-479q-18 0 -15 18z" />
<glyph unicode="U" horiz-adv-x="1357" d="M180 543l135 841q3 15 17 15h55q16 0 16 -19l-137 -839q-9 -62 -9 -116q0 -143 65 -234q90 -125 290 -125q201 0 331 125.5t165 351.5l135 841q3 15 17 15h55q16 0 16 -19l-135 -839q-43 -264 -201 -412.5t-397 -148.5q-241 0 -351 149q-79 107 -79 274q0 66 12 140z" />
<glyph unicode="V" horiz-adv-x="1363" d="M231 1380q-3 19 15 19h55q15 0 18 -15l273 -1017q26 -110 26 -203q0 -7 4.5 -9.5t10 0t8.5 9.5q28 94 92 205l594 1020q7 10 19 10h61q9 0 12.5 -6t-2.5 -15l-622 -1067q-82 -144 -144 -299q-3 -12 -18 -12h-53q-16 0 -19 16q-11 164 -45 295z" />
<glyph unicode="W" horiz-adv-x="1964" d="M248 1380q-3 19 16 19h53q14 0 17 -15l149 -1011q11 -84 11 -191q0 -12 7.5 -12t10.5 12q21 76 78 191l495 1013q7 13 21 13h37q13 0 16 -15l176 -1011q15 -91 15 -193q0 -11 8.5 -10.5t11.5 12.5q38 117 72 191l469 1013q7 13 20 13h58q9 0 12 -5.5t0 -13.5l-500 -1079 q-83 -179 -119 -287q-3 -14 -18 -14h-59q-17 0 -17 16q-8 180 -31 301l-139 797q-8 54 -8 105q0 9 -3.5 12t-8 0t-8.5 -12q-6 -15 -23.5 -54.5t-22.5 -50.5l-399 -817q-70 -139 -121 -285q-3 -12 -18 -12h-57q-17 0 -17 16q-7 146 -26 285z" />
<glyph unicode="X" horiz-adv-x="1323" d="M56.5 6q-3.5 6 2.5 14l514 621q24 32 52 51q12 8 14 13q6 8 -2 16q-16 16 -37 57l-307 602q-5 8 -1.5 13.5t13.5 5.5h60q11 0 18 -13l307 -600q6 -12 16 -12t19 12l498 603q7 10 20 10h70q10 0 13 -6.5t-3 -14.5l-500 -600q-35 -44 -57 -57q-8 -5 -9 -11.5t5 -11.5 q11 -9 37 -57l315 -623q5 -8 1.5 -13t-13.5 -5h-62q-12 0 -18 12l-313 623q-5 9 -16 9.5t-19 -9.5l-516 -625q-8 -10 -21 -10h-67q-10 0 -13.5 6z" />
<glyph unicode="Y" horiz-adv-x="1314" d="M236.5 1393.5q3.5 5.5 13.5 5.5h59q15 0 21 -13l258 -514q60 -121 84 -213q2 -7 5.5 -9.5t8 0t8.5 9.5q77 128 148 213l424 517q8 10 20 10h70q10 0 13 -6t-3 -15l-463 -561q-103 -124 -149.5 -204t-65.5 -193l-63 -406q-3 -14 -17 -14h-55q-19 0 -16 18l63 402 q9 56 9 105t-9 91q-20 81 -80 201l-282 563q-5 8 -1.5 13.5z" />
<glyph unicode="Z" horiz-adv-x="1228" d="M55 31q-3 13 6 22q19 19 41 44t36.5 43t39.5 49.5t37 46.5l791 968q17 23 84 90q14 14 12 23t-19 8q-74 -6 -125 -6h-643q-17 0 -14 18l8 47q3 15 17 15h893q13 0 20 -13l6 -16q3 -13 -6 -22q-46 -46 -145 -166l-803 -985q-13 -15 -41 -45.5t-41 -45.5q-9 -9 -11 -16 t2.5 -11t14.5 -3q70 6 127 6h674q9 0 12 -5.5t0 -13.5l-22 -51q-6 -12 -21 -12h-905q-16 0 -19 14z" />
<glyph unicode="[" horiz-adv-x="649" d="M125 -182l272 1677q3 14 17 14h227q17 0 14 -18l-8 -47q-3 -14 -16 -14h-164l-246 -1551h158q17 0 14 -18l-8 -47q-3 -15 -16 -15h-228q-16 0 -16 19z" />
<glyph unicode="\" horiz-adv-x="909" d="M211 1493q-3 18 14 18h54q15 0 18 -14l436 -1679q3 -19 -14 -19h-53q-16 0 -19 15z" />
<glyph unicode="]" horiz-adv-x="649" d="M47 -182l8 47q3 14 17 14h164l245 1551h-157q-18 0 -15 18l8 47q3 14 17 14h227q17 0 17 -18l-273 -1677q-3 -15 -16 -15h-228q-17 0 -14 19z" />
<glyph unicode="^" horiz-adv-x="966" d="M182 725l398 647q7 10 18 10h53q16 0 19 -14l190 -645q6 -18 -12 -18h-55q-16 0 -19 14l-162 561l-342 -565q-7 -10 -18 -10h-59q-21 0 -11 20z" />
<glyph unicode="_" horiz-adv-x="972" d="M-164 -412l8 50q3 14 17 14h983q17 0 14 -19l-8 -49q-3 -14 -16 -14h-984q-17 0 -14 18z" />
<glyph unicode="`" horiz-adv-x="483" d="M259 1430q3 6 13 6h66q11 0 18 -11l131 -213q10 -20 -10 -20h-53q-11 0 -18 10l-144 213q-6 9 -3 15z" />
<glyph unicode="a" horiz-adv-x="1116" d="M102 344q0 82 18 168t60 173.5t102.5 155.5t153.5 111t205 43q122 0 227 -41l136 -49q15 -6 12 -20l-137 -871q-3 -14 -17 -14h-45q-16 0 -16 18l39 222q3 19 -5 18q-8 -3 -18 -16q-37 -58 -72 -100t-82 -81.5t-106 -60t-127 -20.5q-155 0 -241.5 96t-86.5 268zM188 350 q0 -135 65.5 -211t182.5 -76q108 0 207 88.5t166.5 235t95.5 322.5l23 139l-86 31q-94 32 -203 32q-93 0 -171.5 -38t-128.5 -98t-85.5 -136t-50.5 -149t-15 -140z" />
<glyph unicode="b" horiz-adv-x="1124" d="M111 113l208 1308q3 15 17 15h53q17 0 17 -19l-68 -416q-18 -120 -35 -182q-5 -16 3 -17.5t13 5.5q66 88 158.5 138t198.5 50q168 0 258 -100t90 -283q0 -82 -16 -165.5t-55.5 -169t-97 -150.5t-148.5 -106t-203 -41q-141 0 -262 57l-121 55q-13 6 -10 21zM201 147 l86 -38q94 -46 219 -46q92 0 167.5 36.5t123 94t80 132t46 145.5t13.5 139q0 144 -68 222.5t-196 78.5q-167 0 -277.5 -130t-144.5 -337z" />
<glyph unicode="c" horiz-adv-x="954" d="M102 369q0 83 16.5 166t56.5 167.5t99.5 148t154.5 104t212 40.5q87 0 193 -32l45 -15q16 -6 10 -22l-21 -45q-6 -14 -20 -11l-45 17q-84 24 -164 24q-101 0 -182 -36.5t-130 -93t-81.5 -130.5t-45 -143t-12.5 -137q0 -148 76 -228t223 -80q85 0 197 31l55 17 q8 2 13.5 -2t5.5 -11l10 -49q4 -15 -12 -18l-56 -17q-119 -34 -213 -34q-188 0 -286.5 102.5t-98.5 286.5z" />
<glyph unicode="d" horiz-adv-x="1124" d="M102 365q0 82 16 165.5t55 168t96.5 149t148.5 105.5t203 42q142 0 253 -57l62 -31l82 514q3 15 16 15h53q17 0 17 -19l-225 -1403q-3 -14 -17 -14h-45q-19 0 -16 18l22 138q2 18 -4 17.5t-18 -13.5q-156 -180 -352 -180q-166 0 -256.5 101.5t-90.5 283.5zM188 371 q0 -146 69.5 -227t197.5 -81q167 0 277 129.5t142 333.5l50 299l-72 35q-97 51 -231 51q-95 -1 -171.5 -37.5t-124 -93t-79.5 -130t-45 -143t-13 -136.5z" />
<glyph unicode="e" horiz-adv-x="1015" d="M102 373q0 65 12.5 133.5t37.5 139.5t67.5 133t98 110.5t134 77t169.5 28.5q153 0 238 -64.5t85 -180.5t-83.5 -193.5t-242.5 -103.5l-432 -70v-12q0 -146 72 -225q76 -83 217 -83q101 0 209 27l57 16q16 3 19 -14l6 -45q3 -16 -12 -20l-54 -13q-132 -34 -229 -34 q-176 0 -272.5 104t-96.5 289zM195 463l411 67q134 23 193 81t59 128q0 82 -64 127t-178 45q-168 0 -278.5 -115.5t-142.5 -332.5z" />
<glyph unicode="f" horiz-adv-x="649" d="M152 18l139 875h-88q-18 0 -15 18l9 50q3 14 16 14h92l33 205q20 130 95.5 204t189.5 74q45 0 94 -22l26 -13q16 -6 9 -20l-27 -45q-9 -12 -23 -6l-20 8q-35 14 -66 14q-75 0 -127.5 -54.5t-66.5 -145.5l-31 -199h225q18 0 15 -19l-8 -49q-3 -14 -17 -14h-229l-141 -879 q-3 -14 -17 -14h-51q-16 0 -16 18z" />
<glyph unicode="g" horiz-adv-x="1118" d="M55 -369l27 47q6 12 20 9l74 -23q104 -29 207 -29q337 0 403 316q9 51 18 100.5t15.5 80.5t7.5 38q3 14 -5 14t-19 -14q-150 -190 -359 -190q-188 0 -277 136q-64 98 -64 245q0 58 10 124q36 237 171.5 373.5t346.5 136.5q133 0 250 -57l125 -59q13 -6 10 -21l-146 -911 q-30 -189 -154 -292.5t-333 -103.5q-122 0 -240 33l-80 25q-14 6 -8 22zM199 481q-9 -59 -9 -111q0 -115 45 -193q66 -114 218 -114q112 0 202 62t144.5 166t74.5 237l48 291l-82 47q-82 45 -217 45q-171 -1 -282 -114.5t-142 -315.5z" />
<glyph unicode="h" horiz-adv-x="1138" d="M94 18l225 1403q3 15 17 15h53q17 0 17 -19l-68 -416q-17 -111 -39 -192q-5 -13 5 -16q10 -2 18 12q145 190 376 190q166 1 246 -109q58 -80 59 -202q0 -44 -8 -94l-94 -576q-3 -14 -16 -14h-51q-17 0 -17 18l92 576q8 46 8 85q0 91 -40 149q-57 84 -183 83 q-80 0 -147.5 -25.5t-116 -68.5t-86 -103t-60 -125.5t-34.5 -139.5l-70 -435q-3 -14 -16 -14h-53q-17 0 -17 18z" />
<glyph unicode="i" horiz-adv-x="483" d="M152 18l139 875h-88q-18 0 -15 18l9 50q3 14 16 14h160q16 0 16 -19l-153 -942q-3 -14 -17 -14h-51q-16 0 -16 18zM326 1368q0 37 19.5 57.5t53.5 20.5q28 0 44 -14.5t16 -40.5q0 -37 -19.5 -57.5t-52.5 -20.5q-61 0 -61 55z" />
<glyph unicode="j" horiz-adv-x="483" d="M-63 -399q-8 14 6 22l75 49q92 57 109 174l164 1047h-88q-18 0 -15 18l9 50q3 14 16 14h160q16 0 16 -19l-180 -1114q-22 -164 -146 -239l-77 -52q-15 -6 -23 7zM326 1366q0 39 20 60.5t53 21.5q27 0 43.5 -15t16.5 -42q0 -38 -20 -59t-52 -21q-61 0 -61 55z" />
<glyph unicode="k" horiz-adv-x="1015" d="M94 18l154 957l71 446q3 15 17 15h53q17 0 17 -19l-78 -463l-64 -422h45q42 0 84.5 17.5t89.5 54.5t76 63.5t78 75.5l221 224q8 8 21 8h71q10 0 13 -6.5t-5 -14.5l-249 -247q-164 -168 -248 -201q-12 -4 -12.5 -10t8.5 -9q54 -21 96.5 -69t99.5 -137l170 -261 q10 -20 -12 -20h-61q-12 0 -19 10l-153 238q-27 40 -42.5 61.5t-44 53.5t-53.5 48.5t-61 29t-76 12.5h-51l-70 -439q-3 -14 -16 -14h-53q-17 0 -17 18z" />
<glyph unicode="l" horiz-adv-x="487" d="M117 145l202 1276q3 15 17 15h53q17 0 17 -19l-203 -1276q-3 -15 -3 -27q0 -51 44 -51q15 0 24 3q17 3 21 -11l14 -47q3 -15 -10 -20q-21 -8 -53 -8q-72 0 -104 44q-23 32 -23 80q0 19 4 41z" />
<glyph unicode="m" horiz-adv-x="1765" d="M94 18l152 943q3 14 16 14h45q17 0 17 -19l-25 -141q0 -9 3.5 -11.5t9.5 0.5t12 11q72 90 157 135t199 45q113 0 177 -59.5t83 -153.5q5 -12 14.5 -10t20.5 16q148 207 383 207q152 0 222 -109q50 -77 51 -194q0 -48 -9 -102l-92 -576q-3 -14 -17 -14h-53q-16 0 -16 18 l92 576q9 51 9 95q-1 84 -33 139q-48 83 -160 83q-179 0 -286 -126t-140 -336l-72 -435q-3 -14 -16 -14h-52q-16 0 -16 18l92 576q7 49 7 90q-1 88 -33 144q-48 83 -162 83q-176 0 -283 -126t-141 -336l-70 -435q-3 -14 -16 -14h-53q-17 0 -17 18z" />
<glyph unicode="n" horiz-adv-x="1136" d="M94 18l152 943q3 14 16 14h45q20 0 17 -19l-23 -137q0 -12 7 -14t16 10q144 180 374 180q168 0 246 -109q57 -80 57 -201q0 -45 -8 -95l-94 -576q-3 -14 -16 -14h-52q-16 0 -16 18l92 576q8 46 8 85q0 91 -40 149q-57 84 -183 83q-174 0 -289.5 -121t-152.5 -341 l-70 -435q-3 -14 -16 -14h-53q-17 0 -17 18z" />
<glyph unicode="o" horiz-adv-x="1091" d="M102 373q0 79 17 161.5t57 166t98.5 148.5t148.5 105.5t200 40.5q174 0 271 -103.5t97 -287.5q0 -79 -17 -161.5t-57.5 -166.5t-98.5 -149t-148 -106t-199 -41q-174 0 -271.5 104t-97.5 289zM188 373q0 -148 74.5 -229t210.5 -81q93 0 169 36.5t123.5 93.5t79.5 130.5 t45 143.5t13 137q0 147 -74 227t-211 80q-94 0 -169.5 -36t-123 -92.5t-79.5 -130t-45 -143t-13 -136.5z" />
<glyph unicode="p" horiz-adv-x="1122" d="M27 -412l219 1373q3 14 16 14h45q17 0 17 -19l-23 -135q-1 -17 5.5 -18t15.5 12q156 180 354 180q165 0 255.5 -101.5t90.5 -283.5q0 -82 -16 -165.5t-55.5 -168t-97 -149t-148.5 -105.5t-203 -42q-140 0 -254 57l-60 31l-77 -484q-3 -14 -17 -14h-51q-16 0 -16 18z M199 150l73 -35q99 -52 232 -52q94 0 170 36.5t123.5 93.5t79 130.5t44.5 143.5t13 137q0 146 -68 226.5t-196 80.5q-167 0 -277.5 -129t-144.5 -333z" />
<glyph unicode="q" horiz-adv-x="1118" d="M102 362q0 82 16.5 166t55.5 169t97 150.5t149 106.5t203 41q141 0 262 -57l119 -57q13 -6 10 -21l-201 -1276q-3 -14 -16 -14h-54q-19 0 -16 18l59 385q17 108 37 181q3 12 -0.5 16.5t-8.5 3t-9 -5.5q-66 -89 -157 -138.5t-199 -49.5q-168 0 -257.5 99.5t-89.5 282.5z M188 365q0 -143 69 -222.5t196 -79.5q113 0 203.5 62.5t145 166.5t75.5 238l45 293l-82 41q-96 47 -219 47q-93 0 -169 -36.5t-124 -94t-80.5 -131.5t-46 -145t-13.5 -139z" />
<glyph unicode="r" horiz-adv-x="741" d="M94 18l152 943q3 14 16 14h45q20 0 17 -19l-27 -174q-1 -10 6.5 -11.5t15.5 7.5q143 208 373 217q20 0 17 -18l-9 -51q-3 -15 -16 -15q-168 -6 -287 -148t-159 -388l-58 -361q-3 -14 -16 -14h-53q-17 0 -17 18z" />
<glyph unicode="s" horiz-adv-x="954" d="M51 68l25 45q8 14 22 8l37 -15q94 -43 271 -43q84 0 147.5 20.5t99 54.5t53 72.5t17.5 80.5q0 51 -31.5 83t-99.5 52l-242 74q-178 51 -178 202q0 135 101 214t278 79q133 0 231 -30l72 -23q17 -7 8 -22l-22 -48q-5 -13 -21 -10l-67 23q-86 26 -203 26q-133 0 -212 -55.5 t-79 -146.5q0 -49 30.5 -80.5t98.5 -53.5l242 -73q93 -29 136.5 -79t43.5 -126q0 -57 -21 -110.5t-66 -101t-128 -76.5t-193 -29q-185 0 -303 51l-39 16q-15 6 -8 21z" />
<glyph unicode="t" horiz-adv-x="659" d="M184 213l107 680h-88q-18 0 -15 18l9 50q3 14 16 14h92l39 254q3 13 14 16l58 19q9 3 13.5 -1.5t2.5 -13.5l-41 -274h225q18 0 15 -19l-8 -49q-3 -14 -17 -14h-229l-109 -682q-4 -23 -4 -42q0 -41 18 -67q26 -38 83 -39q30 0 57 9q17 3 20 -13l13 -45q3 -14 -11 -20 q-44 -14 -86 -14q-100 0 -146 62q-33 44 -34 111q0 28 6 60z" />
<glyph unicode="u" horiz-adv-x="1136" d="M143 385l95 576q3 14 16 14h51q17 0 17 -19l-93 -575q-8 -46 -8 -86q0 -91 40 -149q57 -84 183 -83q174 0 290 121.5t153 341.5l69 435q3 14 17 14h53q16 0 16 -19l-151 -942q-3 -14 -17 -14h-45q-19 0 -16 18l23 138q0 12 -7 14t-16 -10q-144 -180 -375 -180 q-168 0 -246 109q-57 80 -57 201q0 45 8 95z" />
<glyph unicode="v" horiz-adv-x="1079" d="M164 956q-6 19 12 19h55q16 0 19 -14l180 -599q31 -120 41 -200q3 -10 11 -10t14 10q37 87 104 200l375 603q7 10 18 10h62q9 0 12 -6t-2 -15l-401 -645q-67 -105 -154 -297q-6 -12 -21 -12h-55q-15 0 -18 16q-11 129 -58 293z" />
<glyph unicode="w" horiz-adv-x="1531" d="M170 956q0 19 16 19h56q13 0 16 -14l98 -599q21 -176 23 -200q1 -12 9 -12t13 12q33 77 99 203l307 598q6 12 18 12h31q13 0 16 -14l121 -596q11 -65 29 -203q2 -12 12 -12t13 12q17 51 88 200l286 601q6 12 21 12h57q9 0 12 -5.5t-2 -13.5l-315 -653 q-105 -219 -133 -291q-6 -12 -21 -12h-53q-15 0 -18 14q-16 131 -43 275l-84 411q-13 58 -13 93q0 18 -10 18t-16 -18q-24 -61 -41 -93l-213 -411q-69 -133 -133 -277q-6 -12 -21 -12h-59q-16 0 -19 16q-8 120 -36 287z" />
<glyph unicode="x" horiz-adv-x="1042" d="M36 6q-2 6 5 14l373 426q25 29 41 39q14 9 4 17q-11 11 -25 39l-233 413q-4 9 -0.5 15t12.5 6h61q13 0 19 -12l227 -404q4 -7 11.5 -7t13.5 7l356 408q8 8 21 8h65q10 0 13 -6.5t-5 -14.5l-360 -413q-23 -23 -47 -39q-11 -8 0 -17q4 -2 7 -5.5t4.5 -6.5t6.5 -12t8 -15 l238 -426q4 -9 0.5 -14.5t-12.5 -5.5h-60q-12 0 -18 12l-234 416q-9 18 -24 0l-369 -420q-8 -8 -20 -8h-66q-11 0 -13 6z" />
<glyph unicode="y" horiz-adv-x="1095" d="M143 -410l215 351q44 74 44 164q0 59 -19 124l-219 727q-6 19 12 19h55q16 0 19 -14l184 -615q36 -108 39 -188q1 -14 5.5 -19t11 -0.5t14.5 19.5q53 104 104 188l381 619q7 10 19 10h61q9 0 12 -6t-2 -15l-850 -1374q-7 -10 -18 -10h-57q-21 0 -11 20z" />
<glyph unicode="z" horiz-adv-x="950" d="M35 20q-5 11 4 23q40 36 111 119l550 653q43 48 60 62q6 6 7.5 11t-1.5 7.5t-10 1.5q-74 -4 -92 -4h-453q-17 0 -14 18l8 50q3 14 16 14h674q15 0 18 -12l5 -9q2 -10 -7 -22q-47 -44 -98 -105l-561 -667q-38 -42 -59 -62q-9 -9 -7.5 -15t13.5 -5q70 4 90 4h463 q10 0 13.5 -6t-1.5 -13l-25 -51q-6 -12 -20 -12h-662q-14 0 -20 12z" />
<glyph unicode="{" horiz-adv-x="673" d="M158 633l8 49q3 14 16 14h6q46 0 82 33.5t45 89.5l74 481q17 103 90.5 162.5t188.5 63.5q16 0 16 -19l-8 -47q-3 -14 -17 -14q-76 -5 -126 -45t-60 -107l-76 -481q-9 -57 -26 -88.5t-52 -52.5q-25 -17 -25.5 -21.5t11.5 -11.5q33 -18 42 -55.5t-1 -91.5l-76 -478 q-12 -67 23 -105.5t110 -43.5q20 0 17 -17l-8 -49q-3 -14 -19 -14q-114 5 -169 66t-36 167l76 478q9 57 -14.5 87.5t-69.5 30.5h-8q-17 0 -14 19z" />
<glyph unicode="|" horiz-adv-x="546" d="M86 -412l305 1909q3 14 17 14h53q16 0 16 -18l-305 -1909q-3 -14 -16 -14h-54q-16 0 -16 18z" />
<glyph unicode="}" horiz-adv-x="673" d="M43 -197l8 47q3 15 17 15q76 5 126 44.5t60 106.5l76 482q9 57 26 88.5t52 52.5q25 17 25.5 21.5t-11.5 11.5q-33 18 -42 55.5t1 91.5l76 477q12 67 -23 106t-110 44q-9 0 -13.5 4.5t-3.5 11.5l8 49q3 15 19 15q114 -5 169 -66.5t36 -167.5l-76 -477q-9 -57 14.5 -88 t69.5 -31h8q17 0 14 -18l-8 -49q-3 -15 -16 -15h-6q-46 0 -82 -33.5t-45 -88.5l-74 -482q-17 -103 -90 -161.5t-189 -63.5q-16 0 -16 18z" />
<glyph unicode="~" horiz-adv-x="1028" d="M143 589.5q-3 5.5 4 14.5l70 90q79 107 199 107q70 0 127 -51l67 -58q45 -33 82 -33q64 0 115 66l49 61q8 11 21 11h63q9 0 12 -6t-4 -15l-71 -92q-79 -104 -195 -104q-71 0 -129 49l-68 59q-42 31 -84 31q-37 0 -62.5 -15t-51.5 -49l-47 -61q-8 -10 -21 -10h-63 q-10 0 -13 5.5z" />
<glyph unicode="&#xa1;" horiz-adv-x="460" d="M37 -412l106 662q13 79 42 230.5t36 189.5q3 14 17 14h32q17 0 17 -18q-11 -68 -28.5 -208.5t-29.5 -207.5l-106 -666q-3 -14 -17 -14h-53q-16 0 -16 18zM209 913q5 37 27 57.5t57 20.5q38 0 55.5 -23t11.5 -63q-13 -76 -81 -76q-39 0 -58 23t-12 61z" />
<glyph unicode="&#xa2;" horiz-adv-x="954" d="M162 795q0 78 14.5 155.5t49 157.5t86 143.5t133 108.5t182.5 57l26 166q3 14 17 14h51q16 0 16 -18l-26 -158q82 -3 182 -32l45 -15q16 -6 10 -22l-20 -45q-6 -14 -21 -11l-45 17q-84 24 -164 24l-137 -848q79 3 182 31l56 17q18 4 18 -13l10 -49q4 -15 -12 -18l-55 -17 q-119 -34 -211 -34l-27 -164q-3 -15 -16 -15h-53q-17 0 -17 19l29 166q-149 21 -226 121t-77 262zM248 797q0 -129 58 -206.5t171 -94.5l135 835q-82 -15 -147 -57.5t-104.5 -97.5t-66 -124t-36.5 -131.5t-10 -123.5z" />
<glyph unicode="&#xa3;" horiz-adv-x="1148" d="M61 31q-3 14 5 22l53 74q123 169 147 322l29 180h-184q-18 0 -15 18l8 49q3 15 17 15h186l51 321q29 182 147.5 284.5t299.5 102.5q80 0 182 -28l53 -17q17 -7 11 -22l-21 -47q-6 -14 -20 -11l-54 17q-77 22 -155 22q-143 0 -238 -82.5t-117 -224.5l-51 -315h375 q17 0 14 -19l-8 -49q-3 -14 -16 -14h-379l-29 -183q-24 -180 -151 -344q-8 -9 -9.5 -15.5t2.5 -9.5t13 -1q46 6 119 6h641q17 0 14 -19l-8 -49q-3 -14 -17 -14h-870q-15 0 -18 14z" />
<glyph unicode="&#xa4;" horiz-adv-x="1191" d="M176 297q-10 13 2 22l187 160q-49 79 -31 195q17 108 98 198l-133 156q-10 14 2 23l37 32q13 10 22 -2l136 -157q102 71 211 71q103 0 182 -63l180 155q14 10 23 -2l32 -36q10 -14 -2 -23l-182 -158q55 -83 37 -194q-17 -110 -105 -201l132 -156q9 -13 -3 -22l-38 -33 q-14 -10 -23 2l-129 156q-96 -68 -209 -68q-115 0 -184 66l-187 -160q-13 -10 -22 2zM418 674q-17 -101 40.5 -170.5t157.5 -69.5t180 69.5t97 170.5q15 100 -43 168.5t-158 68.5q-101 0 -180 -68.5t-94 -168.5z" />
<glyph unicode="&#xa5;" horiz-adv-x="1335" d="M246.5 1393.5q3.5 5.5 13.5 5.5h59q15 0 21 -13l258 -514q60 -121 84 -213q2 -7 6 -9.5t8.5 0t8.5 9.5q79 132 147 213l424 517q8 10 20 10h70q10 0 13 -6t-3 -15l-463 -561q-89 -106 -129 -170h279q17 0 14 -18l-8 -47q-3 -15 -16 -15h-312q-31 -68 -43 -147v-6h326 q19 0 16 -19l-8 -47q-3 -14 -16 -14h-332l-49 -320q-3 -14 -17 -14h-55q-19 0 -16 18l49 316h-326q-17 0 -14 18l8 47q3 15 17 15h329v6q12 82 6 147h-309q-17 0 -14 19l8 47q3 14 16 14h285q-18 61 -72 170l-282 563q-5 8 -1.5 13.5z" />
<glyph unicode="&#xa6;" horiz-adv-x="546" d="M86 -412l117 727q3 15 16 15h55q17 0 17 -19l-119 -727q-3 -14 -16 -14h-54q-16 0 -16 18zM276 774l115 723q3 14 17 14h53q19 0 16 -18l-115 -723q-3 -14 -16 -14h-53q-20 0 -17 18z" />
<glyph unicode="&#xa7;" horiz-adv-x="1202" d="M-2 -332l25 47q6 15 20 9l59 -25q147 -66 338 -66q116 0 204.5 23.5t138.5 63.5t74 86t24 96q0 120 -191 198l-303 121q-233 95 -233 283q0 116 52 197.5t167 144.5q9 4 13 6.5t7 8t-6 11.5q-29 21 -45 35t-38.5 39.5t-33 58t-10.5 72.5q0 63 26 121.5t78.5 109t147 81 t217.5 30.5q153 0 299 -49l92 -29q17 -7 8 -22l-24 -47q-5 -13 -21 -10l-86 30q-125 45 -266 45q-175 0 -279 -67.5t-104 -184.5q0 -65 46 -113t143 -87l299 -119q235 -90 235 -295q0 -116 -48.5 -193t-160.5 -135q-6 -2 -18 -8q-21 -7 -4 -22q62 -40 95.5 -84.5 t33.5 -118.5q0 -51 -16.5 -100t-56 -97t-98.5 -84t-152 -58t-208 -22q-185 0 -370 72l-62 27q-18 7 -8 20zM242 516q0 -147 190 -221l215 -86q35 -14 74 -14q80 0 142.5 43.5t92 103t29.5 117.5q0 79 -53 139.5t-135 93.5l-224 88q-42 11 -69 11q-81 0 -143 -47 t-90.5 -108.5t-28.5 -119.5z" />
<glyph unicode="&#xa8;" horiz-adv-x="595" d="M231 1372q0 35 19 55.5t51 20.5q28 0 43.5 -15.5t15.5 -41.5q0 -35 -18.5 -54.5t-50.5 -19.5q-60 0 -60 55zM520 1372q0 35 19 55.5t51 20.5q28 0 43.5 -15.5t15.5 -41.5q0 -35 -18.5 -54.5t-50.5 -19.5q-60 0 -60 55z" />
<glyph unicode="&#xa9;" horiz-adv-x="1615" d="M104 700q0 322 194 520.5t509 198.5q208 0 367.5 -89.5t247 -253t87.5 -376.5q0 -324 -193.5 -522t-508.5 -198t-509 198t-194 522zM184 700q0 -289 171.5 -466t451.5 -177q281 0 452 177t171 466t-171 465t-452 176q-280 0 -451.5 -176t-171.5 -465zM465 702 q0 183 92.5 290.5t251.5 107.5q86 0 172 -29l43 -14q17 -7 10 -23l-14 -41q-7 -17 -23 -10l-41 14q-83 25 -147 25q-124 0 -195 -85t-71 -235q0 -153 71 -238t195 -85q77 0 145 24l43 15q16 7 23 -10l14 -43q7 -18 -10 -21l-45 -14q-86 -27 -170 -27q-160 0 -252 107 t-92 292z" />
<glyph unicode="&#xaa;" horiz-adv-x="808" d="M76 352l6 47q4 15 18 15h564q19 0 16 -19l-8 -45q-3 -14 -17 -14h-563q-19 0 -16 16zM143 848q15 103 96 163t214 60h249l5 23q17 109 -32 170t-155 61q-81 0 -149 -20l-56 -17q-15 -3 -18 12l-8 46q-4 15 12 18l59 18q90 23 175 23q141 0 207.5 -83t43.5 -226l-71 -449 q-3 -14 -17 -14h-34q-17 0 -17 18l12 70q0 17 -7.5 18t-18.5 -12q-102 -111 -281 -111q-115 0 -171 64t-38 168zM225 850q-9 -71 28 -112.5t118 -41.5q137 0 216 71.5t101 205.5l4 20h-252q-193 0 -215 -143z" />
<glyph unicode="&#xab;" horiz-adv-x="1034" d="M174 477v17q0 12 8 20l316 322q8 8 20 8h70q10 0 13 -7t-5 -14l-330 -336l226 -335q10 -21 -13 -21h-63q-12 0 -19 10l-217 318q-6 9 -6 18zM475 477v17q0 12 8 20l316 322q8 8 20 8h70q10 0 13 -7t-5 -14l-330 -336l226 -335q5 -9 1 -15t-14 -6h-63q-12 0 -19 10 l-217 318q-6 9 -6 18z" />
<glyph unicode="&#xad;" horiz-adv-x="905" d="M178 516l8 49q3 15 17 15h524q17 0 14 -19l-8 -49q-3 -14 -16 -14h-524q-18 0 -15 18z" />
<glyph unicode="&#xae;" horiz-adv-x="1615" d="M104 700q0 322 194 520.5t509 198.5q208 0 367.5 -89.5t247 -253t87.5 -376.5q0 -324 -193.5 -522t-508.5 -198t-509 198t-194 522zM184 700q0 -289 171.5 -466t451.5 -177q281 0 452 177t171 466t-171 465t-452 176q-280 0 -451.5 -176t-171.5 -465zM559 350v703 q0 16 16 16h285q109 0 172.5 -55.5t63.5 -151.5q0 -69 -43 -118.5t-117 -75.5q-4 -1 -10.5 -2t-10.5 -2q-7 -3 9 -13q82 -43 110 -125l80 -174q7 -18 -12 -18h-41q-15 0 -21 12l-67 160q-31 66 -81.5 96.5t-133.5 30.5h-121v-283q0 -16 -16 -16h-46q-16 0 -16 16zM637 709 h154q227 0 227 151q0 131 -158 131h-223v-282z" />
<glyph unicode="&#xaf;" horiz-adv-x="704" d="M238 1294l8 43q3 15 16 15h453q17 0 14 -19l-8 -43q-3 -14 -16 -14h-451q-16 0 -16 18z" />
<glyph unicode="&#xb0;" horiz-adv-x="491" d="M164 1182q0 109 60.5 174t164.5 65q84 0 129 -41.5t45 -115.5q0 -39 -12 -78.5t-37 -77t-71.5 -61t-108.5 -23.5q-81 0 -125.5 41.5t-44.5 116.5zM246 1194q0 -43 25 -66.5t69 -23.5q71 0 106 47.5t35 99.5q0 43 -25 66.5t-71 23.5q-62 0 -100.5 -40t-38.5 -107z" />
<glyph unicode="&#xb1;" horiz-adv-x="1302" d="M106 -111l9 50q3 14 16 14h864q18 0 15 -19l-9 -49q-3 -14 -16 -14h-864q-18 0 -15 18zM193 606l8 49q3 15 16 15h420l74 460q3 15 16 15h51q17 0 17 -19l-74 -456h418q17 0 14 -19l-8 -49q-3 -14 -17 -14h-421l-74 -461q-3 -14 -17 -14h-51q-16 0 -16 18l74 457h-416 q-17 0 -14 18z" />
<glyph unicode="&#xb4;" horiz-adv-x="487" d="M224.5 1198q-2.5 6 4.5 14l197 215q9 9 20 9h68q10 0 13 -7t-5 -14l-211 -215q-8 -8 -20 -8h-53q-11 0 -13.5 6z" />
<glyph unicode="&#xb5;" horiz-adv-x="1157" d="M27 -412l149 930q3 14 17 14q-6 0 -3 19l68 410q3 14 16 14h52q16 0 16 -19l-92 -575q-25 -151 32 -234.5t183 -83.5q174 0 289.5 121.5t152.5 341.5l70 435q3 14 16 14h54q16 0 16 -19l-152 -942q-3 -14 -16 -14h-45q-19 0 -16 18l22 138q0 12 -6.5 14t-15.5 -10 q-144 -180 -375 -180q-189 0 -262 137l-86 -533q-3 -14 -17 -14h-51q-16 0 -16 18z" />
<glyph unicode="&#xb6;" horiz-adv-x="1333" d="M272 950q0 57 14 115.5t47.5 119.5t83.5 107.5t129 76.5t177 30h465q16 0 16 -19l-217 -1366q-3 -14 -16 -14h-47q-17 0 -17 18l209 1305h-188l-209 -1309q-3 -14 -17 -14h-47q-16 0 -16 18l100 609q-220 0 -343.5 84t-123.5 239z" />
<glyph unicode="&#xb7;" horiz-adv-x="413" d="M145 510q6 36 27.5 56t54.5 20q39 0 58 -23t12 -61q-5 -37 -27 -57.5t-57 -20.5q-38 0 -56 23t-12 63z" />
<glyph unicode="&#xb8;" horiz-adv-x="530" d="M-35 -401l23 41q5 13 20 10l27 -10q37 -11 61 -11q60 0 97.5 30.5t37.5 84.5q0 68 -102 68h-66q-11 0 -18 10l-4 6q-6 9 0 22l80 160q7 13 20 13h41q10 0 14 -5.5t-1 -13.5l-62 -121h12q77 0 119.5 -35.5t42.5 -99.5q0 -35 -11.5 -68.5t-35.5 -63.5t-67.5 -48.5 t-100.5 -18.5q-41 0 -88 17l-31 10q-18 7 -8 23z" />
<glyph unicode="&#xba;" horiz-adv-x="888" d="M94 354l8 45q3 15 17 15h565q19 0 16 -19l-8 -45q-3 -14 -16 -14h-565q-20 0 -17 18zM158 1010q29 182 138 289.5t265 107.5q158 0 233 -107.5t46 -289.5q-29 -183 -138 -289.5t-268 -106.5q-157 0 -231 106.5t-45 289.5zM240 1010q-23 -148 31.5 -232t174.5 -84 q123 0 206 84t106 232q23 149 -32.5 233t-178.5 84q-120 0 -201 -84t-106 -233z" />
<glyph unicode="&#xbb;" horiz-adv-x="1040" d="M138.5 137.5q-2.5 6.5 4.5 14.5l330 335l-225 336q-10 21 12 21h64q11 0 18 -10l217 -318q6 -9 6 -18v-17q0 -12 -8 -20l-315 -322q-8 -8 -21 -8h-69q-11 0 -13.5 6.5zM439.5 137.5q-2.5 6.5 4.5 14.5l330 335l-225 336q-5 9 -1.5 15t13.5 6h64q11 0 18 -10l217 -318 q6 -9 6 -18v-17q0 -12 -8 -20l-315 -322q-8 -8 -21 -8h-69q-11 0 -13.5 6.5z" />
<glyph unicode="&#xbc;" horiz-adv-x="1458" d="M112 6q-3 6 3 14l1136 1369q7 10 21 10h55q10 0 13 -6.5t-3 -14.5l-1136 -1368q-7 -10 -21 -10h-55q-10 0 -13 6zM195 1296q-3 16 10 21l190 84q13 6 23 -4q5 -5 2 -17l-119 -745q-3 -14 -16 -14h-47q-20 0 -17 18l92 578q8 47 13 63q3 8 0 9t-13 -3l-86 -39 q-16 -10 -20 8zM866 231l6 58q3 12 11 20q33 29 86 82l297 309q54 58 63 70q8 8 21 8h65q17 0 17 -18l-76 -467h65q17 0 17 -19l-8 -45q-3 -14 -17 -14h-70l-30 -199q-3 -14 -17 -14h-47q-16 0 -16 18l33 195h-383q-9 0 -13.5 4.5t-3.5 11.5zM977 299q-1 -1 1 -3.5t5 -2.5 h295l43 274q5 42 22 90q1 7 -3 7q-5 -1 -11 -7l-280 -290q-13 -15 -58 -54q-13 -8 -14 -14z" />
<glyph unicode="&#xbd;" horiz-adv-x="1554" d="M112 6q-3 6 3 14l1136 1369q7 10 21 10h55q10 0 13 -6.5t-3 -14.5l-1136 -1368q-7 -10 -21 -10h-55q-10 0 -13 6zM195 1296q-3 16 10 21l190 84q12 6 21 0q7 -10 4 -21l-119 -745q-3 -14 -16 -14h-47q-20 0 -17 18l92 578q8 47 13 63q3 8 0 9t-13 -3l-86 -39 q-16 -10 -20 8zM1006 20l6 37q18 94 60.5 160t123.5 117l207 129q108 68 108 143q0 46 -38.5 73.5t-104.5 27.5q-68 0 -154 -23l-57 -18q-17 -3 -20 12l-9 43q-3 15 13 18l55 19q77 28 178 28q103 0 160.5 -45.5t56.5 -124.5q-2 -63 -37 -115.5t-116 -105.5l-207 -131 q-111 -70 -129 -186h381q16 0 16 -19l-8 -43q-3 -14 -16 -14h-453q-19 0 -16 18z" />
<glyph unicode="&#xbe;" horiz-adv-x="1705" d="M104 682l23 43q5 13 20 10l48 -16q85 -25 143 -25q92 0 150.5 44.5t58.5 121.5q0 59 -44 94t-114 35h-37q-16 0 -16 19l8 43q3 14 16 14h35q82 0 135.5 43t53.5 115q0 50 -36.5 78t-98.5 28q-75 0 -140 -18l-53 -17q-18 -4 -18 13l-9 41q-4 15 13 18l47 14q80 27 166 27 q99 0 155.5 -46t55.5 -128q0 -139 -123 -195q-5 -2 -12.5 -4t-8.5 -2q-7 -7 2 -10q105 -42 105 -162q-1 -116 -82 -181t-213 -65q-75 0 -172 29l-49 16q-18 7 -9 23zM359.5 6q-3.5 6 2.5 14l1137 1369q7 10 21 10h55q10 0 13 -6.5t-3 -14.5l-1136 -1368q-7 -10 -21 -10h-55 q-10 0 -13.5 6zM1114 231l6 58q3 13 10 20q41 36 87 82l296 309q61 67 64 70q8 8 20 8h66q16 0 16 -18l-75 -467h65q17 0 17 -19l-9 -45q-3 -14 -16 -14h-70l-30 -199q-3 -14 -17 -14h-47q-16 0 -16 18l32 195h-383q-19 0 -16 16zM1225 299q-1 -1 1 -3.5t5 -2.5h295l43 274 q5 42 22 90q1 7 -3 7q-5 -1 -11 -7l-281 -290q-16 -19 -57 -54q-13 -8 -14 -14z" />
<glyph unicode="&#xbf;" horiz-adv-x="1032" d="M33 -168q0 113 64 203t212 182l88 55q168 107 185 242l26 158q3 14 17 14h53q16 0 16 -18l-26 -154q-29 -185 -232 -309l-90 -53q-120 -71 -172.5 -144t-52.5 -162q0 -95 84.5 -151.5t226.5 -56.5q137 0 289 40l104 31q19 4 19 -12l10 -47q0 -18 -12 -21l-107 -28 q-172 -50 -317 -50q-180 0 -282.5 74.5t-102.5 206.5zM608 913q5 37 27 57.5t57 20.5q38 0 56 -23t12 -63q-6 -36 -27.5 -56t-54.5 -20q-39 0 -58 23t-12 61z" />
<glyph unicode="&#xc0;" d="M22.5 5.5q-3.5 5.5 2.5 14.5l643 1076q94 163 149 290q7 13 21 13h55q14 0 18 -15q11 -100 52 -288l262 -1078q3 -18 -15 -18h-55q-15 0 -18 14l-93 385h-698l-229 -389q-7 -10 -19 -10h-63q-9 0 -12.5 5.5zM397 481h629l-135 547q-28 121 -35 221q0 7 -4 9.5t-9.5 0 t-8.5 -9.5q-41 -101 -113 -221zM693.5 1758.5q2.5 6.5 13.5 6.5h86q13 0 20 -10l133 -170q7 -9 4.5 -14.5t-12.5 -5.5h-57q-13 0 -21 8l-162 172q-7 7 -4.5 13.5z" />
<glyph unicode="&#xc1;" d="M22.5 5.5q-3.5 5.5 2.5 14.5l643 1076q94 163 149 290q7 13 21 13h55q14 0 18 -15q11 -100 52 -288l262 -1078q3 -18 -15 -18h-55q-15 0 -18 14l-93 385h-698l-229 -389q-7 -10 -19 -10h-63q-9 0 -12.5 5.5zM397 481h629l-135 547q-28 121 -35 221q0 7 -4 9.5t-9.5 0 t-8.5 -9.5q-41 -101 -113 -221zM834 1571.5q-2 6.5 6 13.5l196 172q8 8 21 8h86q12 0 13.5 -6.5t-7.5 -13.5l-223 -174q-9 -6 -21 -6h-57q-12 0 -14 6.5z" />
<glyph unicode="&#xc2;" d="M22.5 5.5q-3.5 5.5 2.5 14.5l643 1076q94 163 149 290q7 13 21 13h55q14 0 18 -15q11 -100 52 -288l262 -1078q3 -18 -15 -18h-55q-15 0 -18 14l-93 385h-698l-229 -389q-7 -10 -19 -10h-63q-9 0 -12.5 5.5zM397 481h629l-135 547q-28 121 -35 221q0 7 -4 9.5t-9.5 0 t-8.5 -9.5q-41 -101 -113 -221zM667 1571.5q-2 6.5 7 13.5l203 172q8 8 20 8h66q12 0 20 -8l150 -172q6 -7 2.5 -13.5t-13.5 -6.5h-53q-12 0 -20 8l-129 119l-172 -121q-9 -6 -19 -6h-49q-11 0 -13 6.5z" />
<glyph unicode="&#xc3;" d="M22.5 5.5q-3.5 5.5 2.5 14.5l643 1076q94 163 149 290q7 13 21 13h55q14 0 18 -15q11 -100 52 -288l262 -1078q3 -18 -15 -18h-55q-15 0 -18 14l-93 385h-698l-229 -389q-7 -10 -19 -10h-63q-9 0 -12.5 5.5zM397 481h629l-135 547q-28 121 -35 221q0 7 -4 9.5t-9.5 0 t-8.5 -9.5q-41 -101 -113 -221zM569 1593q-3 6 4 15l50 63q52 76 149 76q40 0 98 -27l125 -51q54 -16 66 -16q47 0 78 39l30 39q7 10 21 10h51q9 0 12 -6t-4 -15l-49 -63q-55 -76 -149 -76q-38 0 -101 29l-121 47q-45 18 -67 18q-51 0 -78 -37l-33 -41q-7 -10 -20 -10h-49 q-10 0 -13 6z" />
<glyph unicode="&#xc4;" d="M22.5 5.5q-3.5 5.5 2.5 14.5l643 1076q94 163 149 290q7 13 21 13h55q14 0 18 -15q11 -100 52 -288l262 -1078q3 -18 -15 -18h-55q-15 0 -18 14l-93 385h-698l-229 -389q-7 -10 -19 -10h-63q-9 0 -12.5 5.5zM397 481h629l-135 547q-28 121 -35 221q0 7 -4 9.5t-9.5 0 t-8.5 -9.5q-41 -101 -113 -221zM723 1653q0 32 18.5 51.5t53.5 19.5q53 0 53 -49q0 -32 -20 -51.5t-52 -19.5q-53 0 -53 49zM987 1653q0 32 18.5 51.5t53.5 19.5q53 0 53 -49q0 -32 -20 -51.5t-52 -19.5q-53 0 -53 49z" />
<glyph unicode="&#xc5;" d="M22.5 5.5q-3.5 5.5 2.5 14.5l643 1076q94 163 149 290q7 13 21 13h55q14 0 18 -15q11 -100 52 -288l262 -1078q3 -18 -15 -18h-55q-15 0 -18 14l-93 385h-698l-229 -389q-7 -10 -19 -10h-63q-9 0 -12.5 5.5zM397 481h629l-135 547q-28 121 -35 221q0 7 -4 9.5t-9.5 0 t-8.5 -9.5q-41 -101 -113 -221zM762 1645q0 67 46 106t124 39q62 0 97.5 -28t35.5 -76q0 -69 -47 -108.5t-127 -39.5q-61 0 -95 28.5t-34 78.5zM840 1655q0 -49 63 -49q40 0 62 17.5t22 47.5q0 51 -65 51q-38 0 -60 -18t-22 -49z" />
<glyph unicode="&#xc6;" horiz-adv-x="1851" d="M22.5 5.5q-3.5 5.5 2.5 14.5l641 1072q80 134 151 294q7 13 21 13h1015q9 0 12.5 -5.5t0.5 -13.5l-21 -49q-6 -12 -20 -12h-871q-17 0 -21.5 -8.5t-4.5 -26.5q1 -38 39 -207l77 -317h574q17 0 14 -19l-8 -49q-3 -14 -16 -14h-545l147 -596h449q17 0 14 -19l-8 -49 q-3 -14 -16 -14h-494q-15 0 -18 14l-95 385h-696l-229 -389q-7 -10 -19 -10h-63q-9 0 -12.5 5.5zM397 481h629l-135 553q-27 104 -35 213q-2 12 -10 12t-12 -12q-35 -86 -111 -215z" />
<glyph unicode="&#xc7;" horiz-adv-x="1218" d="M139 520q0 93 16.5 190t49.5 200t90.5 193t133 161.5t183 113t234.5 41.5q82 0 140 -12t144 -43l74 -31q15 -6 8 -20l-26 -47q-9 -15 -23 -9l-73 29q-68 27 -122 38t-130 11q-96 0 -179 -29t-143.5 -78.5t-110 -116.5t-82 -141t-54 -154.5t-31 -154t-9.5 -143.5 q0 -218 103 -335t297 -117q151 3 270 43l88 30q18 7 21 -10l10 -49q3 -16 -12 -19l-91 -32q-86 -30 -145 -39.5t-149 -9.5q-26 0 -76 4l-51 -101h12q77 0 119.5 -35.5t42.5 -99.5q0 -35 -11.5 -68.5t-35.5 -63.5t-67.5 -48.5t-100.5 -18.5q-41 0 -88 17l-31 10q-18 7 -8 23 l22 41q5 13 21 10l26 -10q37 -11 62 -11q60 0 97.5 30.5t37.5 84.5q0 68 -103 68h-65q-11 0 -18 10l-5 6q-6 9 0 22l74 146q-163 43 -249.5 178t-86.5 346z" />
<glyph unicode="&#xc8;" horiz-adv-x="1222" d="M115 18l221 1366q3 15 16 15h875q9 0 12 -5.5t0 -13.5l-22 -49q-6 -12 -21 -12h-784l-88 -559h667q18 0 15 -19l-9 -49q-3 -14 -16 -14h-672l-94 -596h813q17 0 14 -19l-8 -49q-3 -14 -16 -14h-887q-16 0 -16 18zM618 1758.5q2 6.5 13 6.5h86q13 0 20 -10l133 -170 q7 -9 4.5 -14.5t-12.5 -5.5h-57q-13 0 -21 8l-161 172q-7 7 -5 13.5z" />
<glyph unicode="&#xc9;" horiz-adv-x="1222" d="M115 18l221 1366q3 15 16 15h875q9 0 12 -5.5t0 -13.5l-22 -49q-6 -12 -21 -12h-784l-88 -559h667q18 0 15 -19l-9 -49q-3 -14 -16 -14h-672l-94 -596h813q17 0 14 -19l-8 -49q-3 -14 -16 -14h-887q-16 0 -16 18zM758 1571.5q-2 6.5 6 13.5l197 172q8 8 20 8h86 q12 0 13.5 -6.5t-7.5 -13.5l-223 -174q-9 -6 -21 -6h-57q-12 0 -14 6.5z" />
<glyph unicode="&#xca;" horiz-adv-x="1222" d="M115 18l221 1366q3 15 16 15h875q9 0 12 -5.5t0 -13.5l-22 -49q-6 -12 -21 -12h-784l-88 -559h667q18 0 15 -19l-9 -49q-3 -14 -16 -14h-672l-94 -596h813q17 0 14 -19l-8 -49q-3 -14 -16 -14h-887q-16 0 -16 18zM591 1571.5q-2 6.5 7 13.5l203 172q8 8 20 8h66 q12 0 20 -8l150 -172q6 -7 3 -13.5t-13 -6.5h-54q-12 0 -20 8l-129 119l-172 -121q-9 -6 -19 -6h-49q-11 0 -13 6.5z" />
<glyph unicode="&#xcb;" horiz-adv-x="1222" d="M115 18l221 1366q3 15 16 15h875q9 0 12 -5.5t0 -13.5l-22 -49q-6 -12 -21 -12h-784l-88 -559h667q18 0 15 -19l-9 -49q-3 -14 -16 -14h-672l-94 -596h813q17 0 14 -19l-8 -49q-3 -14 -16 -14h-887q-16 0 -16 18zM647 1653q0 32 18.5 51.5t53.5 19.5q53 0 53 -49 q0 -32 -20 -51.5t-52 -19.5q-53 0 -53 49zM911 1653q0 32 18.5 51.5t53.5 19.5q53 0 53 -49q0 -32 -19.5 -51.5t-51.5 -19.5q-54 0 -54 49z" />
<glyph unicode="&#xcc;" horiz-adv-x="471" d="M115 18l219 1366q3 15 16 15h56q16 0 16 -19l-219 -1366q-3 -14 -17 -14h-55q-16 0 -16 18zM202 1758.5q2 6.5 13 6.5h86q13 0 21 -10l133 -170q7 -9 4 -14.5t-13 -5.5h-57q-12 0 -20 8l-162 172q-7 7 -5 13.5z" />
<glyph unicode="&#xcd;" horiz-adv-x="471" d="M115 18l219 1366q3 15 16 15h56q16 0 16 -19l-219 -1366q-3 -14 -17 -14h-55q-16 0 -16 18zM342 1571.5q-2 6.5 6 13.5l197 172q8 8 20 8h86q12 0 13.5 -6.5t-7.5 -13.5l-223 -174q-9 -6 -20 -6h-58q-12 0 -14 6.5z" />
<glyph unicode="&#xce;" horiz-adv-x="471" d="M115 18l219 1366q3 15 16 15h56q16 0 16 -19l-219 -1366q-3 -14 -17 -14h-55q-16 0 -16 18zM175 1571.5q-2 6.5 7 13.5l203 172q8 8 21 8h65q13 0 21 -8l149 -172q6 -7 3 -13.5t-13 -6.5h-53q-13 0 -21 8l-129 119l-172 -121q-9 -6 -18 -6h-50q-11 0 -13 6.5z" />
<glyph unicode="&#xcf;" horiz-adv-x="471" d="M115 18l219 1366q3 15 16 15h56q16 0 16 -19l-219 -1366q-3 -14 -17 -14h-55q-16 0 -16 18zM231 1653q0 32 18.5 51.5t53.5 19.5q53 0 53 -49q0 -32 -19.5 -51.5t-51.5 -19.5q-54 0 -54 49zM496 1653q0 32 18 51.5t53 19.5q54 0 54 -49q0 -32 -20 -51.5t-52 -19.5 q-53 0 -53 49z" />
<glyph unicode="&#xd0;" horiz-adv-x="1433" d="M113 686l8 49q3 15 16 15h182l103 634q3 15 16 15h441q229 0 355 -139.5t126 -389.5q0 -77 -11.5 -157.5t-37 -166t-63.5 -164t-95 -149t-126.5 -122t-163.5 -81.5t-201 -30h-443q-16 0 -16 18l104 650h-180q-17 0 -14 18zM301 82h367q95 0 177.5 28t143 76t109 113 t80 136.5t53 149.5t30.5 149t9 138q0 214 -103 330.5t-297 116.5h-370l-92 -569h342q17 0 14 -19l-8 -49q-3 -14 -17 -14h-344z" />
<glyph unicode="&#xd1;" horiz-adv-x="1425" d="M115 18l219 1366q3 15 16 15h68q15 0 18 -15q33 -100 86 -192l512 -922q36 -61 47 -114q2 -8 8.5 -9.5t12 4t4.5 13.5q-2 39 10 149l174 1071q3 15 17 15h53q16 0 16 -19l-221 -1366q-3 -14 -16 -14h-66q-15 0 -18 14q-35 105 -84 197l-516 919q-36 73 -45 115 q-2 7 -8.5 8.5t-12 -3.5t-4.5 -13q2 -40 -10 -150l-172 -1073q-3 -14 -17 -14h-55q-16 0 -16 18zM557 1593q-3 6 4 15l49 63q52 76 150 76q40 0 98 -27l125 -51q54 -16 66 -16q46 0 77 39l31 39q7 10 21 10h51q9 0 12 -6t-4 -15l-49 -63q-55 -76 -150 -76q-37 0 -100 29 l-121 47q-45 18 -67 18q-51 0 -78 -37l-33 -41q-7 -10 -21 -10h-49q-9 0 -12 6z" />
<glyph unicode="&#xd2;" d="M139 520q0 78 11.5 160.5t37 171.5t63.5 170t95.5 154t128 126.5t165.5 85t204 31.5q230 0 355.5 -142.5t125.5 -397.5q0 -79 -11.5 -161.5t-37 -171.5t-64 -170t-96 -153.5t-127.5 -126t-165 -85t-203 -31.5q-230 0 -356 142.5t-126 397.5zM229 516q0 -216 102.5 -333 t295.5 -117q96 0 179 29t144 78t110.5 116.5t81.5 140.5t53.5 153.5t30.5 153.5t9 142q0 218 -102.5 337t-294.5 119q-96 0 -179 -29t-143.5 -78.5t-110 -116.5t-82 -141t-54 -155t-31 -155t-9.5 -144zM712 1758.5q2 6.5 13 6.5h86q13 0 20 -10l134 -170q7 -9 4 -14.5 t-13 -5.5h-57q-12 0 -20 8l-162 172q-7 7 -5 13.5z" />
<glyph unicode="&#xd3;" d="M139 520q0 78 11.5 160.5t37 171.5t63.5 170t95.5 154t128 126.5t165.5 85t204 31.5q230 0 355.5 -142.5t125.5 -397.5q0 -79 -11.5 -161.5t-37 -171.5t-64 -170t-96 -153.5t-127.5 -126t-165 -85t-203 -31.5q-230 0 -356 142.5t-126 397.5zM229 516q0 -216 102.5 -333 t295.5 -117q96 0 179 29t144 78t110.5 116.5t81.5 140.5t53.5 153.5t30.5 153.5t9 142q0 218 -102.5 337t-294.5 119q-96 0 -179 -29t-143.5 -78.5t-110 -116.5t-82 -141t-54 -155t-31 -155t-9.5 -144zM852 1571.5q-2 6.5 6 13.5l197 172q8 8 20 8h86q12 0 13.5 -6.5 t-7.5 -13.5l-223 -174q-9 -6 -20 -6h-58q-12 0 -14 6.5z" />
<glyph unicode="&#xd4;" d="M139 520q0 78 11.5 160.5t37 171.5t63.5 170t95.5 154t128 126.5t165.5 85t204 31.5q230 0 355.5 -142.5t125.5 -397.5q0 -79 -11.5 -161.5t-37 -171.5t-64 -170t-96 -153.5t-127.5 -126t-165 -85t-203 -31.5q-230 0 -356 142.5t-126 397.5zM229 516q0 -216 102.5 -333 t295.5 -117q96 0 179 29t144 78t110.5 116.5t81.5 140.5t53.5 153.5t30.5 153.5t9 142q0 218 -102.5 337t-294.5 119q-96 0 -179 -29t-143.5 -78.5t-110 -116.5t-82 -141t-54 -155t-31 -155t-9.5 -144zM683 1571.5q-2 6.5 7 13.5l203 172q8 8 20 8h66q12 0 20 -8l150 -172 q6 -7 3 -13.5t-13 -6.5h-54q-12 0 -20 8l-129 119l-172 -121q-9 -6 -19 -6h-49q-11 0 -13 6.5z" />
<glyph unicode="&#xd5;" d="M139 520q0 78 11.5 160.5t37 171.5t63.5 170t95.5 154t128 126.5t165.5 85t204 31.5q230 0 355.5 -142.5t125.5 -397.5q0 -79 -11.5 -161.5t-37 -171.5t-64 -170t-96 -153.5t-127.5 -126t-165 -85t-203 -31.5q-230 0 -356 142.5t-126 397.5zM229 516q0 -216 102.5 -333 t295.5 -117q96 0 179 29t144 78t110.5 116.5t81.5 140.5t53.5 153.5t30.5 153.5t9 142q0 218 -102.5 337t-294.5 119q-96 0 -179 -29t-143.5 -78.5t-110 -116.5t-82 -141t-54 -155t-31 -155t-9.5 -144zM588 1593q-3 6 4 15l49 63q52 76 150 76q39 0 98 -27l125 -51 q54 -16 65 -16q47 0 78 39l31 39q8 10 20 10h52q9 0 12 -6t-4 -15l-49 -63q-55 -76 -150 -76q-37 0 -100 29l-121 47q-45 18 -68 18q-51 0 -78 -37l-32 -41q-8 -10 -21 -10h-49q-9 0 -12 6z" />
<glyph unicode="&#xd6;" d="M139 520q0 78 11.5 160.5t37 171.5t63.5 170t95.5 154t128 126.5t165.5 85t204 31.5q230 0 355.5 -142.5t125.5 -397.5q0 -79 -11.5 -161.5t-37 -171.5t-64 -170t-96 -153.5t-127.5 -126t-165 -85t-203 -31.5q-230 0 -356 142.5t-126 397.5zM229 516q0 -216 102.5 -333 t295.5 -117q96 0 179 29t144 78t110.5 116.5t81.5 140.5t53.5 153.5t30.5 153.5t9 142q0 218 -102.5 337t-294.5 119q-96 0 -179 -29t-143.5 -78.5t-110 -116.5t-82 -141t-54 -155t-31 -155t-9.5 -144zM741 1653q0 32 18.5 51.5t53.5 19.5q53 0 53 -49q0 -32 -19.5 -51.5 t-51.5 -19.5q-54 0 -54 49zM1006 1653q0 32 18 51.5t53 19.5q53 0 53 -49q0 -32 -19.5 -51.5t-51.5 -19.5q-53 0 -53 49z" />
<glyph unicode="&#xd7;" horiz-adv-x="1191" d="M129 139q-10 14 2 23l412 358l-293 350q-10 14 2 23l35 33q13 10 22 -2l297 -351l412 357q13 10 22 -2l33 -37q10 -14 -2 -23l-414 -356l295 -352q10 -14 -2 -23l-39 -33q-13 -10 -22 2l-295 353l-412 -359q-13 -10 -22 2z" />
<glyph unicode="&#xd8;" horiz-adv-x="1419" d="M67 6q-3 6 5 14l155 168q-77 133 -77 332q0 78 11 160.5t37 171.5t64 170t95.5 154t127.5 126.5t165 85t204 31.5q237 0 363 -151l112 123q8 8 21 8h55q10 0 13 -6.5t-5 -14.5l-156 -168q78 -135 78 -331q0 -79 -11.5 -161.5t-37 -171.5t-64 -170t-96 -153.5t-127.5 -126 t-165 -85t-203 -31.5q-237 0 -363 151l-112 -123q-8 -8 -21 -8h-55q-10 0 -13 6zM240 516q0 -151 51 -256l864 940q-104 135 -307 135q-96 0 -179 -29t-143.5 -78.5t-110 -116.5t-81.5 -141t-54 -155t-31 -155t-9 -144zM330 199q102 -133 307 -133q96 0 179 29t144 78 t110.5 116.5t81.5 140.5t53.5 153.5t30.5 153.5t9 142q0 152 -51 260z" />
<glyph unicode="&#xd9;" horiz-adv-x="1357" d="M180 543l135 841q3 15 17 15h55q16 0 16 -19l-137 -839q-34 -225 56 -350t290 -125q201 0 331 125.5t165 351.5l135 841q3 15 17 15h55q16 0 16 -19l-135 -839q-43 -264 -201 -412.5t-397 -148.5q-241 0 -351 149t-67 414zM638 1758.5q2 6.5 13 6.5h86q13 0 21 -10 l133 -170q7 -9 4 -14.5t-12 -5.5h-58q-12 0 -20 8l-162 172q-7 7 -5 13.5z" />
<glyph unicode="&#xda;" horiz-adv-x="1357" d="M180 543l135 841q3 15 17 15h55q16 0 16 -19l-137 -839q-34 -225 56 -350t290 -125q201 0 331 125.5t165 351.5l135 841q3 15 17 15h55q16 0 16 -19l-135 -839q-43 -264 -201 -412.5t-397 -148.5q-241 0 -351 149t-67 414zM778.5 1571.5q-2.5 6.5 5.5 13.5l197 172 q8 8 20 8h86q12 0 14 -6.5t-7 -13.5l-224 -174q-9 -6 -20 -6h-57q-12 0 -14.5 6.5z" />
<glyph unicode="&#xdb;" horiz-adv-x="1357" d="M180 543l135 841q3 15 17 15h55q16 0 16 -19l-137 -839q-34 -225 56 -350t290 -125q201 0 331 125.5t165 351.5l135 841q3 15 17 15h55q16 0 16 -19l-135 -839q-43 -264 -201 -412.5t-397 -148.5q-241 0 -351 149t-67 414zM611.5 1571.5q-2.5 6.5 6.5 13.5l203 172 q8 8 21 8h65q13 0 21 -8l149 -172q6 -7 3 -13.5t-13 -6.5h-53q-13 0 -21 8l-129 119l-172 -121q-9 -6 -18 -6h-49q-11 0 -13.5 6.5z" />
<glyph unicode="&#xdc;" horiz-adv-x="1357" d="M180 543l135 841q3 15 17 15h55q16 0 16 -19l-137 -839q-34 -225 56 -350t290 -125q201 0 331 125.5t165 351.5l135 841q3 15 17 15h55q16 0 16 -19l-135 -839q-43 -264 -201 -412.5t-397 -148.5q-241 0 -351 149t-67 414zM668 1653q0 32 18 51.5t53 19.5q54 0 54 -49 q0 -32 -20 -51.5t-52 -19.5q-53 0 -53 49zM932 1653q0 32 18.5 51.5t53.5 19.5q53 0 53 -49q0 -32 -20 -51.5t-52 -19.5q-53 0 -53 49z" />
<glyph unicode="&#xdd;" horiz-adv-x="1314" d="M236.5 1393.5q3.5 5.5 13.5 5.5h59q15 0 21 -13l258 -514q60 -121 84 -213q2 -7 5.5 -9.5t8 0t8.5 9.5q77 128 148 213l424 517q8 10 20 10h70q10 0 13 -6t-3 -15l-463 -561q-103 -124 -149.5 -204t-65.5 -193l-63 -406q-3 -14 -17 -14h-55q-19 0 -16 18l63 402 q19 114 -0.5 195.5t-79.5 201.5l-282 563q-5 8 -1.5 13.5zM764 1571.5q-2 6.5 6 13.5l197 172q8 8 20 8h86q12 0 13.5 -6.5t-7.5 -13.5l-223 -174q-9 -6 -20 -6h-58q-12 0 -14 6.5z" />
<glyph unicode="&#xde;" horiz-adv-x="1267" d="M115 18l219 1366q3 15 16 15h56q16 0 16 -19l-41 -243h401q190 0 297 -98t107 -263q0 -70 -16.5 -137t-56.5 -133t-100 -115t-153 -79.5t-209 -30.5h-405l-43 -267q-3 -14 -17 -14h-55q-16 0 -16 18zM258 362h401q95 0 172 26t125.5 67.5t81 96t45.5 107.5t13 107 q0 132 -84.5 210.5t-237.5 78.5h-405z" />
<glyph unicode="&#xdf;" horiz-adv-x="1138" d="M94 18l162 1012q34 203 153 315.5t302 112.5q133 0 207.5 -53.5t74.5 -147.5q0 -120 -129 -233l-166 -147q-45 -40 -65.5 -76t-20.5 -82q0 -38 20 -68t64 -59l166 -105q77 -50 113.5 -98t36.5 -110q0 -134 -105 -216.5t-284 -82.5q-122 0 -240 53l-41 18q-17 7 -6 21 l26 45q8 14 23 8l37 -16q100 -46 203 -46q150 0 225.5 62.5t75.5 146.5q0 41 -27 76t-86 72l-166 106q-123 81 -123 187q0 63 28 116.5t91 108.5l166 145q96 82 96 164q0 60 -52.5 93.5t-147.5 33.5q-145 0 -241 -93t-122 -257l-162 -1010q-3 -14 -16 -14h-53q-17 0 -17 18z " />
<glyph unicode="&#xe0;" horiz-adv-x="1116" d="M102 344q0 82 18 168t60 173.5t102.5 155.5t153.5 111t205 43q122 0 227 -41l136 -49q15 -6 12 -20l-137 -871q-3 -14 -17 -14h-45q-16 0 -16 18l39 222q3 19 -5 18q-8 -3 -18 -16q-37 -58 -72 -100t-82 -81.5t-106 -60t-127 -20.5q-155 0 -241.5 96t-86.5 268zM188 350 q0 -135 65.5 -211t182.5 -76q108 0 207 88.5t166.5 235t95.5 322.5l23 139l-86 31q-94 32 -203 32q-93 0 -171.5 -38t-128.5 -98t-85.5 -136t-50.5 -149t-15 -140zM497 1430q3 6 13 6h65q12 0 19 -11l131 -213q10 -20 -10 -20h-53q-12 0 -19 10l-143 213q-6 9 -3 15z" />
<glyph unicode="&#xe1;" horiz-adv-x="1116" d="M102 344q0 82 18 168t60 173.5t102.5 155.5t153.5 111t205 43q122 0 227 -41l136 -49q15 -6 12 -20l-137 -871q-3 -14 -17 -14h-45q-16 0 -16 18l39 222q3 19 -5 18q-8 -3 -18 -16q-37 -58 -72 -100t-82 -81.5t-106 -60t-127 -20.5q-155 0 -241.5 96t-86.5 268zM188 350 q0 -135 65.5 -211t182.5 -76q108 0 207 88.5t166.5 235t95.5 322.5l23 139l-86 31q-94 32 -203 32q-93 0 -171.5 -38t-128.5 -98t-85.5 -136t-50.5 -149t-15 -140zM620 1198q-2 6 5 14l196 215q9 9 21 9h67q11 0 13.5 -7t-4.5 -14l-211 -215q-8 -8 -21 -8h-53q-11 0 -13 6z " />
<glyph unicode="&#xe2;" horiz-adv-x="1116" d="M102 344q0 82 18 168t60 173.5t102.5 155.5t153.5 111t205 43q122 0 227 -41l136 -49q15 -6 12 -20l-137 -871q-3 -14 -17 -14h-45q-16 0 -16 18l39 222q3 19 -5 18q-8 -3 -18 -16q-37 -58 -72 -100t-82 -81.5t-106 -60t-127 -20.5q-155 0 -241.5 96t-86.5 268zM188 350 q0 -135 65.5 -211t182.5 -76q108 0 207 88.5t166.5 235t95.5 322.5l23 139l-86 31q-94 32 -203 32q-93 0 -171.5 -38t-128.5 -98t-85.5 -136t-50.5 -149t-15 -140zM454 1198q-2 6 5 14l215 215q9 9 20 9h51q12 0 19 -11l147 -213q13 -20 -10 -20h-51q-14 0 -21 10l-122 156 l-175 -158q-8 -8 -20 -8h-45q-11 0 -13 6z" />
<glyph unicode="&#xe3;" horiz-adv-x="1116" d="M102 344q0 82 18 168t60 173.5t102.5 155.5t153.5 111t205 43q122 0 227 -41l136 -49q15 -6 12 -20l-137 -871q-3 -14 -17 -14h-45q-16 0 -16 18l39 222q3 19 -5 18q-8 -3 -18 -16q-37 -58 -72 -100t-82 -81.5t-106 -60t-127 -20.5q-155 0 -241.5 96t-86.5 268zM188 350 q0 -135 65.5 -211t182.5 -76q108 0 207 88.5t166.5 235t95.5 322.5l23 139l-86 31q-94 32 -203 32q-93 0 -171.5 -38t-128.5 -98t-85.5 -136t-50.5 -149t-15 -140zM410 1262l45 69q47 78 127 78q35 0 88 -29l102 -57q32 -18 55 -18q36 0 64 43l31 45q10 10 20 10h45 q10 0 13.5 -6t-1.5 -15l-45 -67q-54 -78 -127 -78q-36 0 -90 29l-98 53q-40 20 -57 20q-38 0 -66 -39l-33 -49q-7 -10 -18 -10h-45q-20 0 -10 21z" />
<glyph unicode="&#xe4;" horiz-adv-x="1116" d="M102 344q0 82 18 168t60 173.5t102.5 155.5t153.5 111t205 43q122 0 227 -41l136 -49q15 -6 12 -20l-137 -871q-3 -14 -17 -14h-45q-16 0 -16 18l39 222q3 19 -5 18q-8 -3 -18 -16q-37 -58 -72 -100t-82 -81.5t-106 -60t-127 -20.5q-155 0 -241.5 96t-86.5 268zM188 350 q0 -135 65.5 -211t182.5 -76q108 0 207 88.5t166.5 235t95.5 322.5l23 139l-86 31q-94 32 -203 32q-93 0 -171.5 -38t-128.5 -98t-85.5 -136t-50.5 -149t-15 -140zM504 1372q0 35 18.5 55.5t50.5 20.5q28 0 44 -15.5t16 -41.5q0 -35 -18.5 -54.5t-51.5 -19.5q-59 0 -59 55z M793 1372q0 35 18.5 55.5t50.5 20.5q28 0 44 -15.5t16 -41.5q0 -35 -18.5 -54.5t-51.5 -19.5q-59 0 -59 55z" />
<glyph unicode="&#xe5;" horiz-adv-x="1116" d="M102 344q0 82 18 168t60 173.5t102.5 155.5t153.5 111t205 43q122 0 227 -41l136 -49q15 -6 12 -20l-137 -871q-3 -14 -17 -14h-45q-16 0 -16 18l39 222q3 19 -5 18q-8 -3 -18 -16q-37 -58 -72 -100t-82 -81.5t-106 -60t-127 -20.5q-155 0 -241.5 96t-86.5 268zM188 350 q0 -135 65.5 -211t182.5 -76q108 0 207 88.5t166.5 235t95.5 322.5l23 139l-86 31q-94 32 -203 32q-93 0 -171.5 -38t-128.5 -98t-85.5 -136t-50.5 -149t-15 -140zM551 1286q0 68 41.5 118t130.5 50q62 0 95.5 -28.5t33.5 -82.5q0 -60 -41.5 -112.5t-130.5 -52.5 q-62 0 -95.5 28t-33.5 80zM629 1313q-9 -68 61 -68q40 0 63 22.5t23 63.5q0 53 -65 53q-70 0 -82 -71z" />
<glyph unicode="&#xe6;" horiz-adv-x="1773" d="M102 342q0 67 13.5 138.5t39.5 146t71 140t102 117t138 81.5t175 30q71 0 115 -8t108 -31l131 -49q16 -6 13 -20l-4 -31q-4 -20 3 -26t25 14q55 68 144 109.5t204 41.5q153 0 237.5 -64.5t84.5 -180.5t-83.5 -194.5t-242.5 -104.5l-430 -72q-3 -152 72 -234t215 -82 q101 0 209 27l57 16q16 3 19 -12l8 -47q3 -16 -15 -20l-53 -13q-132 -34 -229 -34q-121 0 -205.5 50.5t-124.5 145.5q-28 69 -45 74t-55 -47q-159 -223 -361 -223q-336 0 -336 362zM188 350q0 -147 63 -217t193 -70q83 0 161 56t135.5 146.5t99 199t61.5 219.5l27 162 l-90 33q-50 19 -91 25.5t-108 6.5q-80 0 -149 -26.5t-117 -72t-84.5 -102.5t-58 -121t-32 -124t-10.5 -115zM954 461l410 67q133 23 192.5 82t59.5 129q0 82 -63.5 127t-178.5 45q-168 0 -279 -116.5t-141 -333.5z" />
<glyph unicode="&#xe7;" horiz-adv-x="954" d="M102 369q0 83 16.5 166t56.5 167.5t99.5 148t154.5 104t212 40.5q87 0 193 -32l45 -15q16 -6 10 -22l-21 -45q-6 -14 -20 -11l-45 17q-84 24 -164 24q-101 0 -182 -36.5t-130 -93t-81.5 -130.5t-45 -143t-12.5 -137q0 -148 76 -228t223 -80q85 0 197 31l55 17 q8 2 13.5 -2t5.5 -11l10 -49q4 -15 -12 -18l-56 -17q-119 -34 -213 -34h-22l-49 -97h12q77 0 119.5 -35.5t42.5 -99.5q0 -35 -11.5 -68.5t-35.5 -63.5t-67.5 -48.5t-100.5 -18.5q-41 0 -88 17l-31 10q-18 7 -8 23l22 41q5 13 21 10l26 -10q37 -11 62 -11q60 0 97.5 30.5 t37.5 84.5q0 68 -102 68h-66q-11 0 -18 10l-4 6q-6 9 0 22l67 138q-141 25 -215 124t-74 257z" />
<glyph unicode="&#xe8;" horiz-adv-x="1015" d="M102 373q0 65 12.5 133.5t37.5 139.5t67.5 133t98 110.5t134 77t169.5 28.5q153 0 238 -64.5t85 -180.5t-83.5 -193.5t-242.5 -103.5l-432 -70q-3 -154 72.5 -237t216.5 -83q101 0 209 27l57 16q16 3 19 -14l6 -45q3 -16 -12 -20l-54 -13q-132 -34 -229 -34 q-176 0 -272.5 104t-96.5 289zM195 463l411 67q134 23 193 81t59 128q0 82 -64 127t-178 45q-168 0 -278.5 -115.5t-142.5 -332.5zM452 1430q3 6 13 6h65q12 0 19 -11l131 -213q10 -20 -10 -20h-54q-11 0 -18 10l-143 213q-6 9 -3 15z" />
<glyph unicode="&#xe9;" horiz-adv-x="1015" d="M102 373q0 65 12.5 133.5t37.5 139.5t67.5 133t98 110.5t134 77t169.5 28.5q153 0 238 -64.5t85 -180.5t-83.5 -193.5t-242.5 -103.5l-432 -70q-3 -154 72.5 -237t216.5 -83q101 0 209 27l57 16q16 3 19 -14l6 -45q3 -16 -12 -20l-54 -13q-132 -34 -229 -34 q-176 0 -272.5 104t-96.5 289zM195 463l411 67q134 23 193 81t59 128q0 82 -64 127t-178 45q-168 0 -278.5 -115.5t-142.5 -332.5zM575 1198q-3 6 5 14l196 215q9 9 21 9h67q10 0 13 -7t-5 -14l-210 -215q-8 -8 -21 -8h-53q-10 0 -13 6z" />
<glyph unicode="&#xea;" horiz-adv-x="1015" d="M102 373q0 65 12.5 133.5t37.5 139.5t67.5 133t98 110.5t134 77t169.5 28.5q153 0 238 -64.5t85 -180.5t-83.5 -193.5t-242.5 -103.5l-432 -70q-3 -154 72.5 -237t216.5 -83q101 0 209 27l57 16q16 3 19 -14l6 -45q3 -16 -12 -20l-54 -13q-132 -34 -229 -34 q-176 0 -272.5 104t-96.5 289zM195 463l411 67q134 23 193 81t59 128q0 82 -64 127t-178 45q-168 0 -278.5 -115.5t-142.5 -332.5zM409 1198q-3 6 5 14l215 215q9 9 20 9h51q12 0 19 -11l147 -213q13 -20 -10 -20h-51q-13 0 -21 10l-122 156l-175 -158q-8 -8 -20 -8h-45 q-10 0 -13 6z" />
<glyph unicode="&#xeb;" horiz-adv-x="1015" d="M102 373q0 65 12.5 133.5t37.5 139.5t67.5 133t98 110.5t134 77t169.5 28.5q153 0 238 -64.5t85 -180.5t-83.5 -193.5t-242.5 -103.5l-432 -70q-3 -154 72.5 -237t216.5 -83q101 0 209 27l57 16q16 3 19 -14l6 -45q3 -16 -12 -20l-54 -13q-132 -34 -229 -34 q-176 0 -272.5 104t-96.5 289zM195 463l411 67q134 23 193 81t59 128q0 82 -64 127t-178 45q-168 0 -278.5 -115.5t-142.5 -332.5zM461 1372q0 35 18.5 55.5t50.5 20.5q28 0 44 -15.5t16 -41.5q0 -35 -18.5 -54.5t-51.5 -19.5q-59 0 -59 55zM750 1372q0 35 18.5 55.5 t50.5 20.5q28 0 44 -15.5t16 -41.5q0 -35 -18.5 -54.5t-51.5 -19.5q-59 0 -59 55z" />
<glyph unicode="&#xec;" horiz-adv-x="483" d="M152 18l139 875h-88q-18 0 -15 18l9 50q3 14 16 14h160q16 0 16 -19l-153 -942q-3 -14 -17 -14h-51q-16 0 -16 18zM266 1417q-3 7 1 13t12 6h61q15 0 18 -15l52 -211q3 -18 -15 -18h-45q-15 0 -18 14z" />
<glyph unicode="&#xed;" horiz-adv-x="483" d="M152 18l139 875h-88q-18 0 -15 18l9 50q3 14 16 14h160q16 0 16 -19l-153 -942q-3 -14 -17 -14h-51q-16 0 -16 18zM325.5 1197.5q-3.5 5.5 0.5 14.5l116 211q6 13 19 13h61q20 0 10 -21l-133 -213q-7 -10 -18 -10h-43q-9 0 -12.5 5.5z" />
<glyph unicode="&#xee;" horiz-adv-x="483" d="M152 18l139 875h-88q-18 0 -15 18l9 50q3 14 16 14h160q16 0 16 -19l-153 -942q-3 -14 -17 -14h-51q-16 0 -16 18zM179 1197.5q-3 5.5 3 14.5l170 213q8 11 21 11h51q14 0 20 -13l105 -213q5 -8 1.5 -13t-13.5 -5h-48q-12 0 -18 12l-84 148l-133 -152q-8 -8 -21 -8h-40 q-11 0 -14 5.5z" />
<glyph unicode="&#xef;" horiz-adv-x="483" d="M152 18l139 875h-88q-18 0 -15 18l9 50q3 14 16 14h160q16 0 16 -19l-153 -942q-3 -14 -17 -14h-51q-16 0 -16 18zM223 1372q0 35 19 55.5t51 20.5q28 0 43.5 -15.5t15.5 -41.5q0 -35 -18.5 -54.5t-50.5 -19.5q-60 0 -60 55zM436 1372q0 35 19 55.5t51 20.5 q28 0 43.5 -15.5t15.5 -41.5q0 -35 -18.5 -54.5t-50.5 -19.5q-60 0 -60 55z" />
<glyph unicode="&#xf0;" horiz-adv-x="1097" d="M100 358q0 78 17 158t56.5 159.5t96.5 141t145 99.5t195 38q162 0 256 -94q18 -16 26 -8.5t3 27.5q-43 156 -172 297l-213 -105q-14 -9 -23 6l-16 33q-9 12 6 23l195 96l-37 35l-152 151q-7 7 -4.5 14t13.5 7h75q12 0 21 -9l114 -114l48 -45l215 106q11 8 22 -6l17 -35 q5 -13 -9 -22l-196 -97q198 -214 198 -524q0 -100 -16.5 -195.5t-56 -190t-98 -165.5t-151.5 -115t-208 -44q-174 0 -270.5 100t-96.5 278zM184 360q0 -141 74.5 -219t212.5 -78q93 0 169 34.5t122.5 88t78 123t44 135.5t12.5 129q0 142 -75 220.5t-212 78.5 q-93 0 -169 -34.5t-122.5 -88t-78 -123.5t-44 -136t-12.5 -130z" />
<glyph unicode="&#xf1;" horiz-adv-x="1136" d="M94 18l152 943q3 14 16 14h45q20 0 17 -19l-23 -137q0 -12 7 -14t16 10q144 180 374 180q167 0 245.5 -109t49.5 -296l-94 -576q-3 -14 -16 -14h-52q-16 0 -16 18l92 576q25 150 -32 233.5t-183 83.5q-174 0 -289.5 -121t-152.5 -341l-70 -435q-3 -14 -16 -14h-53 q-17 0 -17 18zM430 1262l45 69q47 78 127 78q35 0 88 -29l103 -57q32 -18 55 -18q35 0 63 43l31 45q10 10 21 10h45q22 0 12 -21l-45 -67q-54 -78 -127 -78q-36 0 -90 29l-99 53q-40 20 -57 20q-37 0 -65 -39l-33 -49q-7 -10 -19 -10h-45q-20 0 -10 21z" />
<glyph unicode="&#xf2;" horiz-adv-x="1091" d="M102 373q0 79 17 161.5t57 166t98.5 148.5t148.5 105.5t200 40.5q174 0 271 -103.5t97 -287.5q0 -79 -17 -161.5t-57.5 -166.5t-98.5 -149t-148 -106t-199 -41q-174 0 -271.5 104t-97.5 289zM188 373q0 -148 74.5 -229t210.5 -81q93 0 169 36.5t123.5 93.5t79.5 130.5 t45 143.5t13 137q0 147 -74 227t-211 80q-94 0 -169.5 -36t-123 -92.5t-79.5 -130t-45 -143t-13 -136.5zM480 1430q3 6 14 6h65q12 0 19 -11l131 -213q10 -20 -11 -20h-53q-11 0 -18 10l-144 213q-6 9 -3 15z" />
<glyph unicode="&#xf3;" horiz-adv-x="1091" d="M102 373q0 79 17 161.5t57 166t98.5 148.5t148.5 105.5t200 40.5q174 0 271 -103.5t97 -287.5q0 -79 -17 -161.5t-57.5 -166.5t-98.5 -149t-148 -106t-199 -41q-174 0 -271.5 104t-97.5 289zM188 373q0 -148 74.5 -229t210.5 -81q93 0 169 36.5t123.5 93.5t79.5 130.5 t45 143.5t13 137q0 147 -74 227t-211 80q-94 0 -169.5 -36t-123 -92.5t-79.5 -130t-45 -143t-13 -136.5zM603 1198q-3 6 5 14l197 215q9 9 20 9h68q10 0 13 -7t-5 -14l-211 -215q-8 -8 -20 -8h-54q-10 0 -13 6z" />
<glyph unicode="&#xf4;" horiz-adv-x="1091" d="M102 373q0 79 17 161.5t57 166t98.5 148.5t148.5 105.5t200 40.5q174 0 271 -103.5t97 -287.5q0 -79 -17 -161.5t-57.5 -166.5t-98.5 -149t-148 -106t-199 -41q-174 0 -271.5 104t-97.5 289zM188 373q0 -148 74.5 -229t210.5 -81q93 0 169 36.5t123.5 93.5t79.5 130.5 t45 143.5t13 137q0 147 -74 227t-211 80q-94 0 -169.5 -36t-123 -92.5t-79.5 -130t-45 -143t-13 -136.5zM437.5 1198q-2.5 6 4.5 14l215 215q9 9 21 9h51q12 0 19 -11l147 -213q13 -20 -10 -20h-51q-14 0 -21 10l-123 156l-174 -158q-8 -8 -20 -8h-45q-11 0 -13.5 6z" />
<glyph unicode="&#xf5;" horiz-adv-x="1091" d="M102 373q0 79 17 161.5t57 166t98.5 148.5t148.5 105.5t200 40.5q174 0 271 -103.5t97 -287.5q0 -79 -17 -161.5t-57.5 -166.5t-98.5 -149t-148 -106t-199 -41q-174 0 -271.5 104t-97.5 289zM188 373q0 -148 74.5 -229t210.5 -81q93 0 169 36.5t123.5 93.5t79.5 130.5 t45 143.5t13 137q0 147 -74 227t-211 80q-94 0 -169.5 -36t-123 -92.5t-79.5 -130t-45 -143t-13 -136.5zM394 1247q-3 6 1 15l45 69q47 78 127 78q35 0 88 -29l103 -57q32 -18 55 -18q36 0 64 43l30 45q10 10 21 10h45q10 0 13.5 -6t-1.5 -15l-45 -67q-54 -78 -127 -78 q-36 0 -90 29l-98 53q-40 20 -58 20q-37 0 -65 -39l-33 -49q-7 -10 -18 -10h-45q-9 0 -12 6z" />
<glyph unicode="&#xf6;" horiz-adv-x="1091" d="M102 373q0 79 17 161.5t57 166t98.5 148.5t148.5 105.5t200 40.5q174 0 271 -103.5t97 -287.5q0 -79 -17 -161.5t-57.5 -166.5t-98.5 -149t-148 -106t-199 -41q-174 0 -271.5 104t-97.5 289zM188 373q0 -148 74.5 -229t210.5 -81q93 0 169 36.5t123.5 93.5t79.5 130.5 t45 143.5t13 137q0 147 -74 227t-211 80q-94 0 -169.5 -36t-123 -92.5t-79.5 -130t-45 -143t-13 -136.5zM489 1372q0 35 19 55.5t51 20.5q28 0 43.5 -15.5t15.5 -41.5q0 -35 -18.5 -54.5t-50.5 -19.5q-60 0 -60 55zM778 1372q0 35 19 55.5t51 20.5q28 0 43.5 -15.5 t15.5 -41.5q0 -35 -18.5 -54.5t-50.5 -19.5q-60 0 -60 55z" />
<glyph unicode="&#xf8;" horiz-adv-x="1093" d="M49 6q-3 6 4 14l111 115q-60 94 -60 238q0 79 17 161.5t57 166t98.5 148.5t148.5 105.5t200 40.5q168 0 266 -98l65 70q8 8 21 8h53q11 0 14 -6.5t-4 -14.5l-108 -112q59 -92 59 -238q0 -79 -17 -161.5t-57 -166.5t-97.5 -149t-147.5 -106t-199 -41q-173 0 -268 100 l-68 -72q-8 -8 -20 -8h-54q-11 0 -14 6zM190 373q0 -100 35 -172l604 633q-71 77 -208 77q-78 0 -144.5 -25t-112.5 -68t-80.5 -97t-54.5 -116t-29.5 -119.5t-9.5 -112.5zM264 143q74 -80 211 -80q93 0 169.5 36.5t124 93.5t80 130.5t45.5 143.5t13 137q0 104 -37 174z" />
<glyph unicode="&#xf9;" horiz-adv-x="1136" d="M143 385l95 576q3 14 16 14h51q17 0 17 -19l-93 -575q-25 -151 32 -234.5t183 -83.5q174 0 290 121.5t153 341.5l69 435q3 14 17 14h53q16 0 16 -19l-151 -942q-3 -14 -17 -14h-45q-19 0 -16 18l23 138q0 12 -7 14t-16 -10q-144 -180 -375 -180q-167 0 -245.5 109 t-49.5 296zM489 1430q3 6 13 6h65q12 0 19 -11l131 -213q10 -20 -10 -20h-54q-11 0 -18 10l-143 213q-6 9 -3 15z" />
<glyph unicode="&#xfa;" horiz-adv-x="1136" d="M143 385l95 576q3 14 16 14h51q17 0 17 -19l-93 -575q-25 -151 32 -234.5t183 -83.5q174 0 290 121.5t153 341.5l69 435q3 14 17 14h53q16 0 16 -19l-151 -942q-3 -14 -17 -14h-45q-19 0 -16 18l23 138q0 12 -7 14t-16 -10q-144 -180 -375 -180q-167 0 -245.5 109 t-49.5 296zM613.5 1198q-2.5 6 4.5 14l197 215q9 9 21 9h67q10 0 13 -7t-5 -14l-211 -215q-8 -8 -20 -8h-53q-11 0 -13.5 6z" />
<glyph unicode="&#xfb;" horiz-adv-x="1136" d="M143 385l95 576q3 14 16 14h51q17 0 17 -19l-93 -575q-25 -151 32 -234.5t183 -83.5q174 0 290 121.5t153 341.5l69 435q3 14 17 14h53q16 0 16 -19l-151 -942q-3 -14 -17 -14h-45q-19 0 -16 18l23 138q0 12 -7 14t-16 -10q-144 -180 -375 -180q-167 0 -245.5 109 t-49.5 296zM446 1198q-2 6 5 14l215 215q9 9 20 9h51q12 0 19 -11l147 -213q13 -20 -10 -20h-51q-14 0 -21 10l-123 156l-174 -158q-8 -8 -20 -8h-45q-11 0 -13 6z" />
<glyph unicode="&#xfc;" horiz-adv-x="1136" d="M143 385l95 576q3 14 16 14h51q17 0 17 -19l-93 -575q-25 -151 32 -234.5t183 -83.5q174 0 290 121.5t153 341.5l69 435q3 14 17 14h53q16 0 16 -19l-151 -942q-3 -14 -17 -14h-45q-19 0 -16 18l23 138q0 12 -7 14t-16 -10q-144 -180 -375 -180q-167 0 -245.5 109 t-49.5 296zM498 1372q0 35 18.5 55.5t50.5 20.5q28 0 44 -15.5t16 -41.5q0 -35 -18.5 -54.5t-51.5 -19.5q-59 0 -59 55zM786 1372q0 35 19 55.5t51 20.5q28 0 43.5 -15.5t15.5 -41.5q0 -35 -18.5 -54.5t-50.5 -19.5q-60 0 -60 55z" />
<glyph unicode="&#xfd;" horiz-adv-x="1095" d="M143 -410l215 351q72 123 25 288l-219 727q-6 19 12 19h55q16 0 19 -14l184 -615q36 -108 39 -188q1 -14 5.5 -19t11 -0.5t14.5 19.5q53 104 104 188l381 619q7 10 19 10h61q9 0 12 -6t-2 -15l-850 -1374q-7 -10 -18 -10h-57q-21 0 -11 20zM593 1198q-3 6 5 14l197 215 q9 9 20 9h68q10 0 13 -7t-5 -14l-211 -215q-8 -8 -21 -8h-53q-10 0 -13 6z" />
<glyph unicode="&#xfe;" horiz-adv-x="1124" d="M27 -412l292 1833q3 15 17 15h53q17 0 17 -19l-68 -416q-18 -120 -35 -182q-4 -14 -0.5 -16.5t8 -1t8.5 5.5q66 88 158.5 138t198.5 50q168 0 258 -100t90 -283q0 -82 -16 -165.5t-55.5 -169t-97 -150.5t-148.5 -106t-203 -41q-137 0 -254 55l-62 28l-75 -479 q-3 -14 -17 -14h-53q-16 0 -16 18zM201 150l86 -39q98 -48 219 -48q92 0 167.5 36.5t123 94t80 132t46 145.5t13.5 139q0 144 -68 222.5t-196 78.5q-167 0 -277.5 -130t-144.5 -337z" />
<glyph unicode="&#xff;" horiz-adv-x="1095" d="M143 -410l215 351q72 123 25 288l-219 727q-6 19 12 19h55q16 0 19 -14l184 -615q36 -108 39 -188q1 -14 5.5 -19t11 -0.5t14.5 19.5q53 104 104 188l381 619q7 10 19 10h61q9 0 12 -6t-2 -15l-850 -1374q-7 -10 -18 -10h-57q-21 0 -11 20zM477 1372q0 35 19 55.5 t51 20.5q28 0 43.5 -15.5t15.5 -41.5q0 -35 -18.5 -54.5t-50.5 -19.5q-60 0 -60 55zM766 1372q0 35 19 55.5t51 20.5q28 0 43.5 -15.5t15.5 -41.5q0 -35 -18.5 -54.5t-51.5 -19.5q-59 0 -59 55z" />
<glyph unicode="&#x152;" horiz-adv-x="2189" d="M139 516q0 138 29 269.5t87 246t138 201t190.5 136.5t237.5 50q164 0 266.5 -70t147.5 -186q12 -28 22 -28.5t15 28.5l33 221q3 15 16 15h872q9 0 12.5 -5.5t0.5 -13.5l-21 -49q-6 -12 -20 -12h-787l-90 -569h668q17 0 14 -19l-8 -49q-3 -14 -16 -14h-672l-92 -586h815 q17 0 14 -19l-8 -49q-3 -14 -16 -14h-885q-17 0 -17 18l35 209q5 27 -4 28.5t-29 -22.5q-185 -253 -481 -253q-219 0 -343 139t-124 397zM229 522q0 -225 102 -340.5t287 -115.5q114 0 211.5 47.5t165 127.5t116 185t71 220t22.5 233q0 232 -103 344t-294 112 q-161 0 -294 -107.5t-208.5 -294t-75.5 -411.5z" />
<glyph unicode="&#x153;" horiz-adv-x="1796" d="M102 373q0 65 12.5 133.5t37.5 139.5t67.5 133t98 110.5t134 77t169.5 28.5q134 0 221.5 -64.5t118.5 -187.5q9 -30 32 7q137 245 410 245q152 0 236.5 -64.5t84.5 -180.5t-84 -194.5t-243 -104.5l-426 -70q-2 -152 71 -235t211 -83q103 0 211 27l58 16q15 3 18 -14 l6 -47q4 -15 -12 -18l-55 -15q-112 -32 -228 -32q-275 0 -340 251q-9 29 -32 -8q-69 -120 -173 -181.5t-235 -61.5q-174 0 -271.5 104t-97.5 289zM188 373q0 -147 74 -228.5t211 -81.5q77 0 143 26t112 70t80.5 99t54.5 117t30 119t10 110q0 147 -74 227t-211 80 q-92 0 -167.5 -36.5t-123 -94t-80 -131t-46 -142.5t-13.5 -134zM977 461l409 67q132 23 192 80.5t60 132.5q0 80 -62 125t-177 45q-167 0 -276.5 -114.5t-145.5 -335.5z" />
<glyph unicode="&#x178;" horiz-adv-x="1314" d="M236.5 1393.5q3.5 5.5 13.5 5.5h59q15 0 21 -13l258 -514q60 -121 84 -213q2 -7 5.5 -9.5t8 0t8.5 9.5q77 128 148 213l424 517q8 10 20 10h70q10 0 13 -6t-3 -15l-463 -561q-103 -124 -149.5 -204t-65.5 -193l-63 -406q-3 -14 -17 -14h-55q-19 0 -16 18l63 402 q19 114 -0.5 195.5t-79.5 201.5l-282 563q-5 8 -1.5 13.5zM653 1653q0 32 18.5 51.5t53.5 19.5q53 0 53 -49q0 -32 -19.5 -51.5t-51.5 -19.5q-54 0 -54 49zM918 1653q0 32 18 51.5t53 19.5q53 0 53 -49q0 -32 -19.5 -51.5t-51.5 -19.5q-53 0 -53 49z" />
<glyph unicode="&#x2c6;" horiz-adv-x="684" d="M226.5 1198q-2.5 6 4.5 14l215 215q9 9 21 9h51q12 0 19 -11l147 -213q13 -20 -10 -20h-51q-13 0 -21 10l-123 156l-174 -158q-8 -8 -20 -8h-45q-11 0 -13.5 6z" />
<glyph unicode="&#x2dc;" horiz-adv-x="776" d="M227 1247l45 70q47 78 127 78q35 0 88 -29l103 -57q34 -19 55 -19q36 0 64 43l30 45q11 11 21 11h45q10 0 13.5 -6t-1.5 -15l-45 -68q-54 -77 -127 -77q-38 0 -90 28l-98 54q-40 20 -58 20q-37 0 -65 -39l-33 -49q-7 -10 -18 -10h-45q-21 0 -11 20z" />
<glyph unicode="&#x2000;" horiz-adv-x="895" />
<glyph unicode="&#x2001;" horiz-adv-x="1790" />
<glyph unicode="&#x2002;" horiz-adv-x="895" />
<glyph unicode="&#x2003;" horiz-adv-x="1790" />
<glyph unicode="&#x2004;" horiz-adv-x="596" />
<glyph unicode="&#x2005;" horiz-adv-x="447" />
<glyph unicode="&#x2006;" horiz-adv-x="298" />
<glyph unicode="&#x2007;" horiz-adv-x="298" />
<glyph unicode="&#x2008;" horiz-adv-x="223" />
<glyph unicode="&#x2009;" horiz-adv-x="358" />
<glyph unicode="&#x200a;" horiz-adv-x="99" />
<glyph unicode="&#x2010;" horiz-adv-x="905" d="M178 516l8 49q3 15 17 15h524q17 0 14 -19l-8 -49q-3 -14 -16 -14h-524q-18 0 -15 18z" />
<glyph unicode="&#x2011;" horiz-adv-x="905" d="M178 516l8 49q3 15 17 15h524q17 0 14 -19l-8 -49q-3 -14 -16 -14h-524q-18 0 -15 18z" />
<glyph unicode="&#x2012;" horiz-adv-x="905" d="M178 516l8 49q3 15 17 15h524q17 0 14 -19l-8 -49q-3 -14 -16 -14h-524q-18 0 -15 18z" />
<glyph unicode="&#x2013;" horiz-adv-x="1363" d="M178 516l8 49q3 15 17 15h983q17 0 14 -19l-8 -49q-3 -14 -16 -14h-983q-18 0 -15 18z" />
<glyph unicode="&#x2014;" horiz-adv-x="1587" d="M178 516l8 49q3 15 17 15h1206q17 0 14 -19l-8 -49q-3 -14 -16 -14h-1206q-18 0 -15 18z" />
<glyph unicode="&#x2018;" horiz-adv-x="366" d="M225 1241q-6 -40 11.5 -63t54.5 -23q36 0 59.5 21t28.5 57q9 48 -31 65q-20 12 -2 35l76 101h-76l-67 -93q-47 -63 -54 -100z" />
<glyph unicode="&#x2019;" horiz-adv-x="366" d="M205 1169h76l67 93q17 22 23.5 32t16 29.5t13.5 38.5q6 40 -11 63t-54 23q-36 0 -59.5 -21t-28.5 -57q-9 -48 31 -65q20 -12 2 -35z" />
<glyph unicode="&#x201a;" horiz-adv-x="366" d="M-4 -137h76l67 92q47 63 54 100q6 40 -11.5 63t-54.5 23q-36 0 -59.5 -21t-28.5 -57q-9 -48 31 -65q20 -12 2 -35z" />
<glyph unicode="&#x201c;" horiz-adv-x="622" d="M225 1241q-6 -40 11.5 -63t54.5 -23q36 0 59.5 21t28.5 57q9 48 -31 65q-20 12 -2 35l76 101h-76l-67 -93q-47 -63 -54 -100zM481 1241q-6 -40 11.5 -63t54.5 -23q36 0 59.5 21t28.5 57q9 48 -31 65q-20 12 -2 35l76 101h-76l-67 -93q-47 -63 -54 -100z" />
<glyph unicode="&#x201d;" horiz-adv-x="624" d="M205 1169h76l67 93q17 22 23.5 32t16 29.5t13.5 38.5q6 40 -11 63t-54 23q-36 0 -59.5 -21t-28.5 -57q-9 -48 31 -65q20 -12 2 -35zM463 1169h76l67 93q17 22 23.5 32t16 29.5t13.5 38.5q6 40 -11 63t-54 23q-36 0 -59.5 -21t-28.5 -57q-9 -48 31 -65q20 -12 2 -35z" />
<glyph unicode="&#x201e;" horiz-adv-x="624" d="M-4 -137h76l67 92q47 63 54 100q6 40 -11.5 63t-54.5 23q-36 0 -59.5 -21t-28.5 -57q-9 -48 31 -65q20 -12 2 -35zM254 -137h76l67 92q47 63 54 100q6 40 -11.5 63t-54.5 23q-36 0 -59.5 -21t-28.5 -57q-9 -48 31 -65q20 -12 2 -35z" />
<glyph unicode="&#x2022;" horiz-adv-x="669" d="M244 668q0 163 145 163q109 0 109 -96q0 -69 -32 -117.5t-110 -48.5q-112 0 -112 99z" />
<glyph unicode="&#x2026;" horiz-adv-x="978" d="M74 66q13 75 82 75q38 0 57 -23t12 -61q-4 -37 -26.5 -57t-57.5 -20q-38 0 -55.5 23t-11.5 63zM356 66q13 75 82 75q39 0 58 -23t12 -61q-4 -37 -26.5 -57t-57.5 -20q-38 0 -56 23t-12 63zM639 66q13 75 82 75q39 0 58 -23t12 -61q-4 -37 -26.5 -57t-57.5 -20 q-38 0 -56 23t-12 63z" />
<glyph unicode="&#x202f;" horiz-adv-x="358" />
<glyph unicode="&#x2039;" horiz-adv-x="731" d="M174 477v17q0 12 8 20l316 322q8 8 20 8h70q10 0 13 -7t-5 -14l-330 -336l226 -335q10 -21 -13 -21h-63q-12 0 -19 10l-217 318q-6 9 -6 18z" />
<glyph unicode="&#x203a;" horiz-adv-x="731" d="M130 137.5q-3 6.5 5 14.5l330 335l-225 336q-10 21 12 21h63q12 0 19 -10l217 -318q6 -9 6 -18v-17q0 -12 -8 -20l-316 -322q-8 -8 -20 -8h-70q-10 0 -13 6.5z" />
<glyph unicode="&#x205f;" horiz-adv-x="447" />
<glyph unicode="&#x20ac;" horiz-adv-x="1273" d="M37 571l8 43q3 15 16 15h140q6 78 24 157h-137q-17 0 -14 19l8 45q3 14 16 14h148q27 89 65.5 167.5t96 151t127.5 124t164 82t202 30.5q82 0 140.5 -12t144.5 -43l74 -31q15 -6 8 -20l-27 -47q-9 -14 -22 -9l-74 29q-68 27 -122 38t-130 11q-112 0 -205.5 -38.5 t-160 -106.5t-112.5 -148.5t-77 -177.5h551q22 0 12 -20l-24 -45q-7 -13 -19 -13h-541q-21 -92 -26 -157h479q10 0 13.5 -5.5t-1.5 -13.5l-22 -45q-6 -12 -21 -12h-454v-35q0 -218 102.5 -335t296.5 -117q151 3 270 43l88 30q18 7 21 -10l10 -49q3 -16 -12 -19l-90 -32 q-85 -30 -144.5 -39.5t-150.5 -9.5q-230 0 -355.5 142.5t-125.5 397.5v33h-144q-17 0 -14 18z" />
<glyph unicode="&#x2122;" horiz-adv-x="1798" d="M49 1339v43q0 17 17 17h639q16 0 16 -17v-43q0 -16 -16 -16h-281v-686q0 -16 -16 -16h-48q-16 0 -16 16v686h-278q-17 0 -17 16zM887 637v745q0 17 16 17h82q16 0 19 -13q23 -56 40 -86l181 -356q5 -14 21.5 -49t21.5 -51q6 -20 14 0q8 24 45 100l180 356q26 54 37 86 q6 13 21 13h84q16 0 16 -17v-745q0 -16 -16 -16h-50q-16 0 -16 16v477q0 94 8 154q1 6 -0.5 10t-4 5t-5.5 -1t-5 -8t-3 -8q-5 -10 -18.5 -39t-20.5 -45l-176 -344q-38 -78 -45 -97q-3 -14 -19 -14h-37q-14 0 -20 12q-9 23 -45 99l-174 344q-8 20 -25.5 53.5t-19.5 38.5 q-6 12 -11.5 9t-3.5 -15q7 -53 7 -154v-477q0 -16 -17 -16h-45q-16 0 -16 16z" />
<glyph unicode="&#x25fc;" horiz-adv-x="972" d="M0 0v973h973v-973h-973z" />
</font>
</defs>
</svg>
